<?xml version="1.0" encoding="utf-8" standalone="no"?>
<!DOCTYPE svg PUBLIC "-//W3C//DTD SVG 1.1//EN"
  "http://www.w3.org/Graphics/SVG/1.1/DTD/svg11.dtd">
<svg xmlns:xlink="http://www.w3.org/1999/xlink" width="864pt" height="1152pt" viewBox="0 0 864 1152" xmlns="http://www.w3.org/2000/svg" version="1.1">
 <metadata>
  <rdf:RDF xmlns:dc="http://purl.org/dc/elements/1.1/" xmlns:cc="http://creativecommons.org/ns#" xmlns:rdf="http://www.w3.org/1999/02/22-rdf-syntax-ns#">
   <cc:Work>
    <dc:type rdf:resource="http://purl.org/dc/dcmitype/StillImage"/>
    <dc:date>2025-12-04T15:53:30.873128</dc:date>
    <dc:format>image/svg+xml</dc:format>
    <dc:creator>
     <cc:Agent>
      <dc:title>Matplotlib v3.7.2, https://matplotlib.org/</dc:title>
     </cc:Agent>
    </dc:creator>
   </cc:Work>
  </rdf:RDF>
 </metadata>
 <defs>
  <style type="text/css">*{stroke-linejoin: round; stroke-linecap: butt}</style>
 </defs>
 <g id="figure_1">
  <g id="patch_1">
   <path d="M 0 1152 
L 864 1152 
L 864 0 
L 0 0 
z
" style="fill: #ffffff"/>
  </g>
  <g id="axes_1">
   <g id="patch_2">
    <path d="M 182.23 1095.64 
L 694.728 1095.64 
L 694.728 17.28 
L 182.23 17.28 
z
" style="fill: #ffffff"/>
   </g>
   <g id="patch_3">
    <path d="M 182.23 66.296364 
L 682.525667 66.296364 
L 682.525667 84.28402 
L 182.23 84.28402 
z
" clip-path="url(#p44e0e8d058)" style="fill: #ff1493; opacity: 0.85; stroke: #ffffff; stroke-width: 1.5; stroke-linejoin: miter"/>
   </g>
   <g id="patch_4">
    <path d="M 182.23 111.265505 
L 679.654529 111.265505 
L 679.654529 129.253161 
L 182.23 129.253161 
z
" clip-path="url(#p44e0e8d058)" style="fill: #ff1493; opacity: 0.85; stroke: #ffffff; stroke-width: 1.5; stroke-linejoin: miter"/>
   </g>
   <g id="patch_5">
    <path d="M 182.23 156.234646 
L 678.877546 156.234646 
L 678.877546 174.222302 
L 182.23 174.222302 
z
" clip-path="url(#p44e0e8d058)" style="fill: #ff1493; opacity: 0.85; stroke: #ffffff; stroke-width: 1.5; stroke-linejoin: miter"/>
   </g>
   <g id="patch_6">
    <path d="M 182.23 201.203786 
L 678.712438 201.203786 
L 678.712438 219.191443 
L 182.23 219.191443 
z
" clip-path="url(#p44e0e8d058)" style="fill: #ff1493; opacity: 0.85; stroke: #ffffff; stroke-width: 1.5; stroke-linejoin: miter"/>
   </g>
   <g id="patch_7">
    <path d="M 182.23 246.172927 
L 675.016538 246.172927 
L 675.016538 264.160584 
L 182.23 264.160584 
z
" clip-path="url(#p44e0e8d058)" style="fill: #ff1493; opacity: 0.85; stroke: #ffffff; stroke-width: 1.5; stroke-linejoin: miter"/>
   </g>
   <g id="patch_8">
    <path d="M 182.23 291.142068 
L 673.373917 291.142068 
L 673.373917 309.129725 
L 182.23 309.129725 
z
" clip-path="url(#p44e0e8d058)" style="fill: #ff1493; opacity: 0.85; stroke: #ffffff; stroke-width: 1.5; stroke-linejoin: miter"/>
   </g>
   <g id="patch_9">
    <path d="M 182.23 336.111209 
L 672.685075 336.111209 
L 672.685075 354.098866 
L 182.23 354.098866 
z
" clip-path="url(#p44e0e8d058)" style="fill: #ff1493; opacity: 0.85; stroke: #ffffff; stroke-width: 1.5; stroke-linejoin: miter"/>
   </g>
   <g id="patch_10">
    <path d="M 182.23 381.08035 
L 671.780328 381.08035 
L 671.780328 399.068007 
L 182.23 399.068007 
z
" clip-path="url(#p44e0e8d058)" style="fill: #ff1493; opacity: 0.85; stroke: #ffffff; stroke-width: 1.5; stroke-linejoin: miter"/>
   </g>
   <g id="patch_11">
    <path d="M 182.23 426.049491 
L 669.1031 426.049491 
L 669.1031 444.037148 
L 182.23 444.037148 
z
" clip-path="url(#p44e0e8d058)" style="fill: #ff1493; opacity: 0.85; stroke: #ffffff; stroke-width: 1.5; stroke-linejoin: miter"/>
   </g>
   <g id="patch_12">
    <path d="M 182.23 471.018632 
L 668.446051 471.018632 
L 668.446051 489.006289 
L 182.23 489.006289 
z
" clip-path="url(#p44e0e8d058)" style="fill: #ff1493; opacity: 0.85; stroke: #ffffff; stroke-width: 1.5; stroke-linejoin: miter"/>
   </g>
   <g id="patch_13">
    <path d="M 182.23 515.987773 
L 667.27275 515.987773 
L 667.27275 533.97543 
L 182.23 533.97543 
z
" clip-path="url(#p44e0e8d058)" style="fill: #ff1493; opacity: 0.85; stroke: #ffffff; stroke-width: 1.5; stroke-linejoin: miter"/>
   </g>
   <g id="patch_14">
    <path d="M 182.23 560.956914 
L 667.025405 560.956914 
L 667.025405 578.94457 
L 182.23 578.94457 
z
" clip-path="url(#p44e0e8d058)" style="fill: #ff1493; opacity: 0.85; stroke: #ffffff; stroke-width: 1.5; stroke-linejoin: miter"/>
   </g>
   <g id="patch_15">
    <path d="M 182.23 605.926055 
L 658.121 605.926055 
L 658.121 623.913711 
L 182.23 623.913711 
z
" clip-path="url(#p44e0e8d058)" style="fill: #ff1493; opacity: 0.85; stroke: #ffffff; stroke-width: 1.5; stroke-linejoin: miter"/>
   </g>
   <g id="patch_16">
    <path d="M 182.23 650.895196 
L 656.481881 650.895196 
L 656.481881 668.882852 
L 182.23 668.882852 
z
" clip-path="url(#p44e0e8d058)" style="fill: #ff1493; opacity: 0.85; stroke: #ffffff; stroke-width: 1.5; stroke-linejoin: miter"/>
   </g>
   <g id="patch_17">
    <path d="M 182.23 695.864337 
L 652.019833 695.864337 
L 652.019833 713.851993 
L 182.23 713.851993 
z
" clip-path="url(#p44e0e8d058)" style="fill: #ff1493; opacity: 0.85; stroke: #ffffff; stroke-width: 1.5; stroke-linejoin: miter"/>
   </g>
   <g id="patch_18">
    <path d="M 182.23 740.833478 
L 648.832657 740.833478 
L 648.832657 758.821134 
L 182.23 758.821134 
z
" clip-path="url(#p44e0e8d058)" style="fill: #ff1493; opacity: 0.85; stroke: #ffffff; stroke-width: 1.5; stroke-linejoin: miter"/>
   </g>
   <g id="patch_19">
    <path d="M 182.23 785.802619 
L 639.535908 785.802619 
L 639.535908 803.790275 
L 182.23 803.790275 
z
" clip-path="url(#p44e0e8d058)" style="fill: #ff1493; opacity: 0.85; stroke: #ffffff; stroke-width: 1.5; stroke-linejoin: miter"/>
   </g>
   <g id="patch_20">
    <path d="M 182.23 830.77176 
L 638.819127 830.77176 
L 638.819127 848.759416 
L 182.23 848.759416 
z
" clip-path="url(#p44e0e8d058)" style="fill: #ff1493; opacity: 0.85; stroke: #ffffff; stroke-width: 1.5; stroke-linejoin: miter"/>
   </g>
   <g id="patch_21">
    <path d="M 182.23 875.740901 
L 637.783778 875.740901 
L 637.783778 893.728557 
L 182.23 893.728557 
z
" clip-path="url(#p44e0e8d058)" style="fill: #ff1493; opacity: 0.85; stroke: #ffffff; stroke-width: 1.5; stroke-linejoin: miter"/>
   </g>
   <g id="patch_22">
    <path d="M 182.23 920.710042 
L 632.874793 920.710042 
L 632.874793 938.697698 
L 182.23 938.697698 
z
" clip-path="url(#p44e0e8d058)" style="fill: #ff1493; opacity: 0.85; stroke: #ffffff; stroke-width: 1.5; stroke-linejoin: miter"/>
   </g>
   <g id="patch_23">
    <path d="M 182.23 965.679183 
L 675.016538 965.679183 
L 675.016538 983.666839 
L 182.23 983.666839 
z
" clip-path="url(#p44e0e8d058)" style="fill: #ff1493; opacity: 0.85; stroke: #ffffff; stroke-width: 1.5; stroke-linejoin: miter"/>
   </g>
   <g id="patch_24">
    <path d="M 182.23 1010.648324 
L 648.137273 1010.648324 
L 648.137273 1028.63598 
L 182.23 1028.63598 
z
" clip-path="url(#p44e0e8d058)" style="fill: #ff1493; opacity: 0.85; stroke: #ffffff; stroke-width: 1.5; stroke-linejoin: miter"/>
   </g>
   <g id="patch_25">
    <path d="M 182.23 84.28402 
L 394.298138 84.28402 
L 394.298138 102.271676 
L 182.23 102.271676 
z
" clip-path="url(#p44e0e8d058)" style="opacity: 0.85; stroke: #ffffff; stroke-width: 1.5; stroke-linejoin: miter"/>
   </g>
   <g id="patch_26">
    <path d="M 182.23 129.253161 
L 277.4082 129.253161 
L 277.4082 147.240817 
L 182.23 147.240817 
z
" clip-path="url(#p44e0e8d058)" style="opacity: 0.85; stroke: #ffffff; stroke-width: 1.5; stroke-linejoin: miter"/>
   </g>
   <g id="patch_27">
    <path d="M 182.23 174.222302 
L 366.72928 174.222302 
L 366.72928 192.209958 
L 182.23 192.209958 
z
" clip-path="url(#p44e0e8d058)" style="opacity: 0.85; stroke: #ffffff; stroke-width: 1.5; stroke-linejoin: miter"/>
   </g>
   <g id="patch_28">
    <path d="M 182.23 219.191443 
L 283.285944 219.191443 
L 283.285944 237.179099 
L 182.23 237.179099 
z
" clip-path="url(#p44e0e8d058)" style="opacity: 0.85; stroke: #ffffff; stroke-width: 1.5; stroke-linejoin: miter"/>
   </g>
   <g id="patch_29">
    <path d="M 182.23 264.160584 
L 275.411455 264.160584 
L 275.411455 282.14824 
L 182.23 282.14824 
z
" clip-path="url(#p44e0e8d058)" style="opacity: 0.85; stroke: #ffffff; stroke-width: 1.5; stroke-linejoin: miter"/>
   </g>
   <g id="patch_30">
    <path d="M 182.23 309.129725 
L 368.592909 309.129725 
L 368.592909 327.117381 
L 182.23 327.117381 
z
" clip-path="url(#p44e0e8d058)" style="opacity: 0.85; stroke: #ffffff; stroke-width: 1.5; stroke-linejoin: miter"/>
   </g>
   <g id="patch_31">
    <path d="M 182.23 354.098866 
L 342.385625 354.098866 
L 342.385625 372.086522 
L 182.23 372.086522 
z
" clip-path="url(#p44e0e8d058)" style="opacity: 0.85; stroke: #ffffff; stroke-width: 1.5; stroke-linejoin: miter"/>
   </g>
   <g id="patch_32">
    <path d="M 182.23 399.068007 
L 286.215101 399.068007 
L 286.215101 417.055663 
L 182.23 417.055663 
z
" clip-path="url(#p44e0e8d058)" style="opacity: 0.85; stroke: #ffffff; stroke-width: 1.5; stroke-linejoin: miter"/>
   </g>
   <g id="patch_33">
    <path d="M 182.23 444.037148 
L 247.309111 444.037148 
L 247.309111 462.024804 
L 182.23 462.024804 
z
" clip-path="url(#p44e0e8d058)" style="opacity: 0.85; stroke: #ffffff; stroke-width: 1.5; stroke-linejoin: miter"/>
   </g>
   <g id="patch_34">
    <path d="M 182.23 489.006289 
L 353.062667 489.006289 
L 353.062667 506.993945 
L 182.23 506.993945 
z
" clip-path="url(#p44e0e8d058)" style="opacity: 0.85; stroke: #ffffff; stroke-width: 1.5; stroke-linejoin: miter"/>
   </g>
   <g id="patch_35">
    <path d="M 182.23 533.97543 
L 273.7475 533.97543 
L 273.7475 551.963086 
L 182.23 551.963086 
z
" clip-path="url(#p44e0e8d058)" style="opacity: 0.85; stroke: #ffffff; stroke-width: 1.5; stroke-linejoin: miter"/>
   </g>
   <g id="patch_36">
    <path d="M 182.23 578.94457 
L 259.1047 578.94457 
L 259.1047 596.932227 
L 182.23 596.932227 
z
" clip-path="url(#p44e0e8d058)" style="opacity: 0.85; stroke: #ffffff; stroke-width: 1.5; stroke-linejoin: miter"/>
   </g>
   <g id="patch_37">
    <path d="M 182.23 623.913711 
L 272.14193 623.913711 
L 272.14193 641.901368 
L 182.23 641.901368 
z
" clip-path="url(#p44e0e8d058)" style="opacity: 0.85; stroke: #ffffff; stroke-width: 1.5; stroke-linejoin: miter"/>
   </g>
   <g id="patch_38">
    <path d="M 182.23 668.882852 
L 218.321408 668.882852 
L 218.321408 686.870509 
L 182.23 686.870509 
z
" clip-path="url(#p44e0e8d058)" style="opacity: 0.85; stroke: #ffffff; stroke-width: 1.5; stroke-linejoin: miter"/>
   </g>
   <g id="patch_39">
    <path d="M 182.23 713.851993 
L 348.79185 713.851993 
L 348.79185 731.83965 
L 182.23 731.83965 
z
" clip-path="url(#p44e0e8d058)" style="opacity: 0.85; stroke: #ffffff; stroke-width: 1.5; stroke-linejoin: miter"/>
   </g>
   <g id="patch_40">
    <path d="M 182.23 758.821134 
L 296.118444 758.821134 
L 296.118444 776.808791 
L 182.23 776.808791 
z
" clip-path="url(#p44e0e8d058)" style="opacity: 0.85; stroke: #ffffff; stroke-width: 1.5; stroke-linejoin: miter"/>
   </g>
   <g id="patch_41">
    <path d="M 182.23 803.790275 
L 271.360087 803.790275 
L 271.360087 821.777932 
L 182.23 821.777932 
z
" clip-path="url(#p44e0e8d058)" style="opacity: 0.85; stroke: #ffffff; stroke-width: 1.5; stroke-linejoin: miter"/>
   </g>
   <g id="patch_42">
    <path d="M 182.23 848.759416 
L 301.20275 848.759416 
L 301.20275 866.747073 
L 182.23 866.747073 
z
" clip-path="url(#p44e0e8d058)" style="opacity: 0.85; stroke: #ffffff; stroke-width: 1.5; stroke-linejoin: miter"/>
   </g>
   <g id="patch_43">
    <path d="M 182.23 893.728557 
L 299.548819 893.728557 
L 299.548819 911.716214 
L 182.23 911.716214 
z
" clip-path="url(#p44e0e8d058)" style="opacity: 0.85; stroke: #ffffff; stroke-width: 1.5; stroke-linejoin: miter"/>
   </g>
   <g id="patch_44">
    <path d="M 182.23 938.697698 
L 327.437767 938.697698 
L 327.437767 956.685354 
L 182.23 956.685354 
z
" clip-path="url(#p44e0e8d058)" style="opacity: 0.85; stroke: #ffffff; stroke-width: 1.5; stroke-linejoin: miter"/>
   </g>
   <g id="patch_45">
    <path d="M 182.23 983.666839 
L 302.66703 983.666839 
L 302.66703 1001.654495 
L 182.23 1001.654495 
z
" clip-path="url(#p44e0e8d058)" style="opacity: 0.85; stroke: #ffffff; stroke-width: 1.5; stroke-linejoin: miter"/>
   </g>
   <g id="patch_46">
    <path d="M 182.23 1028.63598 
L 310.3545 1028.63598 
L 310.3545 1046.623636 
L 182.23 1046.623636 
z
" clip-path="url(#p44e0e8d058)" style="opacity: 0.85; stroke: #ffffff; stroke-width: 1.5; stroke-linejoin: miter"/>
   </g>
   <g id="matplotlib.axis_1">
    <g id="xtick_1">
     <g id="line2d_1">
      <path d="M 182.23 1095.64 
L 182.23 17.28 
" clip-path="url(#p44e0e8d058)" style="fill: none; stroke-dasharray: 3.7,1.6; stroke-dashoffset: 0; stroke: #adb5bd; stroke-opacity: 0.3"/>
     </g>
     <g id="line2d_2">
      <defs>
       <path id="m63c4fe1d01" d="M 0 0 
L 0 3.5 
" style="stroke: #000000; stroke-width: 0.8"/>
      </defs>
      <g>
       <use xlink:href="#m63c4fe1d01" x="182.23" y="1095.64" style="stroke: #000000; stroke-width: 0.8"/>
      </g>
     </g>
     <g id="text_1">
      <!-- 0.0 -->
      <g transform="translate(169.830156 1113.277812) scale(0.14 -0.14)">
       <defs>
        <path id="DejaVuSans-Bold-30" d="M 2944 2338 
Q 2944 3213 2780 3570 
Q 2616 3928 2228 3928 
Q 1841 3928 1675 3570 
Q 1509 3213 1509 2338 
Q 1509 1453 1675 1090 
Q 1841 728 2228 728 
Q 2613 728 2778 1090 
Q 2944 1453 2944 2338 
z
M 4147 2328 
Q 4147 1169 3647 539 
Q 3147 -91 2228 -91 
Q 1306 -91 806 539 
Q 306 1169 306 2328 
Q 306 3491 806 4120 
Q 1306 4750 2228 4750 
Q 3147 4750 3647 4120 
Q 4147 3491 4147 2328 
z
" transform="scale(0.015625)"/>
        <path id="DejaVuSans-Bold-2e" d="M 653 1209 
L 1778 1209 
L 1778 0 
L 653 0 
L 653 1209 
z
" transform="scale(0.015625)"/>
       </defs>
       <use xlink:href="#DejaVuSans-Bold-30"/>
       <use xlink:href="#DejaVuSans-Bold-2e" x="69.580078"/>
       <use xlink:href="#DejaVuSans-Bold-30" x="107.568359"/>
      </g>
     </g>
    </g>
    <g id="xtick_2">
     <g id="line2d_3">
      <path d="M 284.7296 1095.64 
L 284.7296 17.28 
" clip-path="url(#p44e0e8d058)" style="fill: none; stroke-dasharray: 3.7,1.6; stroke-dashoffset: 0; stroke: #adb5bd; stroke-opacity: 0.3"/>
     </g>
     <g id="line2d_4">
      <g>
       <use xlink:href="#m63c4fe1d01" x="284.7296" y="1095.64" style="stroke: #000000; stroke-width: 0.8"/>
      </g>
     </g>
     <g id="text_2">
      <!-- 0.2 -->
      <g transform="translate(272.329756 1113.277812) scale(0.14 -0.14)">
       <defs>
        <path id="DejaVuSans-Bold-32" d="M 1844 884 
L 3897 884 
L 3897 0 
L 506 0 
L 506 884 
L 2209 2388 
Q 2438 2594 2547 2791 
Q 2656 2988 2656 3200 
Q 2656 3528 2436 3728 
Q 2216 3928 1850 3928 
Q 1569 3928 1234 3808 
Q 900 3688 519 3450 
L 519 4475 
Q 925 4609 1322 4679 
Q 1719 4750 2100 4750 
Q 2938 4750 3402 4381 
Q 3866 4013 3866 3353 
Q 3866 2972 3669 2642 
Q 3472 2313 2841 1759 
L 1844 884 
z
" transform="scale(0.015625)"/>
       </defs>
       <use xlink:href="#DejaVuSans-Bold-30"/>
       <use xlink:href="#DejaVuSans-Bold-2e" x="69.580078"/>
       <use xlink:href="#DejaVuSans-Bold-32" x="107.568359"/>
      </g>
     </g>
    </g>
    <g id="xtick_3">
     <g id="line2d_5">
      <path d="M 387.2292 1095.64 
L 387.2292 17.28 
" clip-path="url(#p44e0e8d058)" style="fill: none; stroke-dasharray: 3.7,1.6; stroke-dashoffset: 0; stroke: #adb5bd; stroke-opacity: 0.3"/>
     </g>
     <g id="line2d_6">
      <g>
       <use xlink:href="#m63c4fe1d01" x="387.2292" y="1095.64" style="stroke: #000000; stroke-width: 0.8"/>
      </g>
     </g>
     <g id="text_3">
      <!-- 0.4 -->
      <g transform="translate(374.829356 1113.277812) scale(0.14 -0.14)">
       <defs>
        <path id="DejaVuSans-Bold-34" d="M 2356 3675 
L 1038 1722 
L 2356 1722 
L 2356 3675 
z
M 2156 4666 
L 3494 4666 
L 3494 1722 
L 4159 1722 
L 4159 850 
L 3494 850 
L 3494 0 
L 2356 0 
L 2356 850 
L 288 850 
L 288 1881 
L 2156 4666 
z
" transform="scale(0.015625)"/>
       </defs>
       <use xlink:href="#DejaVuSans-Bold-30"/>
       <use xlink:href="#DejaVuSans-Bold-2e" x="69.580078"/>
       <use xlink:href="#DejaVuSans-Bold-34" x="107.568359"/>
      </g>
     </g>
    </g>
    <g id="xtick_4">
     <g id="line2d_7">
      <path d="M 489.7288 1095.64 
L 489.7288 17.28 
" clip-path="url(#p44e0e8d058)" style="fill: none; stroke-dasharray: 3.7,1.6; stroke-dashoffset: 0; stroke: #adb5bd; stroke-opacity: 0.3"/>
     </g>
     <g id="line2d_8">
      <g>
       <use xlink:href="#m63c4fe1d01" x="489.7288" y="1095.64" style="stroke: #000000; stroke-width: 0.8"/>
      </g>
     </g>
     <g id="text_4">
      <!-- 0.6 -->
      <g transform="translate(477.328956 1113.277812) scale(0.14 -0.14)">
       <defs>
        <path id="DejaVuSans-Bold-36" d="M 2316 2303 
Q 2000 2303 1842 2098 
Q 1684 1894 1684 1484 
Q 1684 1075 1842 870 
Q 2000 666 2316 666 
Q 2634 666 2792 870 
Q 2950 1075 2950 1484 
Q 2950 1894 2792 2098 
Q 2634 2303 2316 2303 
z
M 3803 4544 
L 3803 3681 
Q 3506 3822 3243 3889 
Q 2981 3956 2731 3956 
Q 2194 3956 1894 3657 
Q 1594 3359 1544 2772 
Q 1750 2925 1990 3001 
Q 2231 3078 2516 3078 
Q 3231 3078 3670 2659 
Q 4109 2241 4109 1563 
Q 4109 813 3618 361 
Q 3128 -91 2303 -91 
Q 1394 -91 895 523 
Q 397 1138 397 2266 
Q 397 3422 980 4083 
Q 1563 4744 2578 4744 
Q 2900 4744 3203 4694 
Q 3506 4644 3803 4544 
z
" transform="scale(0.015625)"/>
       </defs>
       <use xlink:href="#DejaVuSans-Bold-30"/>
       <use xlink:href="#DejaVuSans-Bold-2e" x="69.580078"/>
       <use xlink:href="#DejaVuSans-Bold-36" x="107.568359"/>
      </g>
     </g>
    </g>
    <g id="xtick_5">
     <g id="line2d_9">
      <path d="M 592.2284 1095.64 
L 592.2284 17.28 
" clip-path="url(#p44e0e8d058)" style="fill: none; stroke-dasharray: 3.7,1.6; stroke-dashoffset: 0; stroke: #adb5bd; stroke-opacity: 0.3"/>
     </g>
     <g id="line2d_10">
      <g>
       <use xlink:href="#m63c4fe1d01" x="592.2284" y="1095.64" style="stroke: #000000; stroke-width: 0.8"/>
      </g>
     </g>
     <g id="text_5">
      <!-- 0.8 -->
      <g transform="translate(579.828556 1113.277812) scale(0.14 -0.14)">
       <defs>
        <path id="DejaVuSans-Bold-38" d="M 2228 2088 
Q 1891 2088 1709 1903 
Q 1528 1719 1528 1375 
Q 1528 1031 1709 848 
Q 1891 666 2228 666 
Q 2563 666 2741 848 
Q 2919 1031 2919 1375 
Q 2919 1722 2741 1905 
Q 2563 2088 2228 2088 
z
M 1350 2484 
Q 925 2613 709 2878 
Q 494 3144 494 3541 
Q 494 4131 934 4440 
Q 1375 4750 2228 4750 
Q 3075 4750 3515 4442 
Q 3956 4134 3956 3541 
Q 3956 3144 3739 2878 
Q 3522 2613 3097 2484 
Q 3572 2353 3814 2058 
Q 4056 1763 4056 1313 
Q 4056 619 3595 264 
Q 3134 -91 2228 -91 
Q 1319 -91 855 264 
Q 391 619 391 1313 
Q 391 1763 633 2058 
Q 875 2353 1350 2484 
z
M 1631 3419 
Q 1631 3141 1786 2991 
Q 1941 2841 2228 2841 
Q 2509 2841 2662 2991 
Q 2816 3141 2816 3419 
Q 2816 3697 2662 3845 
Q 2509 3994 2228 3994 
Q 1941 3994 1786 3844 
Q 1631 3694 1631 3419 
z
" transform="scale(0.015625)"/>
       </defs>
       <use xlink:href="#DejaVuSans-Bold-30"/>
       <use xlink:href="#DejaVuSans-Bold-2e" x="69.580078"/>
       <use xlink:href="#DejaVuSans-Bold-38" x="107.568359"/>
      </g>
     </g>
    </g>
    <g id="xtick_6">
     <g id="line2d_11">
      <path d="M 694.728 1095.64 
L 694.728 17.28 
" clip-path="url(#p44e0e8d058)" style="fill: none; stroke-dasharray: 3.7,1.6; stroke-dashoffset: 0; stroke: #adb5bd; stroke-opacity: 0.3"/>
     </g>
     <g id="line2d_12">
      <g>
       <use xlink:href="#m63c4fe1d01" x="694.728" y="1095.64" style="stroke: #000000; stroke-width: 0.8"/>
      </g>
     </g>
     <g id="text_6">
      <!-- 1.0 -->
      <g transform="translate(682.328156 1113.277812) scale(0.14 -0.14)">
       <defs>
        <path id="DejaVuSans-Bold-31" d="M 750 831 
L 1813 831 
L 1813 3847 
L 722 3622 
L 722 4441 
L 1806 4666 
L 2950 4666 
L 2950 831 
L 4013 831 
L 4013 0 
L 750 0 
L 750 831 
z
" transform="scale(0.015625)"/>
       </defs>
       <use xlink:href="#DejaVuSans-Bold-31"/>
       <use xlink:href="#DejaVuSans-Bold-2e" x="69.580078"/>
       <use xlink:href="#DejaVuSans-Bold-30" x="107.568359"/>
      </g>
     </g>
    </g>
    <g id="text_7">
     <!-- Wild-type Coverage Rate -->
     <g transform="translate(333.075875 1131.587031) scale(0.15 -0.15)">
      <defs>
       <path id="DejaVuSans-Bold-57" d="M 191 4666 
L 1344 4666 
L 2150 1275 
L 2950 4666 
L 4109 4666 
L 4909 1275 
L 5716 4666 
L 6859 4666 
L 5759 0 
L 4372 0 
L 3525 3547 
L 2688 0 
L 1300 0 
L 191 4666 
z
" transform="scale(0.015625)"/>
       <path id="DejaVuSans-Bold-69" d="M 538 3500 
L 1656 3500 
L 1656 0 
L 538 0 
L 538 3500 
z
M 538 4863 
L 1656 4863 
L 1656 3950 
L 538 3950 
L 538 4863 
z
" transform="scale(0.015625)"/>
       <path id="DejaVuSans-Bold-6c" d="M 538 4863 
L 1656 4863 
L 1656 0 
L 538 0 
L 538 4863 
z
" transform="scale(0.015625)"/>
       <path id="DejaVuSans-Bold-64" d="M 2919 2988 
L 2919 4863 
L 4044 4863 
L 4044 0 
L 2919 0 
L 2919 506 
Q 2688 197 2409 53 
Q 2131 -91 1766 -91 
Q 1119 -91 703 423 
Q 288 938 288 1747 
Q 288 2556 703 3070 
Q 1119 3584 1766 3584 
Q 2128 3584 2408 3439 
Q 2688 3294 2919 2988 
z
M 2181 722 
Q 2541 722 2730 984 
Q 2919 1247 2919 1747 
Q 2919 2247 2730 2509 
Q 2541 2772 2181 2772 
Q 1825 2772 1636 2509 
Q 1447 2247 1447 1747 
Q 1447 1247 1636 984 
Q 1825 722 2181 722 
z
" transform="scale(0.015625)"/>
       <path id="DejaVuSans-Bold-2d" d="M 347 2297 
L 2309 2297 
L 2309 1388 
L 347 1388 
L 347 2297 
z
" transform="scale(0.015625)"/>
       <path id="DejaVuSans-Bold-74" d="M 1759 4494 
L 1759 3500 
L 2913 3500 
L 2913 2700 
L 1759 2700 
L 1759 1216 
Q 1759 972 1856 886 
Q 1953 800 2241 800 
L 2816 800 
L 2816 0 
L 1856 0 
Q 1194 0 917 276 
Q 641 553 641 1216 
L 641 2700 
L 84 2700 
L 84 3500 
L 641 3500 
L 641 4494 
L 1759 4494 
z
" transform="scale(0.015625)"/>
       <path id="DejaVuSans-Bold-79" d="M 78 3500 
L 1197 3500 
L 2138 1125 
L 2938 3500 
L 4056 3500 
L 2584 -331 
Q 2363 -916 2067 -1148 
Q 1772 -1381 1288 -1381 
L 641 -1381 
L 641 -647 
L 991 -647 
Q 1275 -647 1404 -556 
Q 1534 -466 1606 -231 
L 1638 -134 
L 78 3500 
z
" transform="scale(0.015625)"/>
       <path id="DejaVuSans-Bold-70" d="M 1656 506 
L 1656 -1331 
L 538 -1331 
L 538 3500 
L 1656 3500 
L 1656 2988 
Q 1888 3294 2169 3439 
Q 2450 3584 2816 3584 
Q 3463 3584 3878 3070 
Q 4294 2556 4294 1747 
Q 4294 938 3878 423 
Q 3463 -91 2816 -91 
Q 2450 -91 2169 54 
Q 1888 200 1656 506 
z
M 2400 2772 
Q 2041 2772 1848 2508 
Q 1656 2244 1656 1747 
Q 1656 1250 1848 986 
Q 2041 722 2400 722 
Q 2759 722 2948 984 
Q 3138 1247 3138 1747 
Q 3138 2247 2948 2509 
Q 2759 2772 2400 2772 
z
" transform="scale(0.015625)"/>
       <path id="DejaVuSans-Bold-65" d="M 4031 1759 
L 4031 1441 
L 1416 1441 
Q 1456 1047 1700 850 
Q 1944 653 2381 653 
Q 2734 653 3104 758 
Q 3475 863 3866 1075 
L 3866 213 
Q 3469 63 3072 -14 
Q 2675 -91 2278 -91 
Q 1328 -91 801 392 
Q 275 875 275 1747 
Q 275 2603 792 3093 
Q 1309 3584 2216 3584 
Q 3041 3584 3536 3087 
Q 4031 2591 4031 1759 
z
M 2881 2131 
Q 2881 2450 2695 2645 
Q 2509 2841 2209 2841 
Q 1884 2841 1681 2658 
Q 1478 2475 1428 2131 
L 2881 2131 
z
" transform="scale(0.015625)"/>
       <path id="DejaVuSans-Bold-20" transform="scale(0.015625)"/>
       <path id="DejaVuSans-Bold-43" d="M 4288 256 
Q 3956 84 3597 -3 
Q 3238 -91 2847 -91 
Q 1681 -91 1000 561 
Q 319 1213 319 2328 
Q 319 3447 1000 4098 
Q 1681 4750 2847 4750 
Q 3238 4750 3597 4662 
Q 3956 4575 4288 4403 
L 4288 3438 
Q 3953 3666 3628 3772 
Q 3303 3878 2944 3878 
Q 2300 3878 1931 3465 
Q 1563 3053 1563 2328 
Q 1563 1606 1931 1193 
Q 2300 781 2944 781 
Q 3303 781 3628 887 
Q 3953 994 4288 1222 
L 4288 256 
z
" transform="scale(0.015625)"/>
       <path id="DejaVuSans-Bold-6f" d="M 2203 2784 
Q 1831 2784 1636 2517 
Q 1441 2250 1441 1747 
Q 1441 1244 1636 976 
Q 1831 709 2203 709 
Q 2569 709 2762 976 
Q 2956 1244 2956 1747 
Q 2956 2250 2762 2517 
Q 2569 2784 2203 2784 
z
M 2203 3584 
Q 3106 3584 3614 3096 
Q 4122 2609 4122 1747 
Q 4122 884 3614 396 
Q 3106 -91 2203 -91 
Q 1297 -91 786 396 
Q 275 884 275 1747 
Q 275 2609 786 3096 
Q 1297 3584 2203 3584 
z
" transform="scale(0.015625)"/>
       <path id="DejaVuSans-Bold-76" d="M 97 3500 
L 1216 3500 
L 2088 1081 
L 2956 3500 
L 4078 3500 
L 2700 0 
L 1472 0 
L 97 3500 
z
" transform="scale(0.015625)"/>
       <path id="DejaVuSans-Bold-72" d="M 3138 2547 
Q 2991 2616 2845 2648 
Q 2700 2681 2553 2681 
Q 2122 2681 1889 2404 
Q 1656 2128 1656 1613 
L 1656 0 
L 538 0 
L 538 3500 
L 1656 3500 
L 1656 2925 
Q 1872 3269 2151 3426 
Q 2431 3584 2822 3584 
Q 2878 3584 2943 3579 
Q 3009 3575 3134 3559 
L 3138 2547 
z
" transform="scale(0.015625)"/>
       <path id="DejaVuSans-Bold-61" d="M 2106 1575 
Q 1756 1575 1579 1456 
Q 1403 1338 1403 1106 
Q 1403 894 1545 773 
Q 1688 653 1941 653 
Q 2256 653 2472 879 
Q 2688 1106 2688 1447 
L 2688 1575 
L 2106 1575 
z
M 3816 1997 
L 3816 0 
L 2688 0 
L 2688 519 
Q 2463 200 2181 54 
Q 1900 -91 1497 -91 
Q 953 -91 614 226 
Q 275 544 275 1050 
Q 275 1666 698 1953 
Q 1122 2241 2028 2241 
L 2688 2241 
L 2688 2328 
Q 2688 2594 2478 2717 
Q 2269 2841 1825 2841 
Q 1466 2841 1156 2769 
Q 847 2697 581 2553 
L 581 3406 
Q 941 3494 1303 3539 
Q 1666 3584 2028 3584 
Q 2975 3584 3395 3211 
Q 3816 2838 3816 1997 
z
" transform="scale(0.015625)"/>
       <path id="DejaVuSans-Bold-67" d="M 2919 594 
Q 2688 288 2409 144 
Q 2131 0 1766 0 
Q 1125 0 706 504 
Q 288 1009 288 1791 
Q 288 2575 706 3076 
Q 1125 3578 1766 3578 
Q 2131 3578 2409 3434 
Q 2688 3291 2919 2981 
L 2919 3500 
L 4044 3500 
L 4044 353 
Q 4044 -491 3511 -936 
Q 2978 -1381 1966 -1381 
Q 1638 -1381 1331 -1331 
Q 1025 -1281 716 -1178 
L 716 -306 
Q 1009 -475 1290 -558 
Q 1572 -641 1856 -641 
Q 2406 -641 2662 -400 
Q 2919 -159 2919 353 
L 2919 594 
z
M 2181 2772 
Q 1834 2772 1640 2515 
Q 1447 2259 1447 1791 
Q 1447 1309 1634 1061 
Q 1822 813 2181 813 
Q 2531 813 2725 1069 
Q 2919 1325 2919 1791 
Q 2919 2259 2725 2515 
Q 2531 2772 2181 2772 
z
" transform="scale(0.015625)"/>
       <path id="DejaVuSans-Bold-52" d="M 2297 2597 
Q 2675 2597 2839 2737 
Q 3003 2878 3003 3200 
Q 3003 3519 2839 3656 
Q 2675 3794 2297 3794 
L 1791 3794 
L 1791 2597 
L 2297 2597 
z
M 1791 1766 
L 1791 0 
L 588 0 
L 588 4666 
L 2425 4666 
Q 3347 4666 3776 4356 
Q 4206 4047 4206 3378 
Q 4206 2916 3982 2619 
Q 3759 2322 3309 2181 
Q 3556 2125 3751 1926 
Q 3947 1728 4147 1325 
L 4800 0 
L 3519 0 
L 2950 1159 
Q 2778 1509 2601 1637 
Q 2425 1766 2131 1766 
L 1791 1766 
z
" transform="scale(0.015625)"/>
      </defs>
      <use xlink:href="#DejaVuSans-Bold-57"/>
      <use xlink:href="#DejaVuSans-Bold-69" x="110.302734"/>
      <use xlink:href="#DejaVuSans-Bold-6c" x="144.580078"/>
      <use xlink:href="#DejaVuSans-Bold-64" x="178.857422"/>
      <use xlink:href="#DejaVuSans-Bold-2d" x="250.439453"/>
      <use xlink:href="#DejaVuSans-Bold-74" x="291.943359"/>
      <use xlink:href="#DejaVuSans-Bold-79" x="339.746094"/>
      <use xlink:href="#DejaVuSans-Bold-70" x="404.931641"/>
      <use xlink:href="#DejaVuSans-Bold-65" x="476.513672"/>
      <use xlink:href="#DejaVuSans-Bold-20" x="544.335938"/>
      <use xlink:href="#DejaVuSans-Bold-43" x="579.150391"/>
      <use xlink:href="#DejaVuSans-Bold-6f" x="652.539062"/>
      <use xlink:href="#DejaVuSans-Bold-76" x="721.240234"/>
      <use xlink:href="#DejaVuSans-Bold-65" x="786.425781"/>
      <use xlink:href="#DejaVuSans-Bold-72" x="854.248047"/>
      <use xlink:href="#DejaVuSans-Bold-61" x="903.564453"/>
      <use xlink:href="#DejaVuSans-Bold-67" x="971.044922"/>
      <use xlink:href="#DejaVuSans-Bold-65" x="1042.626953"/>
      <use xlink:href="#DejaVuSans-Bold-20" x="1110.449219"/>
      <use xlink:href="#DejaVuSans-Bold-52" x="1145.263672"/>
      <use xlink:href="#DejaVuSans-Bold-61" x="1222.265625"/>
      <use xlink:href="#DejaVuSans-Bold-74" x="1289.746094"/>
      <use xlink:href="#DejaVuSans-Bold-65" x="1337.548828"/>
     </g>
    </g>
   </g>
   <g id="matplotlib.axis_2">
    <g id="ytick_1">
     <g id="line2d_13">
      <defs>
       <path id="m978b6cb42d" d="M 0 0 
L -3.5 0 
" style="stroke: #000000; stroke-width: 0.8"/>
      </defs>
      <g>
       <use xlink:href="#m978b6cb42d" x="182.23" y="84.28402" style="stroke: #000000; stroke-width: 0.8"/>
      </g>
     </g>
     <g id="text_8">
      <!-- A0A247D711_LISMN -->
      <g transform="translate(16.892187 89.479333) scale(0.14 -0.14)">
       <defs>
        <path id="DejaVuSans-Bold-41" d="M 3419 850 
L 1538 850 
L 1241 0 
L 31 0 
L 1759 4666 
L 3194 4666 
L 4922 0 
L 3713 0 
L 3419 850 
z
M 1838 1716 
L 3116 1716 
L 2478 3572 
L 1838 1716 
z
" transform="scale(0.015625)"/>
        <path id="DejaVuSans-Bold-37" d="M 428 4666 
L 3944 4666 
L 3944 3988 
L 2125 0 
L 953 0 
L 2675 3781 
L 428 3781 
L 428 4666 
z
" transform="scale(0.015625)"/>
        <path id="DejaVuSans-Bold-44" d="M 1791 3756 
L 1791 909 
L 2222 909 
Q 2959 909 3348 1275 
Q 3738 1641 3738 2338 
Q 3738 3031 3350 3393 
Q 2963 3756 2222 3756 
L 1791 3756 
z
M 588 4666 
L 1856 4666 
Q 2919 4666 3439 4514 
Q 3959 4363 4331 4000 
Q 4659 3684 4818 3271 
Q 4978 2859 4978 2338 
Q 4978 1809 4818 1395 
Q 4659 981 4331 666 
Q 3956 303 3431 151 
Q 2906 0 1856 0 
L 588 0 
L 588 4666 
z
" transform="scale(0.015625)"/>
        <path id="DejaVuSans-Bold-5f" d="M 3200 -916 
L 3200 -1509 
L 0 -1509 
L 0 -916 
L 3200 -916 
z
" transform="scale(0.015625)"/>
        <path id="DejaVuSans-Bold-4c" d="M 588 4666 
L 1791 4666 
L 1791 909 
L 3903 909 
L 3903 0 
L 588 0 
L 588 4666 
z
" transform="scale(0.015625)"/>
        <path id="DejaVuSans-Bold-49" d="M 588 4666 
L 1791 4666 
L 1791 0 
L 588 0 
L 588 4666 
z
" transform="scale(0.015625)"/>
        <path id="DejaVuSans-Bold-53" d="M 3834 4519 
L 3834 3531 
Q 3450 3703 3084 3790 
Q 2719 3878 2394 3878 
Q 1963 3878 1756 3759 
Q 1550 3641 1550 3391 
Q 1550 3203 1689 3098 
Q 1828 2994 2194 2919 
L 2706 2816 
Q 3484 2659 3812 2340 
Q 4141 2022 4141 1434 
Q 4141 663 3683 286 
Q 3225 -91 2284 -91 
Q 1841 -91 1394 -6 
Q 947 78 500 244 
L 500 1259 
Q 947 1022 1364 901 
Q 1781 781 2169 781 
Q 2563 781 2772 912 
Q 2981 1044 2981 1288 
Q 2981 1506 2839 1625 
Q 2697 1744 2272 1838 
L 1806 1941 
Q 1106 2091 782 2419 
Q 459 2747 459 3303 
Q 459 4000 909 4375 
Q 1359 4750 2203 4750 
Q 2588 4750 2994 4692 
Q 3400 4634 3834 4519 
z
" transform="scale(0.015625)"/>
        <path id="DejaVuSans-Bold-4d" d="M 588 4666 
L 2119 4666 
L 3181 2169 
L 4250 4666 
L 5778 4666 
L 5778 0 
L 4641 0 
L 4641 3413 
L 3566 897 
L 2803 897 
L 1728 3413 
L 1728 0 
L 588 0 
L 588 4666 
z
" transform="scale(0.015625)"/>
        <path id="DejaVuSans-Bold-4e" d="M 588 4666 
L 1931 4666 
L 3628 1466 
L 3628 4666 
L 4769 4666 
L 4769 0 
L 3425 0 
L 1728 3200 
L 1728 0 
L 588 0 
L 588 4666 
z
" transform="scale(0.015625)"/>
       </defs>
       <use xlink:href="#DejaVuSans-Bold-41"/>
       <use xlink:href="#DejaVuSans-Bold-30" x="77.392578"/>
       <use xlink:href="#DejaVuSans-Bold-41" x="146.972656"/>
       <use xlink:href="#DejaVuSans-Bold-32" x="224.365234"/>
       <use xlink:href="#DejaVuSans-Bold-34" x="293.945312"/>
       <use xlink:href="#DejaVuSans-Bold-37" x="363.525391"/>
       <use xlink:href="#DejaVuSans-Bold-44" x="433.105469"/>
       <use xlink:href="#DejaVuSans-Bold-37" x="516.113281"/>
       <use xlink:href="#DejaVuSans-Bold-31" x="585.693359"/>
       <use xlink:href="#DejaVuSans-Bold-31" x="655.273438"/>
       <use xlink:href="#DejaVuSans-Bold-5f" x="724.853516"/>
       <use xlink:href="#DejaVuSans-Bold-4c" x="774.853516"/>
       <use xlink:href="#DejaVuSans-Bold-49" x="838.574219"/>
       <use xlink:href="#DejaVuSans-Bold-53" x="875.78125"/>
       <use xlink:href="#DejaVuSans-Bold-4d" x="947.802734"/>
       <use xlink:href="#DejaVuSans-Bold-4e" x="1047.314453"/>
      </g>
     </g>
    </g>
    <g id="ytick_2">
     <g id="line2d_14">
      <g>
       <use xlink:href="#m978b6cb42d" x="182.23" y="129.253161" style="stroke: #000000; stroke-width: 0.8"/>
      </g>
     </g>
     <g id="text_9">
      <!-- SCIN_STAAR -->
      <g transform="translate(79.95125 134.448473) scale(0.14 -0.14)">
       <defs>
        <path id="DejaVuSans-Bold-54" d="M 31 4666 
L 4331 4666 
L 4331 3756 
L 2784 3756 
L 2784 0 
L 1581 0 
L 1581 3756 
L 31 3756 
L 31 4666 
z
" transform="scale(0.015625)"/>
       </defs>
       <use xlink:href="#DejaVuSans-Bold-53"/>
       <use xlink:href="#DejaVuSans-Bold-43" x="72.021484"/>
       <use xlink:href="#DejaVuSans-Bold-49" x="145.410156"/>
       <use xlink:href="#DejaVuSans-Bold-4e" x="182.617188"/>
       <use xlink:href="#DejaVuSans-Bold-5f" x="266.308594"/>
       <use xlink:href="#DejaVuSans-Bold-53" x="316.308594"/>
       <use xlink:href="#DejaVuSans-Bold-54" x="388.330078"/>
       <use xlink:href="#DejaVuSans-Bold-41" x="448.792969"/>
       <use xlink:href="#DejaVuSans-Bold-41" x="526.185547"/>
       <use xlink:href="#DejaVuSans-Bold-52" x="603.578125"/>
      </g>
     </g>
    </g>
    <g id="ytick_3">
     <g id="line2d_15">
      <g>
       <use xlink:href="#m978b6cb42d" x="182.23" y="174.222302" style="stroke: #000000; stroke-width: 0.8"/>
      </g>
     </g>
     <g id="text_10">
      <!-- CCDB_ECOLI -->
      <g transform="translate(79.518125 179.417614) scale(0.14 -0.14)">
       <defs>
        <path id="DejaVuSans-Bold-42" d="M 2456 2859 
Q 2741 2859 2887 2984 
Q 3034 3109 3034 3353 
Q 3034 3594 2887 3720 
Q 2741 3847 2456 3847 
L 1791 3847 
L 1791 2859 
L 2456 2859 
z
M 2497 819 
Q 2859 819 3042 972 
Q 3225 1125 3225 1434 
Q 3225 1738 3044 1889 
Q 2863 2041 2497 2041 
L 1791 2041 
L 1791 819 
L 2497 819 
z
M 3616 2497 
Q 4003 2384 4215 2081 
Q 4428 1778 4428 1338 
Q 4428 663 3972 331 
Q 3516 0 2584 0 
L 588 0 
L 588 4666 
L 2394 4666 
Q 3366 4666 3802 4372 
Q 4238 4078 4238 3431 
Q 4238 3091 4078 2852 
Q 3919 2613 3616 2497 
z
" transform="scale(0.015625)"/>
        <path id="DejaVuSans-Bold-45" d="M 588 4666 
L 3834 4666 
L 3834 3756 
L 1791 3756 
L 1791 2888 
L 3713 2888 
L 3713 1978 
L 1791 1978 
L 1791 909 
L 3903 909 
L 3903 0 
L 588 0 
L 588 4666 
z
" transform="scale(0.015625)"/>
        <path id="DejaVuSans-Bold-4f" d="M 2719 3878 
Q 2169 3878 1866 3472 
Q 1563 3066 1563 2328 
Q 1563 1594 1866 1187 
Q 2169 781 2719 781 
Q 3272 781 3575 1187 
Q 3878 1594 3878 2328 
Q 3878 3066 3575 3472 
Q 3272 3878 2719 3878 
z
M 2719 4750 
Q 3844 4750 4481 4106 
Q 5119 3463 5119 2328 
Q 5119 1197 4481 553 
Q 3844 -91 2719 -91 
Q 1597 -91 958 553 
Q 319 1197 319 2328 
Q 319 3463 958 4106 
Q 1597 4750 2719 4750 
z
" transform="scale(0.015625)"/>
       </defs>
       <use xlink:href="#DejaVuSans-Bold-43"/>
       <use xlink:href="#DejaVuSans-Bold-43" x="73.388672"/>
       <use xlink:href="#DejaVuSans-Bold-44" x="146.777344"/>
       <use xlink:href="#DejaVuSans-Bold-42" x="229.785156"/>
       <use xlink:href="#DejaVuSans-Bold-5f" x="306.005859"/>
       <use xlink:href="#DejaVuSans-Bold-45" x="356.005859"/>
       <use xlink:href="#DejaVuSans-Bold-43" x="424.316406"/>
       <use xlink:href="#DejaVuSans-Bold-4f" x="497.705078"/>
       <use xlink:href="#DejaVuSans-Bold-4c" x="582.714844"/>
       <use xlink:href="#DejaVuSans-Bold-49" x="646.435547"/>
      </g>
     </g>
    </g>
    <g id="ytick_4">
     <g id="line2d_16">
      <g>
       <use xlink:href="#m978b6cb42d" x="182.23" y="219.191443" style="stroke: #000000; stroke-width: 0.8"/>
      </g>
     </g>
     <g id="text_11">
      <!-- ILF3_HUMAN -->
      <g transform="translate(75.228437 224.386755) scale(0.14 -0.14)">
       <defs>
        <path id="DejaVuSans-Bold-46" d="M 588 4666 
L 3834 4666 
L 3834 3756 
L 1791 3756 
L 1791 2888 
L 3713 2888 
L 3713 1978 
L 1791 1978 
L 1791 0 
L 588 0 
L 588 4666 
z
" transform="scale(0.015625)"/>
        <path id="DejaVuSans-Bold-33" d="M 2981 2516 
Q 3453 2394 3698 2092 
Q 3944 1791 3944 1325 
Q 3944 631 3412 270 
Q 2881 -91 1863 -91 
Q 1503 -91 1142 -33 
Q 781 25 428 141 
L 428 1069 
Q 766 900 1098 814 
Q 1431 728 1753 728 
Q 2231 728 2486 893 
Q 2741 1059 2741 1369 
Q 2741 1688 2480 1852 
Q 2219 2016 1709 2016 
L 1228 2016 
L 1228 2791 
L 1734 2791 
Q 2188 2791 2409 2933 
Q 2631 3075 2631 3366 
Q 2631 3634 2415 3781 
Q 2200 3928 1806 3928 
Q 1516 3928 1219 3862 
Q 922 3797 628 3669 
L 628 4550 
Q 984 4650 1334 4700 
Q 1684 4750 2022 4750 
Q 2931 4750 3382 4451 
Q 3834 4153 3834 3553 
Q 3834 3144 3618 2883 
Q 3403 2622 2981 2516 
z
" transform="scale(0.015625)"/>
        <path id="DejaVuSans-Bold-48" d="M 588 4666 
L 1791 4666 
L 1791 2888 
L 3566 2888 
L 3566 4666 
L 4769 4666 
L 4769 0 
L 3566 0 
L 3566 1978 
L 1791 1978 
L 1791 0 
L 588 0 
L 588 4666 
z
" transform="scale(0.015625)"/>
        <path id="DejaVuSans-Bold-55" d="M 588 4666 
L 1791 4666 
L 1791 1869 
Q 1791 1291 1980 1042 
Q 2169 794 2597 794 
Q 3028 794 3217 1042 
Q 3406 1291 3406 1869 
L 3406 4666 
L 4609 4666 
L 4609 1869 
Q 4609 878 4112 393 
Q 3616 -91 2597 -91 
Q 1581 -91 1084 393 
Q 588 878 588 1869 
L 588 4666 
z
" transform="scale(0.015625)"/>
       </defs>
       <use xlink:href="#DejaVuSans-Bold-49"/>
       <use xlink:href="#DejaVuSans-Bold-4c" x="37.207031"/>
       <use xlink:href="#DejaVuSans-Bold-46" x="100.927734"/>
       <use xlink:href="#DejaVuSans-Bold-33" x="169.238281"/>
       <use xlink:href="#DejaVuSans-Bold-5f" x="238.818359"/>
       <use xlink:href="#DejaVuSans-Bold-48" x="288.818359"/>
       <use xlink:href="#DejaVuSans-Bold-55" x="372.509766"/>
       <use xlink:href="#DejaVuSans-Bold-4d" x="453.710938"/>
       <use xlink:href="#DejaVuSans-Bold-41" x="553.222656"/>
       <use xlink:href="#DejaVuSans-Bold-4e" x="630.615234"/>
      </g>
     </g>
    </g>
    <g id="ytick_5">
     <g id="line2d_17">
      <g>
       <use xlink:href="#m978b6cb42d" x="182.23" y="264.160584" style="stroke: #000000; stroke-width: 0.8"/>
      </g>
     </g>
     <g id="text_12">
      <!-- HCP_LAMBD -->
      <g transform="translate(79.997187 269.355896) scale(0.14 -0.14)">
       <defs>
        <path id="DejaVuSans-Bold-50" d="M 588 4666 
L 2584 4666 
Q 3475 4666 3951 4270 
Q 4428 3875 4428 3144 
Q 4428 2409 3951 2014 
Q 3475 1619 2584 1619 
L 1791 1619 
L 1791 0 
L 588 0 
L 588 4666 
z
M 1791 3794 
L 1791 2491 
L 2456 2491 
Q 2806 2491 2997 2661 
Q 3188 2831 3188 3144 
Q 3188 3456 2997 3625 
Q 2806 3794 2456 3794 
L 1791 3794 
z
" transform="scale(0.015625)"/>
       </defs>
       <use xlink:href="#DejaVuSans-Bold-48"/>
       <use xlink:href="#DejaVuSans-Bold-43" x="83.691406"/>
       <use xlink:href="#DejaVuSans-Bold-50" x="157.080078"/>
       <use xlink:href="#DejaVuSans-Bold-5f" x="230.371094"/>
       <use xlink:href="#DejaVuSans-Bold-4c" x="280.371094"/>
       <use xlink:href="#DejaVuSans-Bold-41" x="344.091797"/>
       <use xlink:href="#DejaVuSans-Bold-4d" x="421.484375"/>
       <use xlink:href="#DejaVuSans-Bold-42" x="520.996094"/>
       <use xlink:href="#DejaVuSans-Bold-44" x="597.216797"/>
      </g>
     </g>
    </g>
    <g id="ytick_6">
     <g id="line2d_18">
      <g>
       <use xlink:href="#m978b6cb42d" x="182.23" y="309.129725" style="stroke: #000000; stroke-width: 0.8"/>
      </g>
     </g>
     <g id="text_13">
      <!-- DN7A_SACS2 -->
      <g transform="translate(73.03875 314.325037) scale(0.14 -0.14)">
       <use xlink:href="#DejaVuSans-Bold-44"/>
       <use xlink:href="#DejaVuSans-Bold-4e" x="83.007812"/>
       <use xlink:href="#DejaVuSans-Bold-37" x="166.699219"/>
       <use xlink:href="#DejaVuSans-Bold-41" x="236.279297"/>
       <use xlink:href="#DejaVuSans-Bold-5f" x="313.671875"/>
       <use xlink:href="#DejaVuSans-Bold-53" x="363.671875"/>
       <use xlink:href="#DejaVuSans-Bold-41" x="435.693359"/>
       <use xlink:href="#DejaVuSans-Bold-43" x="513.085938"/>
       <use xlink:href="#DejaVuSans-Bold-53" x="588.349609"/>
       <use xlink:href="#DejaVuSans-Bold-32" x="660.371094"/>
      </g>
     </g>
    </g>
    <g id="ytick_7">
     <g id="line2d_19">
      <g>
       <use xlink:href="#m978b6cb42d" x="182.23" y="354.098866" style="stroke: #000000; stroke-width: 0.8"/>
      </g>
     </g>
     <g id="text_14">
      <!-- SUMO1_HUMAN -->
      <g transform="translate(51.63625 359.294178) scale(0.14 -0.14)">
       <use xlink:href="#DejaVuSans-Bold-53"/>
       <use xlink:href="#DejaVuSans-Bold-55" x="72.021484"/>
       <use xlink:href="#DejaVuSans-Bold-4d" x="153.222656"/>
       <use xlink:href="#DejaVuSans-Bold-4f" x="252.734375"/>
       <use xlink:href="#DejaVuSans-Bold-31" x="337.744141"/>
       <use xlink:href="#DejaVuSans-Bold-5f" x="407.324219"/>
       <use xlink:href="#DejaVuSans-Bold-48" x="457.324219"/>
       <use xlink:href="#DejaVuSans-Bold-55" x="541.015625"/>
       <use xlink:href="#DejaVuSans-Bold-4d" x="622.216797"/>
       <use xlink:href="#DejaVuSans-Bold-41" x="721.728516"/>
       <use xlink:href="#DejaVuSans-Bold-4e" x="799.121094"/>
      </g>
     </g>
    </g>
    <g id="ytick_8">
     <g id="line2d_20">
      <g>
       <use xlink:href="#m978b6cb42d" x="182.23" y="399.068007" style="stroke: #000000; stroke-width: 0.8"/>
      </g>
     </g>
     <g id="text_15">
      <!-- FKBP3_HUMAN -->
      <g transform="translate(57.5775 404.263319) scale(0.14 -0.14)">
       <defs>
        <path id="DejaVuSans-Bold-4b" d="M 588 4666 
L 1791 4666 
L 1791 2963 
L 3525 4666 
L 4922 4666 
L 2675 2456 
L 5153 0 
L 3647 0 
L 1791 1838 
L 1791 0 
L 588 0 
L 588 4666 
z
" transform="scale(0.015625)"/>
       </defs>
       <use xlink:href="#DejaVuSans-Bold-46"/>
       <use xlink:href="#DejaVuSans-Bold-4b" x="68.310547"/>
       <use xlink:href="#DejaVuSans-Bold-42" x="145.800781"/>
       <use xlink:href="#DejaVuSans-Bold-50" x="222.021484"/>
       <use xlink:href="#DejaVuSans-Bold-33" x="295.3125"/>
       <use xlink:href="#DejaVuSans-Bold-5f" x="364.892578"/>
       <use xlink:href="#DejaVuSans-Bold-48" x="414.892578"/>
       <use xlink:href="#DejaVuSans-Bold-55" x="498.583984"/>
       <use xlink:href="#DejaVuSans-Bold-4d" x="579.785156"/>
       <use xlink:href="#DejaVuSans-Bold-41" x="679.296875"/>
       <use xlink:href="#DejaVuSans-Bold-4e" x="756.689453"/>
      </g>
     </g>
    </g>
    <g id="ytick_9">
     <g id="line2d_21">
      <g>
       <use xlink:href="#m978b6cb42d" x="182.23" y="444.037148" style="stroke: #000000; stroke-width: 0.8"/>
      </g>
     </g>
     <g id="text_16">
      <!-- RS15_GEOSE -->
      <g transform="translate(75.283125 449.23246) scale(0.14 -0.14)">
       <defs>
        <path id="DejaVuSans-Bold-35" d="M 678 4666 
L 3669 4666 
L 3669 3781 
L 1638 3781 
L 1638 3059 
Q 1775 3097 1914 3117 
Q 2053 3138 2203 3138 
Q 3056 3138 3531 2711 
Q 4006 2284 4006 1522 
Q 4006 766 3489 337 
Q 2972 -91 2053 -91 
Q 1656 -91 1267 -14 
Q 878 63 494 219 
L 494 1166 
Q 875 947 1217 837 
Q 1559 728 1863 728 
Q 2300 728 2551 942 
Q 2803 1156 2803 1522 
Q 2803 1891 2551 2103 
Q 2300 2316 1863 2316 
Q 1603 2316 1309 2248 
Q 1016 2181 678 2041 
L 678 4666 
z
" transform="scale(0.015625)"/>
        <path id="DejaVuSans-Bold-47" d="M 4781 347 
Q 4331 128 3847 18 
Q 3363 -91 2847 -91 
Q 1681 -91 1000 561 
Q 319 1213 319 2328 
Q 319 3456 1012 4103 
Q 1706 4750 2913 4750 
Q 3378 4750 3804 4662 
Q 4231 4575 4609 4403 
L 4609 3438 
Q 4219 3659 3833 3768 
Q 3447 3878 3059 3878 
Q 2341 3878 1952 3476 
Q 1563 3075 1563 2328 
Q 1563 1588 1938 1184 
Q 2313 781 3003 781 
Q 3191 781 3352 804 
Q 3513 828 3641 878 
L 3641 1784 
L 2906 1784 
L 2906 2591 
L 4781 2591 
L 4781 347 
z
" transform="scale(0.015625)"/>
       </defs>
       <use xlink:href="#DejaVuSans-Bold-52"/>
       <use xlink:href="#DejaVuSans-Bold-53" x="77.001953"/>
       <use xlink:href="#DejaVuSans-Bold-31" x="149.023438"/>
       <use xlink:href="#DejaVuSans-Bold-35" x="218.603516"/>
       <use xlink:href="#DejaVuSans-Bold-5f" x="288.183594"/>
       <use xlink:href="#DejaVuSans-Bold-47" x="338.183594"/>
       <use xlink:href="#DejaVuSans-Bold-45" x="420.263672"/>
       <use xlink:href="#DejaVuSans-Bold-4f" x="488.574219"/>
       <use xlink:href="#DejaVuSans-Bold-53" x="573.583984"/>
       <use xlink:href="#DejaVuSans-Bold-45" x="645.605469"/>
      </g>
     </g>
    </g>
    <g id="ytick_10">
     <g id="line2d_22">
      <g>
       <use xlink:href="#m978b6cb42d" x="182.23" y="489.006289" style="stroke: #000000; stroke-width: 0.8"/>
      </g>
     </g>
     <g id="text_17">
      <!-- OTU7A_HUMAN -->
      <g transform="translate(55.265312 494.201601) scale(0.14 -0.14)">
       <use xlink:href="#DejaVuSans-Bold-4f"/>
       <use xlink:href="#DejaVuSans-Bold-54" x="85.009766"/>
       <use xlink:href="#DejaVuSans-Bold-55" x="153.222656"/>
       <use xlink:href="#DejaVuSans-Bold-37" x="234.423828"/>
       <use xlink:href="#DejaVuSans-Bold-41" x="304.003906"/>
       <use xlink:href="#DejaVuSans-Bold-5f" x="381.396484"/>
       <use xlink:href="#DejaVuSans-Bold-48" x="431.396484"/>
       <use xlink:href="#DejaVuSans-Bold-55" x="515.087891"/>
       <use xlink:href="#DejaVuSans-Bold-4d" x="596.289062"/>
       <use xlink:href="#DejaVuSans-Bold-41" x="695.800781"/>
       <use xlink:href="#DejaVuSans-Bold-4e" x="773.193359"/>
      </g>
     </g>
    </g>
    <g id="ytick_11">
     <g id="line2d_23">
      <g>
       <use xlink:href="#m978b6cb42d" x="182.23" y="533.97543" style="stroke: #000000; stroke-width: 0.8"/>
      </g>
     </g>
     <g id="text_18">
      <!-- SBI_STAAM -->
      <g transform="translate(88.119375 539.170742) scale(0.14 -0.14)">
       <use xlink:href="#DejaVuSans-Bold-53"/>
       <use xlink:href="#DejaVuSans-Bold-42" x="72.021484"/>
       <use xlink:href="#DejaVuSans-Bold-49" x="148.242188"/>
       <use xlink:href="#DejaVuSans-Bold-5f" x="185.449219"/>
       <use xlink:href="#DejaVuSans-Bold-53" x="235.449219"/>
       <use xlink:href="#DejaVuSans-Bold-54" x="307.470703"/>
       <use xlink:href="#DejaVuSans-Bold-41" x="367.933594"/>
       <use xlink:href="#DejaVuSans-Bold-41" x="445.326172"/>
       <use xlink:href="#DejaVuSans-Bold-4d" x="522.71875"/>
      </g>
     </g>
    </g>
    <g id="ytick_12">
     <g id="line2d_24">
      <g>
       <use xlink:href="#m978b6cb42d" x="182.23" y="578.94457" style="stroke: #000000; stroke-width: 0.8"/>
      </g>
     </g>
     <g id="text_19">
      <!-- VG08_BPP22 -->
      <g transform="translate(75.746875 584.139883) scale(0.14 -0.14)">
       <defs>
        <path id="DejaVuSans-Bold-56" d="M 31 4666 
L 1241 4666 
L 2478 1222 
L 3713 4666 
L 4922 4666 
L 3194 0 
L 1759 0 
L 31 4666 
z
" transform="scale(0.015625)"/>
       </defs>
       <use xlink:href="#DejaVuSans-Bold-56"/>
       <use xlink:href="#DejaVuSans-Bold-47" x="77.392578"/>
       <use xlink:href="#DejaVuSans-Bold-30" x="159.472656"/>
       <use xlink:href="#DejaVuSans-Bold-38" x="229.052734"/>
       <use xlink:href="#DejaVuSans-Bold-5f" x="298.632812"/>
       <use xlink:href="#DejaVuSans-Bold-42" x="348.632812"/>
       <use xlink:href="#DejaVuSans-Bold-50" x="424.853516"/>
       <use xlink:href="#DejaVuSans-Bold-50" x="498.144531"/>
       <use xlink:href="#DejaVuSans-Bold-32" x="571.435547"/>
       <use xlink:href="#DejaVuSans-Bold-32" x="641.015625"/>
      </g>
     </g>
    </g>
    <g id="ytick_13">
     <g id="line2d_25">
      <g>
       <use xlink:href="#m978b6cb42d" x="182.23" y="623.913711" style="stroke: #000000; stroke-width: 0.8"/>
      </g>
     </g>
     <g id="text_20">
      <!-- SOX30_HUMAN -->
      <g transform="translate(56.910312 629.109024) scale(0.14 -0.14)">
       <defs>
        <path id="DejaVuSans-Bold-58" d="M 3188 2381 
L 4806 0 
L 3553 0 
L 2463 1594 
L 1381 0 
L 122 0 
L 1741 2381 
L 184 4666 
L 1441 4666 
L 2463 3163 
L 3481 4666 
L 4744 4666 
L 3188 2381 
z
" transform="scale(0.015625)"/>
       </defs>
       <use xlink:href="#DejaVuSans-Bold-53"/>
       <use xlink:href="#DejaVuSans-Bold-4f" x="72.021484"/>
       <use xlink:href="#DejaVuSans-Bold-58" x="153.40625"/>
       <use xlink:href="#DejaVuSans-Bold-33" x="230.505859"/>
       <use xlink:href="#DejaVuSans-Bold-30" x="300.085938"/>
       <use xlink:href="#DejaVuSans-Bold-5f" x="369.666016"/>
       <use xlink:href="#DejaVuSans-Bold-48" x="419.666016"/>
       <use xlink:href="#DejaVuSans-Bold-55" x="503.357422"/>
       <use xlink:href="#DejaVuSans-Bold-4d" x="584.558594"/>
       <use xlink:href="#DejaVuSans-Bold-41" x="684.070312"/>
       <use xlink:href="#DejaVuSans-Bold-4e" x="761.462891"/>
      </g>
     </g>
    </g>
    <g id="ytick_14">
     <g id="line2d_26">
      <g>
       <use xlink:href="#m978b6cb42d" x="182.23" y="668.882852" style="stroke: #000000; stroke-width: 0.8"/>
      </g>
     </g>
     <g id="text_21">
      <!-- PKN1_HUMAN -->
      <g transform="translate(66.095625 674.007071) scale(0.14 -0.14)">
       <use xlink:href="#DejaVuSans-Bold-50"/>
       <use xlink:href="#DejaVuSans-Bold-4b" x="73.291016"/>
       <use xlink:href="#DejaVuSans-Bold-4e" x="150.78125"/>
       <use xlink:href="#DejaVuSans-Bold-31" x="234.472656"/>
       <use xlink:href="#DejaVuSans-Bold-5f" x="304.052734"/>
       <use xlink:href="#DejaVuSans-Bold-48" x="354.052734"/>
       <use xlink:href="#DejaVuSans-Bold-55" x="437.744141"/>
       <use xlink:href="#DejaVuSans-Bold-4d" x="518.945312"/>
       <use xlink:href="#DejaVuSans-Bold-41" x="618.457031"/>
       <use xlink:href="#DejaVuSans-Bold-4e" x="695.849609"/>
      </g>
     </g>
    </g>
    <g id="ytick_15">
     <g id="line2d_27">
      <g>
       <use xlink:href="#m978b6cb42d" x="182.23" y="713.851993" style="stroke: #000000; stroke-width: 0.8"/>
      </g>
     </g>
     <g id="text_22">
      <!-- SQSTM_MOUSE -->
      <g transform="translate(55.831875 719.047306) scale(0.14 -0.14)">
       <defs>
        <path id="DejaVuSans-Bold-51" d="M 2847 -84 
L 2753 -84 
Q 1600 -84 959 553 
Q 319 1191 319 2328 
Q 319 3463 958 4106 
Q 1597 4750 2719 4750 
Q 3853 4750 4486 4112 
Q 5119 3475 5119 2328 
Q 5119 1541 4783 972 
Q 4447 403 3816 116 
L 4756 -934 
L 3609 -934 
L 2847 -84 
z
M 2719 3878 
Q 2169 3878 1866 3472 
Q 1563 3066 1563 2328 
Q 1563 1578 1859 1179 
Q 2156 781 2719 781 
Q 3272 781 3575 1187 
Q 3878 1594 3878 2328 
Q 3878 3066 3575 3472 
Q 3272 3878 2719 3878 
z
" transform="scale(0.015625)"/>
       </defs>
       <use xlink:href="#DejaVuSans-Bold-53"/>
       <use xlink:href="#DejaVuSans-Bold-51" x="72.021484"/>
       <use xlink:href="#DejaVuSans-Bold-53" x="157.03125"/>
       <use xlink:href="#DejaVuSans-Bold-54" x="229.052734"/>
       <use xlink:href="#DejaVuSans-Bold-4d" x="297.265625"/>
       <use xlink:href="#DejaVuSans-Bold-5f" x="396.777344"/>
       <use xlink:href="#DejaVuSans-Bold-4d" x="446.777344"/>
       <use xlink:href="#DejaVuSans-Bold-4f" x="546.289062"/>
       <use xlink:href="#DejaVuSans-Bold-55" x="631.298828"/>
       <use xlink:href="#DejaVuSans-Bold-53" x="712.5"/>
       <use xlink:href="#DejaVuSans-Bold-45" x="784.521484"/>
      </g>
     </g>
    </g>
    <g id="ytick_16">
     <g id="line2d_28">
      <g>
       <use xlink:href="#m978b6cb42d" x="182.23" y="758.821134" style="stroke: #000000; stroke-width: 0.8"/>
      </g>
     </g>
     <g id="text_23">
      <!-- IF1_ECOLI -->
      <g transform="translate(97.847187 764.016447) scale(0.14 -0.14)">
       <use xlink:href="#DejaVuSans-Bold-49"/>
       <use xlink:href="#DejaVuSans-Bold-46" x="37.207031"/>
       <use xlink:href="#DejaVuSans-Bold-31" x="105.517578"/>
       <use xlink:href="#DejaVuSans-Bold-5f" x="175.097656"/>
       <use xlink:href="#DejaVuSans-Bold-45" x="225.097656"/>
       <use xlink:href="#DejaVuSans-Bold-43" x="293.408203"/>
       <use xlink:href="#DejaVuSans-Bold-4f" x="366.796875"/>
       <use xlink:href="#DejaVuSans-Bold-4c" x="451.806641"/>
       <use xlink:href="#DejaVuSans-Bold-49" x="515.527344"/>
      </g>
     </g>
    </g>
    <g id="ytick_17">
     <g id="line2d_29">
      <g>
       <use xlink:href="#m978b6cb42d" x="182.23" y="803.790275" style="stroke: #000000; stroke-width: 0.8"/>
      </g>
     </g>
     <g id="text_24">
      <!-- ARGR_ECOLI -->
      <g transform="translate(78.474687 808.985588) scale(0.14 -0.14)">
       <use xlink:href="#DejaVuSans-Bold-41"/>
       <use xlink:href="#DejaVuSans-Bold-52" x="77.392578"/>
       <use xlink:href="#DejaVuSans-Bold-47" x="154.394531"/>
       <use xlink:href="#DejaVuSans-Bold-52" x="236.474609"/>
       <use xlink:href="#DejaVuSans-Bold-5f" x="313.476562"/>
       <use xlink:href="#DejaVuSans-Bold-45" x="363.476562"/>
       <use xlink:href="#DejaVuSans-Bold-43" x="431.787109"/>
       <use xlink:href="#DejaVuSans-Bold-4f" x="505.175781"/>
       <use xlink:href="#DejaVuSans-Bold-4c" x="590.185547"/>
       <use xlink:href="#DejaVuSans-Bold-49" x="653.90625"/>
      </g>
     </g>
    </g>
    <g id="ytick_18">
     <g id="line2d_30">
      <g>
       <use xlink:href="#m978b6cb42d" x="182.23" y="848.759416" style="stroke: #000000; stroke-width: 0.8"/>
      </g>
     </g>
     <g id="text_25">
      <!-- VRPI_BPT7 -->
      <g transform="translate(90.921562 853.883635) scale(0.14 -0.14)">
       <use xlink:href="#DejaVuSans-Bold-56"/>
       <use xlink:href="#DejaVuSans-Bold-52" x="77.392578"/>
       <use xlink:href="#DejaVuSans-Bold-50" x="154.394531"/>
       <use xlink:href="#DejaVuSans-Bold-49" x="227.685547"/>
       <use xlink:href="#DejaVuSans-Bold-5f" x="264.892578"/>
       <use xlink:href="#DejaVuSans-Bold-42" x="314.892578"/>
       <use xlink:href="#DejaVuSans-Bold-50" x="391.113281"/>
       <use xlink:href="#DejaVuSans-Bold-54" x="464.404297"/>
       <use xlink:href="#DejaVuSans-Bold-37" x="532.617188"/>
      </g>
     </g>
    </g>
    <g id="ytick_19">
     <g id="line2d_31">
      <g>
       <use xlink:href="#m978b6cb42d" x="182.23" y="893.728557" style="stroke: #000000; stroke-width: 0.8"/>
      </g>
     </g>
     <g id="text_26">
      <!-- TAT_HV1BR -->
      <g transform="translate(86.721562 898.852776) scale(0.14 -0.14)">
       <use xlink:href="#DejaVuSans-Bold-54"/>
       <use xlink:href="#DejaVuSans-Bold-41" x="60.462891"/>
       <use xlink:href="#DejaVuSans-Bold-54" x="130.105469"/>
       <use xlink:href="#DejaVuSans-Bold-5f" x="198.318359"/>
       <use xlink:href="#DejaVuSans-Bold-48" x="248.318359"/>
       <use xlink:href="#DejaVuSans-Bold-56" x="332.009766"/>
       <use xlink:href="#DejaVuSans-Bold-31" x="409.402344"/>
       <use xlink:href="#DejaVuSans-Bold-42" x="478.982422"/>
       <use xlink:href="#DejaVuSans-Bold-52" x="555.203125"/>
      </g>
     </g>
    </g>
    <g id="ytick_20">
     <g id="line2d_32">
      <g>
       <use xlink:href="#m978b6cb42d" x="182.23" y="938.697698" style="stroke: #000000; stroke-width: 0.8"/>
      </g>
     </g>
     <g id="text_27">
      <!-- ENVZ_ECOLI -->
      <g transform="translate(80.093437 943.893011) scale(0.14 -0.14)">
       <defs>
        <path id="DejaVuSans-Bold-5a" d="M 359 4666 
L 4281 4666 
L 4281 3938 
L 1778 909 
L 4353 909 
L 4353 0 
L 288 0 
L 288 728 
L 2791 3756 
L 359 3756 
L 359 4666 
z
" transform="scale(0.015625)"/>
       </defs>
       <use xlink:href="#DejaVuSans-Bold-45"/>
       <use xlink:href="#DejaVuSans-Bold-4e" x="68.310547"/>
       <use xlink:href="#DejaVuSans-Bold-56" x="152.001953"/>
       <use xlink:href="#DejaVuSans-Bold-5a" x="229.394531"/>
       <use xlink:href="#DejaVuSans-Bold-5f" x="301.904297"/>
       <use xlink:href="#DejaVuSans-Bold-45" x="351.904297"/>
       <use xlink:href="#DejaVuSans-Bold-43" x="420.214844"/>
       <use xlink:href="#DejaVuSans-Bold-4f" x="493.603516"/>
       <use xlink:href="#DejaVuSans-Bold-4c" x="578.613281"/>
       <use xlink:href="#DejaVuSans-Bold-49" x="642.333984"/>
      </g>
     </g>
    </g>
    <g id="ytick_21">
     <g id="line2d_33">
      <g>
       <use xlink:href="#m978b6cb42d" x="182.23" y="983.666839" style="stroke: #000000; stroke-width: 0.8"/>
      </g>
     </g>
     <g id="text_28">
      <!-- PUMA -->
      <g transform="translate(128.833125 988.985745) scale(0.14 -0.14)">
       <use xlink:href="#DejaVuSans-Bold-50"/>
       <use xlink:href="#DejaVuSans-Bold-55" x="73.291016"/>
       <use xlink:href="#DejaVuSans-Bold-4d" x="154.492188"/>
       <use xlink:href="#DejaVuSans-Bold-41" x="254.003906"/>
      </g>
     </g>
    </g>
    <g id="ytick_22">
     <g id="line2d_34">
      <g>
       <use xlink:href="#m978b6cb42d" x="182.23" y="1028.63598" style="stroke: #000000; stroke-width: 0.8"/>
      </g>
     </g>
     <g id="text_29">
      <!-- CP2 -->
      <g transform="translate(144.952812 1033.954886) scale(0.14 -0.14)">
       <use xlink:href="#DejaVuSans-Bold-43"/>
       <use xlink:href="#DejaVuSans-Bold-50" x="73.388672"/>
       <use xlink:href="#DejaVuSans-Bold-32" x="146.679688"/>
      </g>
     </g>
    </g>
   </g>
   <g id="line2d_35">
    <path d="M 182.23 961.182269 
L 694.728 961.182269 
" clip-path="url(#p44e0e8d058)" style="fill: none; stroke-dasharray: 7.4,3.2; stroke-dashoffset: 0; stroke: #808080; stroke-opacity: 0.7; stroke-width: 2"/>
   </g>
   <g id="patch_47">
    <path d="M 182.23 1095.64 
L 182.23 17.28 
" style="fill: none; stroke: #000000; stroke-width: 0.8; stroke-linejoin: miter; stroke-linecap: square"/>
   </g>
   <g id="patch_48">
    <path d="M 694.728 1095.64 
L 694.728 17.28 
" style="fill: none; stroke: #000000; stroke-width: 0.8; stroke-linejoin: miter; stroke-linecap: square"/>
   </g>
   <g id="patch_49">
    <path d="M 182.23 1095.64 
L 694.728 1095.64 
" style="fill: none; stroke: #000000; stroke-width: 0.8; stroke-linejoin: miter; stroke-linecap: square"/>
   </g>
   <g id="patch_50">
    <path d="M 182.23 17.28 
L 694.728 17.28 
" style="fill: none; stroke: #000000; stroke-width: 0.8; stroke-linejoin: miter; stroke-linecap: square"/>
   </g>
   <g id="legend_1">
    <g id="patch_51">
     <path d="M 707.77796 62.57875 
L 840.946398 62.57875 
Q 843.746398 62.57875 843.746398 59.77875 
L 843.746398 20.08 
Q 843.746398 17.28 840.946398 17.28 
L 707.77796 17.28 
Q 704.97796 17.28 704.97796 20.08 
L 704.97796 59.77875 
Q 704.97796 62.57875 707.77796 62.57875 
z
" style="fill: #ffffff; opacity: 0.8; stroke: #cccccc; stroke-linejoin: miter"/>
    </g>
    <g id="patch_52">
     <path d="M 710.57796 33.517812 
L 738.57796 33.517812 
L 738.57796 23.717812 
L 710.57796 23.717812 
z
" style="fill: #ff1493; opacity: 0.85; stroke: #ffffff; stroke-width: 1.5; stroke-linejoin: miter"/>
    </g>
    <g id="text_30">
     <!-- UNAAGI -->
     <g transform="translate(749.77796 33.517812) scale(0.14 -0.14)">
      <use xlink:href="#DejaVuSans-Bold-55"/>
      <use xlink:href="#DejaVuSans-Bold-4e" x="81.201172"/>
      <use xlink:href="#DejaVuSans-Bold-41" x="164.892578"/>
      <use xlink:href="#DejaVuSans-Bold-41" x="242.285156"/>
      <use xlink:href="#DejaVuSans-Bold-47" x="319.677734"/>
      <use xlink:href="#DejaVuSans-Bold-49" x="401.757812"/>
     </g>
    </g>
    <g id="patch_53">
     <path d="M 710.57796 54.067188 
L 738.57796 54.067188 
L 738.57796 44.267188 
L 710.57796 44.267188 
z
" style="opacity: 0.85; stroke: #ffffff; stroke-width: 1.5; stroke-linejoin: miter"/>
    </g>
    <g id="text_31">
     <!-- PepINVENT -->
     <g transform="translate(749.77796 54.067188) scale(0.14 -0.14)">
      <use xlink:href="#DejaVuSans-Bold-50"/>
      <use xlink:href="#DejaVuSans-Bold-65" x="73.291016"/>
      <use xlink:href="#DejaVuSans-Bold-70" x="141.113281"/>
      <use xlink:href="#DejaVuSans-Bold-49" x="212.695312"/>
      <use xlink:href="#DejaVuSans-Bold-4e" x="249.902344"/>
      <use xlink:href="#DejaVuSans-Bold-56" x="333.59375"/>
      <use xlink:href="#DejaVuSans-Bold-45" x="410.986328"/>
      <use xlink:href="#DejaVuSans-Bold-4e" x="479.296875"/>
      <use xlink:href="#DejaVuSans-Bold-54" x="562.988281"/>
     </g>
    </g>
   </g>
  </g>
 </g>
 <defs>
  <clipPath id="p44e0e8d058">
   <rect x="182.23" y="17.28" width="512.498" height="1078.36"/>
  </clipPath>
 </defs>
</svg>
