<?xml version="1.0" encoding="utf-8" standalone="no"?>
<!DOCTYPE svg PUBLIC "-//W3C//DTD SVG 1.1//EN"
  "http://www.w3.org/Graphics/SVG/1.1/DTD/svg11.dtd">
<svg xmlns:xlink="http://www.w3.org/1999/xlink" width="989.254219pt" height="559.856094pt" viewBox="0 0 989.254219 559.856094" xmlns="http://www.w3.org/2000/svg" version="1.1">
 <metadata>
  <rdf:RDF xmlns:dc="http://purl.org/dc/elements/1.1/" xmlns:cc="http://creativecommons.org/ns#" xmlns:rdf="http://www.w3.org/1999/02/22-rdf-syntax-ns#">
   <cc:Work>
    <dc:type rdf:resource="http://purl.org/dc/dcmitype/StillImage"/>
    <dc:date>2025-12-03T01:19:42.078504</dc:date>
    <dc:format>image/svg+xml</dc:format>
    <dc:creator>
     <cc:Agent>
      <dc:title>Matplotlib v3.7.2, https://matplotlib.org/</dc:title>
     </cc:Agent>
    </dc:creator>
   </cc:Work>
  </rdf:RDF>
 </metadata>
 <defs>
  <style type="text/css">*{stroke-linejoin: round; stroke-linecap: butt}</style>
 </defs>
 <g id="figure_1">
  <g id="patch_1">
   <path d="M 0 559.856094 
L 989.254219 559.856094 
L 989.254219 0 
L 0 0 
z
" style="fill: #ffffff"/>
  </g>
  <g id="axes_1">
   <g id="patch_2">
    <path d="M 75.684219 514.557344 
L 982.054219 514.557344 
L 982.054219 40.117344 
L 75.684219 40.117344 
z
" style="fill: #f8f9fa"/>
   </g>
   <g id="patch_3">
    <path d="M 116.882855 284.144828 
L 208.43538 284.144828 
L 208.43538 147.226659 
L 116.882855 147.226659 
z
" clip-path="url(#p184988a376)" style="fill: #e63946; opacity: 0.9; stroke: #ffffff; stroke-width: 2; stroke-linejoin: miter"/>
   </g>
   <g id="patch_4">
    <path d="M 574.645481 284.144828 
L 666.198007 284.144828 
L 666.198007 71.283749 
L 574.645481 71.283749 
z
" clip-path="url(#p184988a376)" style="fill: #e63946; opacity: 0.9; stroke: #ffffff; stroke-width: 2; stroke-linejoin: miter"/>
   </g>
   <g id="patch_5">
    <path d="M 208.43538 284.144828 
L 299.987906 284.144828 
L 299.987906 321.40754 
L 208.43538 321.40754 
z
" clip-path="url(#p184988a376)" style="fill: #457b9d; opacity: 0.9; stroke: #ffffff; stroke-width: 2; stroke-linejoin: miter"/>
   </g>
   <g id="patch_6">
    <path d="M 666.198007 284.144828 
L 757.750532 284.144828 
L 757.750532 113.329915 
L 666.198007 113.329915 
z
" clip-path="url(#p184988a376)" style="fill: #457b9d; opacity: 0.9; stroke: #ffffff; stroke-width: 2; stroke-linejoin: miter"/>
   </g>
   <g id="patch_7">
    <path d="M 299.987906 284.144828 
L 391.540431 284.144828 
L 391.540431 196.209223 
L 299.987906 196.209223 
z
" clip-path="url(#p184988a376)" style="fill: #2a9d8f; opacity: 0.9; stroke: #ffffff; stroke-width: 2; stroke-linejoin: miter"/>
   </g>
   <g id="patch_8">
    <path d="M 757.750532 284.144828 
L 849.303057 284.144828 
L 849.303057 492.991889 
L 757.750532 492.991889 
z
" clip-path="url(#p184988a376)" style="fill: #2a9d8f; opacity: 0.9; stroke: #ffffff; stroke-width: 2; stroke-linejoin: miter"/>
   </g>
   <g id="patch_9">
    <path d="M 391.540431 284.144828 
L 483.092956 284.144828 
L 483.092956 449.024087 
L 391.540431 449.024087 
z
" clip-path="url(#p184988a376)" style="fill: #f4a261; opacity: 0.9; stroke: #ffffff; stroke-width: 2; stroke-linejoin: miter"/>
   </g>
   <g id="patch_10">
    <path d="M 849.303057 284.144828 
L 940.855582 284.144828 
L 940.855582 284.144828 
L 849.303057 284.144828 
z
" clip-path="url(#p184988a376)" style="fill: #f4a261; opacity: 0.9; stroke: #ffffff; stroke-width: 2; stroke-linejoin: miter"/>
   </g>
   <g id="matplotlib.axis_1">
    <g id="xtick_1">
     <g id="line2d_1">
      <defs>
       <path id="med4993651b" d="M 0 0 
L 0 3.5 
" style="stroke: #000000; stroke-width: 0.8"/>
      </defs>
      <g>
       <use xlink:href="#med4993651b" x="299.987906" y="514.557344" style="stroke: #000000; stroke-width: 0.8"/>
      </g>
     </g>
     <g id="text_1">
      <!-- CP2 -->
      <g transform="translate(285.93064 531.435313) scale(0.13 -0.13)">
       <defs>
        <path id="DejaVuSans-Bold-43" d="M 4288 256 
Q 3956 84 3597 -3 
Q 3238 -91 2847 -91 
Q 1681 -91 1000 561 
Q 319 1213 319 2328 
Q 319 3447 1000 4098 
Q 1681 4750 2847 4750 
Q 3238 4750 3597 4662 
Q 3956 4575 4288 4403 
L 4288 3438 
Q 3953 3666 3628 3772 
Q 3303 3878 2944 3878 
Q 2300 3878 1931 3465 
Q 1563 3053 1563 2328 
Q 1563 1606 1931 1193 
Q 2300 781 2944 781 
Q 3303 781 3628 887 
Q 3953 994 4288 1222 
L 4288 256 
z
" transform="scale(0.015625)"/>
        <path id="DejaVuSans-Bold-50" d="M 588 4666 
L 2584 4666 
Q 3475 4666 3951 4270 
Q 4428 3875 4428 3144 
Q 4428 2409 3951 2014 
Q 3475 1619 2584 1619 
L 1791 1619 
L 1791 0 
L 588 0 
L 588 4666 
z
M 1791 3794 
L 1791 2491 
L 2456 2491 
Q 2806 2491 2997 2661 
Q 3188 2831 3188 3144 
Q 3188 3456 2997 3625 
Q 2806 3794 2456 3794 
L 1791 3794 
z
" transform="scale(0.015625)"/>
        <path id="DejaVuSans-Bold-32" d="M 1844 884 
L 3897 884 
L 3897 0 
L 506 0 
L 506 884 
L 2209 2388 
Q 2438 2594 2547 2791 
Q 2656 2988 2656 3200 
Q 2656 3528 2436 3728 
Q 2216 3928 1850 3928 
Q 1569 3928 1234 3808 
Q 900 3688 519 3450 
L 519 4475 
Q 925 4609 1322 4679 
Q 1719 4750 2100 4750 
Q 2938 4750 3402 4381 
Q 3866 4013 3866 3353 
Q 3866 2972 3669 2642 
Q 3472 2313 2841 1759 
L 1844 884 
z
" transform="scale(0.015625)"/>
       </defs>
       <use xlink:href="#DejaVuSans-Bold-43"/>
       <use xlink:href="#DejaVuSans-Bold-50" x="73.388672"/>
       <use xlink:href="#DejaVuSans-Bold-32" x="146.679688"/>
      </g>
     </g>
    </g>
    <g id="xtick_2">
     <g id="line2d_2">
      <g>
       <use xlink:href="#med4993651b" x="757.750532" y="514.557344" style="stroke: #000000; stroke-width: 0.8"/>
      </g>
     </g>
     <g id="text_2">
      <!-- PUMA -->
      <g transform="translate(736.209126 531.435313) scale(0.13 -0.13)">
       <defs>
        <path id="DejaVuSans-Bold-55" d="M 588 4666 
L 1791 4666 
L 1791 1869 
Q 1791 1291 1980 1042 
Q 2169 794 2597 794 
Q 3028 794 3217 1042 
Q 3406 1291 3406 1869 
L 3406 4666 
L 4609 4666 
L 4609 1869 
Q 4609 878 4112 393 
Q 3616 -91 2597 -91 
Q 1581 -91 1084 393 
Q 588 878 588 1869 
L 588 4666 
z
" transform="scale(0.015625)"/>
        <path id="DejaVuSans-Bold-4d" d="M 588 4666 
L 2119 4666 
L 3181 2169 
L 4250 4666 
L 5778 4666 
L 5778 0 
L 4641 0 
L 4641 3413 
L 3566 897 
L 2803 897 
L 1728 3413 
L 1728 0 
L 588 0 
L 588 4666 
z
" transform="scale(0.015625)"/>
        <path id="DejaVuSans-Bold-41" d="M 3419 850 
L 1538 850 
L 1241 0 
L 31 0 
L 1759 4666 
L 3194 4666 
L 4922 0 
L 3713 0 
L 3419 850 
z
M 1838 1716 
L 3116 1716 
L 2478 3572 
L 1838 1716 
z
" transform="scale(0.015625)"/>
       </defs>
       <use xlink:href="#DejaVuSans-Bold-50"/>
       <use xlink:href="#DejaVuSans-Bold-55" x="73.291016"/>
       <use xlink:href="#DejaVuSans-Bold-4d" x="154.492188"/>
       <use xlink:href="#DejaVuSans-Bold-41" x="254.003906"/>
      </g>
     </g>
    </g>
    <g id="text_3">
     <!-- Benchmark -->
     <g transform="translate(481.378984 549.536563) scale(0.15 -0.15)">
      <defs>
       <path id="DejaVuSans-Bold-42" d="M 2456 2859 
Q 2741 2859 2887 2984 
Q 3034 3109 3034 3353 
Q 3034 3594 2887 3720 
Q 2741 3847 2456 3847 
L 1791 3847 
L 1791 2859 
L 2456 2859 
z
M 2497 819 
Q 2859 819 3042 972 
Q 3225 1125 3225 1434 
Q 3225 1738 3044 1889 
Q 2863 2041 2497 2041 
L 1791 2041 
L 1791 819 
L 2497 819 
z
M 3616 2497 
Q 4003 2384 4215 2081 
Q 4428 1778 4428 1338 
Q 4428 663 3972 331 
Q 3516 0 2584 0 
L 588 0 
L 588 4666 
L 2394 4666 
Q 3366 4666 3802 4372 
Q 4238 4078 4238 3431 
Q 4238 3091 4078 2852 
Q 3919 2613 3616 2497 
z
" transform="scale(0.015625)"/>
       <path id="DejaVuSans-Bold-65" d="M 4031 1759 
L 4031 1441 
L 1416 1441 
Q 1456 1047 1700 850 
Q 1944 653 2381 653 
Q 2734 653 3104 758 
Q 3475 863 3866 1075 
L 3866 213 
Q 3469 63 3072 -14 
Q 2675 -91 2278 -91 
Q 1328 -91 801 392 
Q 275 875 275 1747 
Q 275 2603 792 3093 
Q 1309 3584 2216 3584 
Q 3041 3584 3536 3087 
Q 4031 2591 4031 1759 
z
M 2881 2131 
Q 2881 2450 2695 2645 
Q 2509 2841 2209 2841 
Q 1884 2841 1681 2658 
Q 1478 2475 1428 2131 
L 2881 2131 
z
" transform="scale(0.015625)"/>
       <path id="DejaVuSans-Bold-6e" d="M 4056 2131 
L 4056 0 
L 2931 0 
L 2931 347 
L 2931 1631 
Q 2931 2084 2911 2256 
Q 2891 2428 2841 2509 
Q 2775 2619 2662 2680 
Q 2550 2741 2406 2741 
Q 2056 2741 1856 2470 
Q 1656 2200 1656 1722 
L 1656 0 
L 538 0 
L 538 3500 
L 1656 3500 
L 1656 2988 
Q 1909 3294 2193 3439 
Q 2478 3584 2822 3584 
Q 3428 3584 3742 3212 
Q 4056 2841 4056 2131 
z
" transform="scale(0.015625)"/>
       <path id="DejaVuSans-Bold-63" d="M 3366 3391 
L 3366 2478 
Q 3138 2634 2908 2709 
Q 2678 2784 2431 2784 
Q 1963 2784 1702 2511 
Q 1441 2238 1441 1747 
Q 1441 1256 1702 982 
Q 1963 709 2431 709 
Q 2694 709 2930 787 
Q 3166 866 3366 1019 
L 3366 103 
Q 3103 6 2833 -42 
Q 2563 -91 2291 -91 
Q 1344 -91 809 395 
Q 275 881 275 1747 
Q 275 2613 809 3098 
Q 1344 3584 2291 3584 
Q 2566 3584 2833 3536 
Q 3100 3488 3366 3391 
z
" transform="scale(0.015625)"/>
       <path id="DejaVuSans-Bold-68" d="M 4056 2131 
L 4056 0 
L 2931 0 
L 2931 347 
L 2931 1625 
Q 2931 2084 2911 2256 
Q 2891 2428 2841 2509 
Q 2775 2619 2662 2680 
Q 2550 2741 2406 2741 
Q 2056 2741 1856 2470 
Q 1656 2200 1656 1722 
L 1656 0 
L 538 0 
L 538 4863 
L 1656 4863 
L 1656 2988 
Q 1909 3294 2193 3439 
Q 2478 3584 2822 3584 
Q 3428 3584 3742 3212 
Q 4056 2841 4056 2131 
z
" transform="scale(0.015625)"/>
       <path id="DejaVuSans-Bold-6d" d="M 3781 2919 
Q 3994 3244 4286 3414 
Q 4578 3584 4928 3584 
Q 5531 3584 5847 3212 
Q 6163 2841 6163 2131 
L 6163 0 
L 5038 0 
L 5038 1825 
Q 5041 1866 5042 1909 
Q 5044 1953 5044 2034 
Q 5044 2406 4934 2573 
Q 4825 2741 4581 2741 
Q 4263 2741 4089 2478 
Q 3916 2216 3909 1719 
L 3909 0 
L 2784 0 
L 2784 1825 
Q 2784 2406 2684 2573 
Q 2584 2741 2328 2741 
Q 2006 2741 1831 2477 
Q 1656 2213 1656 1722 
L 1656 0 
L 531 0 
L 531 3500 
L 1656 3500 
L 1656 2988 
Q 1863 3284 2130 3434 
Q 2397 3584 2719 3584 
Q 3081 3584 3359 3409 
Q 3638 3234 3781 2919 
z
" transform="scale(0.015625)"/>
       <path id="DejaVuSans-Bold-61" d="M 2106 1575 
Q 1756 1575 1579 1456 
Q 1403 1338 1403 1106 
Q 1403 894 1545 773 
Q 1688 653 1941 653 
Q 2256 653 2472 879 
Q 2688 1106 2688 1447 
L 2688 1575 
L 2106 1575 
z
M 3816 1997 
L 3816 0 
L 2688 0 
L 2688 519 
Q 2463 200 2181 54 
Q 1900 -91 1497 -91 
Q 953 -91 614 226 
Q 275 544 275 1050 
Q 275 1666 698 1953 
Q 1122 2241 2028 2241 
L 2688 2241 
L 2688 2328 
Q 2688 2594 2478 2717 
Q 2269 2841 1825 2841 
Q 1466 2841 1156 2769 
Q 847 2697 581 2553 
L 581 3406 
Q 941 3494 1303 3539 
Q 1666 3584 2028 3584 
Q 2975 3584 3395 3211 
Q 3816 2838 3816 1997 
z
" transform="scale(0.015625)"/>
       <path id="DejaVuSans-Bold-72" d="M 3138 2547 
Q 2991 2616 2845 2648 
Q 2700 2681 2553 2681 
Q 2122 2681 1889 2404 
Q 1656 2128 1656 1613 
L 1656 0 
L 538 0 
L 538 3500 
L 1656 3500 
L 1656 2925 
Q 1872 3269 2151 3426 
Q 2431 3584 2822 3584 
Q 2878 3584 2943 3579 
Q 3009 3575 3134 3559 
L 3138 2547 
z
" transform="scale(0.015625)"/>
       <path id="DejaVuSans-Bold-6b" d="M 538 4863 
L 1656 4863 
L 1656 2216 
L 2944 3500 
L 4244 3500 
L 2534 1894 
L 4378 0 
L 3022 0 
L 1656 1459 
L 1656 0 
L 538 0 
L 538 4863 
z
" transform="scale(0.015625)"/>
      </defs>
      <use xlink:href="#DejaVuSans-Bold-42"/>
      <use xlink:href="#DejaVuSans-Bold-65" x="76.220703"/>
      <use xlink:href="#DejaVuSans-Bold-6e" x="144.042969"/>
      <use xlink:href="#DejaVuSans-Bold-63" x="215.234375"/>
      <use xlink:href="#DejaVuSans-Bold-68" x="274.511719"/>
      <use xlink:href="#DejaVuSans-Bold-6d" x="345.703125"/>
      <use xlink:href="#DejaVuSans-Bold-61" x="449.902344"/>
      <use xlink:href="#DejaVuSans-Bold-72" x="517.382812"/>
      <use xlink:href="#DejaVuSans-Bold-6b" x="566.699219"/>
     </g>
    </g>
   </g>
   <g id="matplotlib.axis_2">
    <g id="ytick_1">
     <g id="line2d_3">
      <path d="M 75.684219 503.98384 
L 982.054219 503.98384 
" clip-path="url(#p184988a376)" style="fill: none; stroke-dasharray: 3.7,1.6; stroke-dashoffset: 0; stroke: #adb5bd; stroke-opacity: 0.3"/>
     </g>
     <g id="line2d_4">
      <defs>
       <path id="m072ffacb96" d="M 0 0 
L -3.5 0 
" style="stroke: #000000; stroke-width: 0.8"/>
      </defs>
      <g>
       <use xlink:href="#m072ffacb96" x="75.684219" y="503.98384" style="stroke: #000000; stroke-width: 0.8"/>
      </g>
     </g>
     <g id="text_4">
      <!-- −0.20 -->
      <g transform="translate(25.717188 508.922824) scale(0.13 -0.13)">
       <defs>
        <path id="DejaVuSans-Bold-2212" d="M 678 2375 
L 4684 2375 
L 4684 1638 
L 678 1638 
L 678 2375 
z
" transform="scale(0.015625)"/>
        <path id="DejaVuSans-Bold-30" d="M 2944 2338 
Q 2944 3213 2780 3570 
Q 2616 3928 2228 3928 
Q 1841 3928 1675 3570 
Q 1509 3213 1509 2338 
Q 1509 1453 1675 1090 
Q 1841 728 2228 728 
Q 2613 728 2778 1090 
Q 2944 1453 2944 2338 
z
M 4147 2328 
Q 4147 1169 3647 539 
Q 3147 -91 2228 -91 
Q 1306 -91 806 539 
Q 306 1169 306 2328 
Q 306 3491 806 4120 
Q 1306 4750 2228 4750 
Q 3147 4750 3647 4120 
Q 4147 3491 4147 2328 
z
" transform="scale(0.015625)"/>
        <path id="DejaVuSans-Bold-2e" d="M 653 1209 
L 1778 1209 
L 1778 0 
L 653 0 
L 653 1209 
z
" transform="scale(0.015625)"/>
       </defs>
       <use xlink:href="#DejaVuSans-Bold-2212"/>
       <use xlink:href="#DejaVuSans-Bold-30" x="83.789062"/>
       <use xlink:href="#DejaVuSans-Bold-2e" x="153.369141"/>
       <use xlink:href="#DejaVuSans-Bold-32" x="191.357422"/>
       <use xlink:href="#DejaVuSans-Bold-30" x="260.9375"/>
      </g>
     </g>
    </g>
    <g id="ytick_2">
     <g id="line2d_5">
      <path d="M 75.684219 449.024087 
L 982.054219 449.024087 
" clip-path="url(#p184988a376)" style="fill: none; stroke-dasharray: 3.7,1.6; stroke-dashoffset: 0; stroke: #adb5bd; stroke-opacity: 0.3"/>
     </g>
     <g id="line2d_6">
      <g>
       <use xlink:href="#m072ffacb96" x="75.684219" y="449.024087" style="stroke: #000000; stroke-width: 0.8"/>
      </g>
     </g>
     <g id="text_5">
      <!-- −0.15 -->
      <g transform="translate(25.717188 453.963071) scale(0.13 -0.13)">
       <defs>
        <path id="DejaVuSans-Bold-31" d="M 750 831 
L 1813 831 
L 1813 3847 
L 722 3622 
L 722 4441 
L 1806 4666 
L 2950 4666 
L 2950 831 
L 4013 831 
L 4013 0 
L 750 0 
L 750 831 
z
" transform="scale(0.015625)"/>
        <path id="DejaVuSans-Bold-35" d="M 678 4666 
L 3669 4666 
L 3669 3781 
L 1638 3781 
L 1638 3059 
Q 1775 3097 1914 3117 
Q 2053 3138 2203 3138 
Q 3056 3138 3531 2711 
Q 4006 2284 4006 1522 
Q 4006 766 3489 337 
Q 2972 -91 2053 -91 
Q 1656 -91 1267 -14 
Q 878 63 494 219 
L 494 1166 
Q 875 947 1217 837 
Q 1559 728 1863 728 
Q 2300 728 2551 942 
Q 2803 1156 2803 1522 
Q 2803 1891 2551 2103 
Q 2300 2316 1863 2316 
Q 1603 2316 1309 2248 
Q 1016 2181 678 2041 
L 678 4666 
z
" transform="scale(0.015625)"/>
       </defs>
       <use xlink:href="#DejaVuSans-Bold-2212"/>
       <use xlink:href="#DejaVuSans-Bold-30" x="83.789062"/>
       <use xlink:href="#DejaVuSans-Bold-2e" x="153.369141"/>
       <use xlink:href="#DejaVuSans-Bold-31" x="191.357422"/>
       <use xlink:href="#DejaVuSans-Bold-35" x="260.9375"/>
      </g>
     </g>
    </g>
    <g id="ytick_3">
     <g id="line2d_7">
      <path d="M 75.684219 394.064334 
L 982.054219 394.064334 
" clip-path="url(#p184988a376)" style="fill: none; stroke-dasharray: 3.7,1.6; stroke-dashoffset: 0; stroke: #adb5bd; stroke-opacity: 0.3"/>
     </g>
     <g id="line2d_8">
      <g>
       <use xlink:href="#m072ffacb96" x="75.684219" y="394.064334" style="stroke: #000000; stroke-width: 0.8"/>
      </g>
     </g>
     <g id="text_6">
      <!-- −0.10 -->
      <g transform="translate(25.717188 399.003318) scale(0.13 -0.13)">
       <use xlink:href="#DejaVuSans-Bold-2212"/>
       <use xlink:href="#DejaVuSans-Bold-30" x="83.789062"/>
       <use xlink:href="#DejaVuSans-Bold-2e" x="153.369141"/>
       <use xlink:href="#DejaVuSans-Bold-31" x="191.357422"/>
       <use xlink:href="#DejaVuSans-Bold-30" x="260.9375"/>
      </g>
     </g>
    </g>
    <g id="ytick_4">
     <g id="line2d_9">
      <path d="M 75.684219 339.104581 
L 982.054219 339.104581 
" clip-path="url(#p184988a376)" style="fill: none; stroke-dasharray: 3.7,1.6; stroke-dashoffset: 0; stroke: #adb5bd; stroke-opacity: 0.3"/>
     </g>
     <g id="line2d_10">
      <g>
       <use xlink:href="#m072ffacb96" x="75.684219" y="339.104581" style="stroke: #000000; stroke-width: 0.8"/>
      </g>
     </g>
     <g id="text_7">
      <!-- −0.05 -->
      <g transform="translate(25.717188 344.043565) scale(0.13 -0.13)">
       <use xlink:href="#DejaVuSans-Bold-2212"/>
       <use xlink:href="#DejaVuSans-Bold-30" x="83.789062"/>
       <use xlink:href="#DejaVuSans-Bold-2e" x="153.369141"/>
       <use xlink:href="#DejaVuSans-Bold-30" x="191.357422"/>
       <use xlink:href="#DejaVuSans-Bold-35" x="260.9375"/>
      </g>
     </g>
    </g>
    <g id="ytick_5">
     <g id="line2d_11">
      <path d="M 75.684219 284.144828 
L 982.054219 284.144828 
" clip-path="url(#p184988a376)" style="fill: none; stroke-dasharray: 3.7,1.6; stroke-dashoffset: 0; stroke: #adb5bd; stroke-opacity: 0.3"/>
     </g>
     <g id="line2d_12">
      <g>
       <use xlink:href="#m072ffacb96" x="75.684219" y="284.144828" style="stroke: #000000; stroke-width: 0.8"/>
      </g>
     </g>
     <g id="text_8">
      <!-- 0.00 -->
      <g transform="translate(36.610781 289.083812) scale(0.13 -0.13)">
       <use xlink:href="#DejaVuSans-Bold-30"/>
       <use xlink:href="#DejaVuSans-Bold-2e" x="69.580078"/>
       <use xlink:href="#DejaVuSans-Bold-30" x="107.568359"/>
       <use xlink:href="#DejaVuSans-Bold-30" x="177.148438"/>
      </g>
     </g>
    </g>
    <g id="ytick_6">
     <g id="line2d_13">
      <path d="M 75.684219 229.185074 
L 982.054219 229.185074 
" clip-path="url(#p184988a376)" style="fill: none; stroke-dasharray: 3.7,1.6; stroke-dashoffset: 0; stroke: #adb5bd; stroke-opacity: 0.3"/>
     </g>
     <g id="line2d_14">
      <g>
       <use xlink:href="#m072ffacb96" x="75.684219" y="229.185074" style="stroke: #000000; stroke-width: 0.8"/>
      </g>
     </g>
     <g id="text_9">
      <!-- 0.05 -->
      <g transform="translate(36.610781 234.124059) scale(0.13 -0.13)">
       <use xlink:href="#DejaVuSans-Bold-30"/>
       <use xlink:href="#DejaVuSans-Bold-2e" x="69.580078"/>
       <use xlink:href="#DejaVuSans-Bold-30" x="107.568359"/>
       <use xlink:href="#DejaVuSans-Bold-35" x="177.148438"/>
      </g>
     </g>
    </g>
    <g id="ytick_7">
     <g id="line2d_15">
      <path d="M 75.684219 174.225321 
L 982.054219 174.225321 
" clip-path="url(#p184988a376)" style="fill: none; stroke-dasharray: 3.7,1.6; stroke-dashoffset: 0; stroke: #adb5bd; stroke-opacity: 0.3"/>
     </g>
     <g id="line2d_16">
      <g>
       <use xlink:href="#m072ffacb96" x="75.684219" y="174.225321" style="stroke: #000000; stroke-width: 0.8"/>
      </g>
     </g>
     <g id="text_10">
      <!-- 0.10 -->
      <g transform="translate(36.610781 179.164306) scale(0.13 -0.13)">
       <use xlink:href="#DejaVuSans-Bold-30"/>
       <use xlink:href="#DejaVuSans-Bold-2e" x="69.580078"/>
       <use xlink:href="#DejaVuSans-Bold-31" x="107.568359"/>
       <use xlink:href="#DejaVuSans-Bold-30" x="177.148438"/>
      </g>
     </g>
    </g>
    <g id="ytick_8">
     <g id="line2d_17">
      <path d="M 75.684219 119.265568 
L 982.054219 119.265568 
" clip-path="url(#p184988a376)" style="fill: none; stroke-dasharray: 3.7,1.6; stroke-dashoffset: 0; stroke: #adb5bd; stroke-opacity: 0.3"/>
     </g>
     <g id="line2d_18">
      <g>
       <use xlink:href="#m072ffacb96" x="75.684219" y="119.265568" style="stroke: #000000; stroke-width: 0.8"/>
      </g>
     </g>
     <g id="text_11">
      <!-- 0.15 -->
      <g transform="translate(36.610781 124.204553) scale(0.13 -0.13)">
       <use xlink:href="#DejaVuSans-Bold-30"/>
       <use xlink:href="#DejaVuSans-Bold-2e" x="69.580078"/>
       <use xlink:href="#DejaVuSans-Bold-31" x="107.568359"/>
       <use xlink:href="#DejaVuSans-Bold-35" x="177.148438"/>
      </g>
     </g>
    </g>
    <g id="ytick_9">
     <g id="line2d_19">
      <path d="M 75.684219 64.305815 
L 982.054219 64.305815 
" clip-path="url(#p184988a376)" style="fill: none; stroke-dasharray: 3.7,1.6; stroke-dashoffset: 0; stroke: #adb5bd; stroke-opacity: 0.3"/>
     </g>
     <g id="line2d_20">
      <g>
       <use xlink:href="#m072ffacb96" x="75.684219" y="64.305815" style="stroke: #000000; stroke-width: 0.8"/>
      </g>
     </g>
     <g id="text_12">
      <!-- 0.20 -->
      <g transform="translate(36.610781 69.2448) scale(0.13 -0.13)">
       <use xlink:href="#DejaVuSans-Bold-30"/>
       <use xlink:href="#DejaVuSans-Bold-2e" x="69.580078"/>
       <use xlink:href="#DejaVuSans-Bold-32" x="107.568359"/>
       <use xlink:href="#DejaVuSans-Bold-30" x="177.148438"/>
      </g>
     </g>
    </g>
    <g id="text_13">
     <!-- Spearman $\rho$ -->
     <g transform="translate(18.567187 328.187344) rotate(-90) scale(0.15 -0.15)">
      <defs>
       <path id="DejaVuSans-Bold-53" d="M 3834 4519 
L 3834 3531 
Q 3450 3703 3084 3790 
Q 2719 3878 2394 3878 
Q 1963 3878 1756 3759 
Q 1550 3641 1550 3391 
Q 1550 3203 1689 3098 
Q 1828 2994 2194 2919 
L 2706 2816 
Q 3484 2659 3812 2340 
Q 4141 2022 4141 1434 
Q 4141 663 3683 286 
Q 3225 -91 2284 -91 
Q 1841 -91 1394 -6 
Q 947 78 500 244 
L 500 1259 
Q 947 1022 1364 901 
Q 1781 781 2169 781 
Q 2563 781 2772 912 
Q 2981 1044 2981 1288 
Q 2981 1506 2839 1625 
Q 2697 1744 2272 1838 
L 1806 1941 
Q 1106 2091 782 2419 
Q 459 2747 459 3303 
Q 459 4000 909 4375 
Q 1359 4750 2203 4750 
Q 2588 4750 2994 4692 
Q 3400 4634 3834 4519 
z
" transform="scale(0.015625)"/>
       <path id="DejaVuSans-Bold-70" d="M 1656 506 
L 1656 -1331 
L 538 -1331 
L 538 3500 
L 1656 3500 
L 1656 2988 
Q 1888 3294 2169 3439 
Q 2450 3584 2816 3584 
Q 3463 3584 3878 3070 
Q 4294 2556 4294 1747 
Q 4294 938 3878 423 
Q 3463 -91 2816 -91 
Q 2450 -91 2169 54 
Q 1888 200 1656 506 
z
M 2400 2772 
Q 2041 2772 1848 2508 
Q 1656 2244 1656 1747 
Q 1656 1250 1848 986 
Q 2041 722 2400 722 
Q 2759 722 2948 984 
Q 3138 1247 3138 1747 
Q 3138 2247 2948 2509 
Q 2759 2772 2400 2772 
z
" transform="scale(0.015625)"/>
       <path id="DejaVuSans-Bold-20" transform="scale(0.015625)"/>
       <path id="DejaVuSans-BoldOblique-3c1" d="M 3741 425 
Q 3225 -91 2547 -91 
Q 1869 -91 1534 506 
L 1178 -1331 
L 59 -1331 
L 647 1688 
Q 816 2566 1344 2991 
Q 1869 3413 2275 3503 
Q 2681 3594 2928 3594 
Q 3178 3594 3294 3584 
Q 3894 3538 4256 3069 
Q 4472 2781 4472 2300 
Q 4472 2050 4413 1747 
Q 4256 938 3741 425 
z
M 3297 2119 
Q 3297 2772 2719 2772 
Q 2359 2772 2116 2506 
Q 1872 2244 1775 1747 
Q 1738 1544 1738 1344 
Q 1738 1144 1819 988 
Q 1963 722 2322 722 
Q 2681 722 2919 984 
Q 3159 1247 3256 1747 
Q 3297 1953 3297 2119 
z
" transform="scale(0.015625)"/>
      </defs>
      <use xlink:href="#DejaVuSans-Bold-53" transform="translate(0 0.78125)"/>
      <use xlink:href="#DejaVuSans-Bold-70" transform="translate(72.021484 0.78125)"/>
      <use xlink:href="#DejaVuSans-Bold-65" transform="translate(143.603516 0.78125)"/>
      <use xlink:href="#DejaVuSans-Bold-61" transform="translate(211.425781 0.78125)"/>
      <use xlink:href="#DejaVuSans-Bold-72" transform="translate(278.90625 0.78125)"/>
      <use xlink:href="#DejaVuSans-Bold-6d" transform="translate(328.222656 0.78125)"/>
      <use xlink:href="#DejaVuSans-Bold-61" transform="translate(432.421875 0.78125)"/>
      <use xlink:href="#DejaVuSans-Bold-6e" transform="translate(499.902344 0.78125)"/>
      <use xlink:href="#DejaVuSans-Bold-20" transform="translate(571.09375 0.78125)"/>
      <use xlink:href="#DejaVuSans-BoldOblique-3c1" transform="translate(605.908203 0.78125)"/>
     </g>
    </g>
   </g>
   <g id="LineCollection_1">
    <path d="M 162.659118 186.08916 
L 162.659118 108.364158 
" clip-path="url(#p184988a376)" style="fill: none; stroke: #2b2d42; stroke-opacity: 0.8; stroke-width: 2.5"/>
    <path d="M 620.421744 80.8847 
L 620.421744 61.682798 
" clip-path="url(#p184988a376)" style="fill: none; stroke: #2b2d42; stroke-opacity: 0.8; stroke-width: 2.5"/>
   </g>
   <g id="line2d_21">
    <defs>
     <path id="m8c2cdb2d2b" d="M 6 0 
L -6 -0 
" style="stroke: #2b2d42; stroke-opacity: 0.8"/>
    </defs>
    <g clip-path="url(#p184988a376)">
     <use xlink:href="#m8c2cdb2d2b" x="162.659118" y="186.08916" style="fill: #2b2d42; fill-opacity: 0.8; stroke: #2b2d42; stroke-opacity: 0.8"/>
     <use xlink:href="#m8c2cdb2d2b" x="620.421744" y="80.8847" style="fill: #2b2d42; fill-opacity: 0.8; stroke: #2b2d42; stroke-opacity: 0.8"/>
    </g>
   </g>
   <g id="line2d_22">
    <g clip-path="url(#p184988a376)">
     <use xlink:href="#m8c2cdb2d2b" x="162.659118" y="108.364158" style="fill: #2b2d42; fill-opacity: 0.8; stroke: #2b2d42; stroke-opacity: 0.8"/>
     <use xlink:href="#m8c2cdb2d2b" x="620.421744" y="61.682798" style="fill: #2b2d42; fill-opacity: 0.8; stroke: #2b2d42; stroke-opacity: 0.8"/>
    </g>
   </g>
   <g id="line2d_23">
    <path d="M 75.684219 284.144828 
L 982.054219 284.144828 
" clip-path="url(#p184988a376)" style="fill: none; stroke: #495057; stroke-opacity: 0.6; stroke-width: 1.5; stroke-linecap: square"/>
   </g>
   <g id="patch_11">
    <path d="M 75.684219 514.557344 
L 75.684219 40.117344 
" style="fill: none; stroke: #dee2e6; stroke-width: 1.5; stroke-linejoin: miter; stroke-linecap: square"/>
   </g>
   <g id="patch_12">
    <path d="M 982.054219 514.557344 
L 982.054219 40.117344 
" style="fill: none; stroke: #dee2e6; stroke-width: 1.5; stroke-linejoin: miter; stroke-linecap: square"/>
   </g>
   <g id="patch_13">
    <path d="M 75.684219 514.557344 
L 982.054219 514.557344 
" style="fill: none; stroke: #dee2e6; stroke-width: 1.5; stroke-linejoin: miter; stroke-linecap: square"/>
   </g>
   <g id="patch_14">
    <path d="M 75.684219 40.117344 
L 982.054219 40.117344 
" style="fill: none; stroke: #dee2e6; stroke-width: 1.5; stroke-linejoin: miter; stroke-linecap: square"/>
   </g>
   <g id="text_14">
    <!-- Performance Comparison on Protein Fitness Prediction Benchmarks -->
    <g transform="translate(203.304609 20.117344) scale(0.17 -0.17)">
     <defs>
      <path id="DejaVuSans-Bold-66" d="M 2841 4863 
L 2841 4128 
L 2222 4128 
Q 1984 4128 1890 4042 
Q 1797 3956 1797 3744 
L 1797 3500 
L 2753 3500 
L 2753 2700 
L 1797 2700 
L 1797 0 
L 678 0 
L 678 2700 
L 122 2700 
L 122 3500 
L 678 3500 
L 678 3744 
Q 678 4316 997 4589 
Q 1316 4863 1984 4863 
L 2841 4863 
z
" transform="scale(0.015625)"/>
      <path id="DejaVuSans-Bold-6f" d="M 2203 2784 
Q 1831 2784 1636 2517 
Q 1441 2250 1441 1747 
Q 1441 1244 1636 976 
Q 1831 709 2203 709 
Q 2569 709 2762 976 
Q 2956 1244 2956 1747 
Q 2956 2250 2762 2517 
Q 2569 2784 2203 2784 
z
M 2203 3584 
Q 3106 3584 3614 3096 
Q 4122 2609 4122 1747 
Q 4122 884 3614 396 
Q 3106 -91 2203 -91 
Q 1297 -91 786 396 
Q 275 884 275 1747 
Q 275 2609 786 3096 
Q 1297 3584 2203 3584 
z
" transform="scale(0.015625)"/>
      <path id="DejaVuSans-Bold-69" d="M 538 3500 
L 1656 3500 
L 1656 0 
L 538 0 
L 538 3500 
z
M 538 4863 
L 1656 4863 
L 1656 3950 
L 538 3950 
L 538 4863 
z
" transform="scale(0.015625)"/>
      <path id="DejaVuSans-Bold-73" d="M 3272 3391 
L 3272 2541 
Q 2913 2691 2578 2766 
Q 2244 2841 1947 2841 
Q 1628 2841 1473 2761 
Q 1319 2681 1319 2516 
Q 1319 2381 1436 2309 
Q 1553 2238 1856 2203 
L 2053 2175 
Q 2913 2066 3209 1816 
Q 3506 1566 3506 1031 
Q 3506 472 3093 190 
Q 2681 -91 1863 -91 
Q 1516 -91 1145 -36 
Q 775 19 384 128 
L 384 978 
Q 719 816 1070 734 
Q 1422 653 1784 653 
Q 2113 653 2278 743 
Q 2444 834 2444 1013 
Q 2444 1163 2330 1236 
Q 2216 1309 1875 1350 
L 1678 1375 
Q 931 1469 631 1722 
Q 331 1975 331 2491 
Q 331 3047 712 3315 
Q 1094 3584 1881 3584 
Q 2191 3584 2531 3537 
Q 2872 3491 3272 3391 
z
" transform="scale(0.015625)"/>
      <path id="DejaVuSans-Bold-74" d="M 1759 4494 
L 1759 3500 
L 2913 3500 
L 2913 2700 
L 1759 2700 
L 1759 1216 
Q 1759 972 1856 886 
Q 1953 800 2241 800 
L 2816 800 
L 2816 0 
L 1856 0 
Q 1194 0 917 276 
Q 641 553 641 1216 
L 641 2700 
L 84 2700 
L 84 3500 
L 641 3500 
L 641 4494 
L 1759 4494 
z
" transform="scale(0.015625)"/>
      <path id="DejaVuSans-Bold-46" d="M 588 4666 
L 3834 4666 
L 3834 3756 
L 1791 3756 
L 1791 2888 
L 3713 2888 
L 3713 1978 
L 1791 1978 
L 1791 0 
L 588 0 
L 588 4666 
z
" transform="scale(0.015625)"/>
      <path id="DejaVuSans-Bold-64" d="M 2919 2988 
L 2919 4863 
L 4044 4863 
L 4044 0 
L 2919 0 
L 2919 506 
Q 2688 197 2409 53 
Q 2131 -91 1766 -91 
Q 1119 -91 703 423 
Q 288 938 288 1747 
Q 288 2556 703 3070 
Q 1119 3584 1766 3584 
Q 2128 3584 2408 3439 
Q 2688 3294 2919 2988 
z
M 2181 722 
Q 2541 722 2730 984 
Q 2919 1247 2919 1747 
Q 2919 2247 2730 2509 
Q 2541 2772 2181 2772 
Q 1825 2772 1636 2509 
Q 1447 2247 1447 1747 
Q 1447 1247 1636 984 
Q 1825 722 2181 722 
z
" transform="scale(0.015625)"/>
     </defs>
     <use xlink:href="#DejaVuSans-Bold-50"/>
     <use xlink:href="#DejaVuSans-Bold-65" x="73.291016"/>
     <use xlink:href="#DejaVuSans-Bold-72" x="141.113281"/>
     <use xlink:href="#DejaVuSans-Bold-66" x="190.429688"/>
     <use xlink:href="#DejaVuSans-Bold-6f" x="233.935547"/>
     <use xlink:href="#DejaVuSans-Bold-72" x="302.636719"/>
     <use xlink:href="#DejaVuSans-Bold-6d" x="351.953125"/>
     <use xlink:href="#DejaVuSans-Bold-61" x="456.152344"/>
     <use xlink:href="#DejaVuSans-Bold-6e" x="523.632812"/>
     <use xlink:href="#DejaVuSans-Bold-63" x="594.824219"/>
     <use xlink:href="#DejaVuSans-Bold-65" x="654.101562"/>
     <use xlink:href="#DejaVuSans-Bold-20" x="721.923828"/>
     <use xlink:href="#DejaVuSans-Bold-43" x="756.738281"/>
     <use xlink:href="#DejaVuSans-Bold-6f" x="830.126953"/>
     <use xlink:href="#DejaVuSans-Bold-6d" x="898.828125"/>
     <use xlink:href="#DejaVuSans-Bold-70" x="1003.027344"/>
     <use xlink:href="#DejaVuSans-Bold-61" x="1074.609375"/>
     <use xlink:href="#DejaVuSans-Bold-72" x="1142.089844"/>
     <use xlink:href="#DejaVuSans-Bold-69" x="1191.40625"/>
     <use xlink:href="#DejaVuSans-Bold-73" x="1225.683594"/>
     <use xlink:href="#DejaVuSans-Bold-6f" x="1285.205078"/>
     <use xlink:href="#DejaVuSans-Bold-6e" x="1353.90625"/>
     <use xlink:href="#DejaVuSans-Bold-20" x="1425.097656"/>
     <use xlink:href="#DejaVuSans-Bold-6f" x="1459.912109"/>
     <use xlink:href="#DejaVuSans-Bold-6e" x="1528.613281"/>
     <use xlink:href="#DejaVuSans-Bold-20" x="1599.804688"/>
     <use xlink:href="#DejaVuSans-Bold-50" x="1634.619141"/>
     <use xlink:href="#DejaVuSans-Bold-72" x="1707.910156"/>
     <use xlink:href="#DejaVuSans-Bold-6f" x="1757.226562"/>
     <use xlink:href="#DejaVuSans-Bold-74" x="1825.927734"/>
     <use xlink:href="#DejaVuSans-Bold-65" x="1873.730469"/>
     <use xlink:href="#DejaVuSans-Bold-69" x="1941.552734"/>
     <use xlink:href="#DejaVuSans-Bold-6e" x="1975.830078"/>
     <use xlink:href="#DejaVuSans-Bold-20" x="2047.021484"/>
     <use xlink:href="#DejaVuSans-Bold-46" x="2081.835938"/>
     <use xlink:href="#DejaVuSans-Bold-69" x="2150.146484"/>
     <use xlink:href="#DejaVuSans-Bold-74" x="2184.423828"/>
     <use xlink:href="#DejaVuSans-Bold-6e" x="2232.226562"/>
     <use xlink:href="#DejaVuSans-Bold-65" x="2303.417969"/>
     <use xlink:href="#DejaVuSans-Bold-73" x="2371.240234"/>
     <use xlink:href="#DejaVuSans-Bold-73" x="2430.761719"/>
     <use xlink:href="#DejaVuSans-Bold-20" x="2490.283203"/>
     <use xlink:href="#DejaVuSans-Bold-50" x="2525.097656"/>
     <use xlink:href="#DejaVuSans-Bold-72" x="2598.388672"/>
     <use xlink:href="#DejaVuSans-Bold-65" x="2647.705078"/>
     <use xlink:href="#DejaVuSans-Bold-64" x="2715.527344"/>
     <use xlink:href="#DejaVuSans-Bold-69" x="2787.109375"/>
     <use xlink:href="#DejaVuSans-Bold-63" x="2821.386719"/>
     <use xlink:href="#DejaVuSans-Bold-74" x="2880.664062"/>
     <use xlink:href="#DejaVuSans-Bold-69" x="2928.466797"/>
     <use xlink:href="#DejaVuSans-Bold-6f" x="2962.744141"/>
     <use xlink:href="#DejaVuSans-Bold-6e" x="3031.445312"/>
     <use xlink:href="#DejaVuSans-Bold-20" x="3102.636719"/>
     <use xlink:href="#DejaVuSans-Bold-42" x="3137.451172"/>
     <use xlink:href="#DejaVuSans-Bold-65" x="3213.671875"/>
     <use xlink:href="#DejaVuSans-Bold-6e" x="3281.494141"/>
     <use xlink:href="#DejaVuSans-Bold-63" x="3352.685547"/>
     <use xlink:href="#DejaVuSans-Bold-68" x="3411.962891"/>
     <use xlink:href="#DejaVuSans-Bold-6d" x="3483.154297"/>
     <use xlink:href="#DejaVuSans-Bold-61" x="3587.353516"/>
     <use xlink:href="#DejaVuSans-Bold-72" x="3654.833984"/>
     <use xlink:href="#DejaVuSans-Bold-6b" x="3704.150391"/>
     <use xlink:href="#DejaVuSans-Bold-73" x="3770.654297"/>
    </g>
   </g>
   <g id="legend_1">
    <g id="patch_15">
     <path d="M 799.998594 128.843594 
L 974.954219 128.843594 
Q 977.554219 128.843594 977.554219 126.243594 
L 977.554219 51.217344 
Q 977.554219 48.617344 974.954219 48.617344 
L 799.998594 48.617344 
Q 797.398594 48.617344 797.398594 51.217344 
L 797.398594 126.243594 
Q 797.398594 128.843594 799.998594 128.843594 
z
" style="fill: #4c4c4c; opacity: 0.5; stroke: #4c4c4c; stroke-linejoin: miter"/>
    </g>
    <g id="patch_16">
     <path d="M 797.998594 126.843594 
L 972.954219 126.843594 
Q 975.554219 126.843594 975.554219 124.243594 
L 975.554219 49.217344 
Q 975.554219 46.617344 972.954219 46.617344 
L 797.998594 46.617344 
Q 795.398594 46.617344 795.398594 49.217344 
L 795.398594 124.243594 
Q 795.398594 126.843594 797.998594 126.843594 
z
" style="fill: #ffffff; opacity: 0.95; stroke: #cccccc; stroke-linejoin: miter"/>
    </g>
    <g id="patch_17">
     <path d="M 800.598594 61.695312 
L 826.598594 61.695312 
L 826.598594 52.595312 
L 800.598594 52.595312 
z
" style="fill: #e63946; opacity: 0.9; stroke: #ffffff; stroke-width: 2; stroke-linejoin: miter"/>
    </g>
    <g id="text_15">
     <!-- UNAAGI -->
     <g transform="translate(836.998594 61.695312) scale(0.13 -0.13)">
      <defs>
       <path id="DejaVuSans-Bold-4e" d="M 588 4666 
L 1931 4666 
L 3628 1466 
L 3628 4666 
L 4769 4666 
L 4769 0 
L 3425 0 
L 1728 3200 
L 1728 0 
L 588 0 
L 588 4666 
z
" transform="scale(0.015625)"/>
       <path id="DejaVuSans-Bold-47" d="M 4781 347 
Q 4331 128 3847 18 
Q 3363 -91 2847 -91 
Q 1681 -91 1000 561 
Q 319 1213 319 2328 
Q 319 3456 1012 4103 
Q 1706 4750 2913 4750 
Q 3378 4750 3804 4662 
Q 4231 4575 4609 4403 
L 4609 3438 
Q 4219 3659 3833 3768 
Q 3447 3878 3059 3878 
Q 2341 3878 1952 3476 
Q 1563 3075 1563 2328 
Q 1563 1588 1938 1184 
Q 2313 781 3003 781 
Q 3191 781 3352 804 
Q 3513 828 3641 878 
L 3641 1784 
L 2906 1784 
L 2906 2591 
L 4781 2591 
L 4781 347 
z
" transform="scale(0.015625)"/>
       <path id="DejaVuSans-Bold-49" d="M 588 4666 
L 1791 4666 
L 1791 0 
L 588 0 
L 588 4666 
z
" transform="scale(0.015625)"/>
      </defs>
      <use xlink:href="#DejaVuSans-Bold-55"/>
      <use xlink:href="#DejaVuSans-Bold-4e" x="81.201172"/>
      <use xlink:href="#DejaVuSans-Bold-41" x="164.892578"/>
      <use xlink:href="#DejaVuSans-Bold-41" x="242.285156"/>
      <use xlink:href="#DejaVuSans-Bold-47" x="319.677734"/>
      <use xlink:href="#DejaVuSans-Bold-49" x="401.757812"/>
     </g>
    </g>
    <g id="patch_18">
     <path d="M 800.598594 80.776875 
L 826.598594 80.776875 
L 826.598594 71.676875 
L 800.598594 71.676875 
z
" style="fill: #457b9d; opacity: 0.9; stroke: #ffffff; stroke-width: 2; stroke-linejoin: miter"/>
    </g>
    <g id="text_16">
     <!-- PepINVENT -->
     <g transform="translate(836.998594 80.776875) scale(0.13 -0.13)">
      <defs>
       <path id="DejaVuSans-Bold-56" d="M 31 4666 
L 1241 4666 
L 2478 1222 
L 3713 4666 
L 4922 4666 
L 3194 0 
L 1759 0 
L 31 4666 
z
" transform="scale(0.015625)"/>
       <path id="DejaVuSans-Bold-45" d="M 588 4666 
L 3834 4666 
L 3834 3756 
L 1791 3756 
L 1791 2888 
L 3713 2888 
L 3713 1978 
L 1791 1978 
L 1791 909 
L 3903 909 
L 3903 0 
L 588 0 
L 588 4666 
z
" transform="scale(0.015625)"/>
       <path id="DejaVuSans-Bold-54" d="M 31 4666 
L 4331 4666 
L 4331 3756 
L 2784 3756 
L 2784 0 
L 1581 0 
L 1581 3756 
L 31 3756 
L 31 4666 
z
" transform="scale(0.015625)"/>
      </defs>
      <use xlink:href="#DejaVuSans-Bold-50"/>
      <use xlink:href="#DejaVuSans-Bold-65" x="73.291016"/>
      <use xlink:href="#DejaVuSans-Bold-70" x="141.113281"/>
      <use xlink:href="#DejaVuSans-Bold-49" x="212.695312"/>
      <use xlink:href="#DejaVuSans-Bold-4e" x="249.902344"/>
      <use xlink:href="#DejaVuSans-Bold-56" x="333.59375"/>
      <use xlink:href="#DejaVuSans-Bold-45" x="410.986328"/>
      <use xlink:href="#DejaVuSans-Bold-4e" x="479.296875"/>
      <use xlink:href="#DejaVuSans-Bold-54" x="562.988281"/>
     </g>
    </g>
    <g id="patch_19">
     <path d="M 800.598594 99.858437 
L 826.598594 99.858437 
L 826.598594 90.758437 
L 800.598594 90.758437 
z
" style="fill: #2a9d8f; opacity: 0.9; stroke: #ffffff; stroke-width: 2; stroke-linejoin: miter"/>
    </g>
    <g id="text_17">
     <!-- NCFlow(AEV-PLIG) -->
     <g transform="translate(836.998594 99.858437) scale(0.13 -0.13)">
      <defs>
       <path id="DejaVuSans-Bold-6c" d="M 538 4863 
L 1656 4863 
L 1656 0 
L 538 0 
L 538 4863 
z
" transform="scale(0.015625)"/>
       <path id="DejaVuSans-Bold-77" d="M 225 3500 
L 1313 3500 
L 1900 1088 
L 2491 3500 
L 3425 3500 
L 4013 1113 
L 4603 3500 
L 5691 3500 
L 4769 0 
L 3547 0 
L 2956 2406 
L 2369 0 
L 1147 0 
L 225 3500 
z
" transform="scale(0.015625)"/>
       <path id="DejaVuSans-Bold-28" d="M 2413 -844 
L 1484 -844 
Q 1006 -72 778 623 
Q 550 1319 550 2003 
Q 550 2688 779 3389 
Q 1009 4091 1484 4856 
L 2413 4856 
Q 2013 4116 1813 3408 
Q 1613 2700 1613 2009 
Q 1613 1319 1811 609 
Q 2009 -100 2413 -844 
z
" transform="scale(0.015625)"/>
       <path id="DejaVuSans-Bold-2d" d="M 347 2297 
L 2309 2297 
L 2309 1388 
L 347 1388 
L 347 2297 
z
" transform="scale(0.015625)"/>
       <path id="DejaVuSans-Bold-4c" d="M 588 4666 
L 1791 4666 
L 1791 909 
L 3903 909 
L 3903 0 
L 588 0 
L 588 4666 
z
" transform="scale(0.015625)"/>
       <path id="DejaVuSans-Bold-29" d="M 513 -844 
Q 913 -100 1113 609 
Q 1313 1319 1313 2009 
Q 1313 2700 1113 3408 
Q 913 4116 513 4856 
L 1441 4856 
Q 1916 4091 2145 3389 
Q 2375 2688 2375 2003 
Q 2375 1319 2147 623 
Q 1919 -72 1441 -844 
L 513 -844 
z
" transform="scale(0.015625)"/>
      </defs>
      <use xlink:href="#DejaVuSans-Bold-4e"/>
      <use xlink:href="#DejaVuSans-Bold-43" x="83.691406"/>
      <use xlink:href="#DejaVuSans-Bold-46" x="157.080078"/>
      <use xlink:href="#DejaVuSans-Bold-6c" x="225.390625"/>
      <use xlink:href="#DejaVuSans-Bold-6f" x="259.667969"/>
      <use xlink:href="#DejaVuSans-Bold-77" x="328.369141"/>
      <use xlink:href="#DejaVuSans-Bold-28" x="420.751953"/>
      <use xlink:href="#DejaVuSans-Bold-41" x="466.455078"/>
      <use xlink:href="#DejaVuSans-Bold-45" x="543.847656"/>
      <use xlink:href="#DejaVuSans-Bold-56" x="612.158203"/>
      <use xlink:href="#DejaVuSans-Bold-2d" x="682.300781"/>
      <use xlink:href="#DejaVuSans-Bold-50" x="723.804688"/>
      <use xlink:href="#DejaVuSans-Bold-4c" x="797.095703"/>
      <use xlink:href="#DejaVuSans-Bold-49" x="860.816406"/>
      <use xlink:href="#DejaVuSans-Bold-47" x="898.023438"/>
      <use xlink:href="#DejaVuSans-Bold-29" x="980.103516"/>
     </g>
    </g>
    <g id="patch_20">
     <path d="M 800.598594 118.94 
L 826.598594 118.94 
L 826.598594 109.84 
L 800.598594 109.84 
z
" style="fill: #f4a261; opacity: 0.9; stroke: #ffffff; stroke-width: 2; stroke-linejoin: miter"/>
    </g>
    <g id="text_18">
     <!-- NCFlow(ATM) -->
     <g transform="translate(836.998594 118.94) scale(0.13 -0.13)">
      <use xlink:href="#DejaVuSans-Bold-4e"/>
      <use xlink:href="#DejaVuSans-Bold-43" x="83.691406"/>
      <use xlink:href="#DejaVuSans-Bold-46" x="157.080078"/>
      <use xlink:href="#DejaVuSans-Bold-6c" x="225.390625"/>
      <use xlink:href="#DejaVuSans-Bold-6f" x="259.667969"/>
      <use xlink:href="#DejaVuSans-Bold-77" x="328.369141"/>
      <use xlink:href="#DejaVuSans-Bold-28" x="420.751953"/>
      <use xlink:href="#DejaVuSans-Bold-41" x="466.455078"/>
      <use xlink:href="#DejaVuSans-Bold-54" x="536.097656"/>
      <use xlink:href="#DejaVuSans-Bold-4d" x="604.310547"/>
      <use xlink:href="#DejaVuSans-Bold-29" x="703.822266"/>
     </g>
    </g>
   </g>
  </g>
 </g>
 <defs>
  <clipPath id="p184988a376">
   <rect x="75.684219" y="40.117344" width="906.37" height="474.44"/>
  </clipPath>
 </defs>
</svg>
