<?xml version="1.0" encoding="utf-8" standalone="no"?>
<!DOCTYPE svg PUBLIC "-//W3C//DTD SVG 1.1//EN"
  "http://www.w3.org/Graphics/SVG/1.1/DTD/svg11.dtd">
<svg xmlns:xlink="http://www.w3.org/1999/xlink" width="1782.764102pt" height="698.2625pt" viewBox="0 0 1782.764102 698.2625" xmlns="http://www.w3.org/2000/svg" version="1.1">
 <metadata>
  <rdf:RDF xmlns:dc="http://purl.org/dc/elements/1.1/" xmlns:cc="http://creativecommons.org/ns#" xmlns:rdf="http://www.w3.org/1999/02/22-rdf-syntax-ns#">
   <cc:Work>
    <dc:type rdf:resource="http://purl.org/dc/dcmitype/StillImage"/>
    <dc:date>2025-09-25T02:59:22.019597</dc:date>
    <dc:format>image/svg+xml</dc:format>
    <dc:creator>
     <cc:Agent>
      <dc:title>Matplotlib v3.7.2, https://matplotlib.org/</dc:title>
     </cc:Agent>
    </dc:creator>
   </cc:Work>
  </rdf:RDF>
 </metadata>
 <defs>
  <style type="text/css">*{stroke-linejoin: round; stroke-linecap: butt}</style>
 </defs>
 <g id="figure_1">
  <g id="patch_1">
   <path d="M 0 698.2625 
L 1782.764102 698.2625 
L 1782.764102 0 
L 0 0 
z
" style="fill: #ffffff"/>
  </g>
  <g id="axes_1">
   <g id="patch_2">
    <path d="M 77.370625 647.156875 
L 773.18108 647.156875 
L 773.18108 28.396875 
L 77.370625 28.396875 
z
" style="fill: #ffffff"/>
   </g>
   <g id="PathCollection_1">
    <defs>
     <path id="C0_0_5dc4ff26d9" d="M 0 4.472136 
C 1.186024 4.472136 2.323632 4.000923 3.162278 3.162278 
C 4.000923 2.323632 4.472136 1.186024 4.472136 -0 
C 4.472136 -1.186024 4.000923 -2.323632 3.162278 -3.162278 
C 2.323632 -4.000923 1.186024 -4.472136 0 -4.472136 
C -1.186024 -4.472136 -2.323632 -4.000923 -3.162278 -3.162278 
C -4.000923 -2.323632 -4.472136 -1.186024 -4.472136 0 
C -4.472136 1.186024 -4.000923 2.323632 -3.162278 3.162278 
C -2.323632 4.000923 -1.186024 4.472136 0 4.472136 
z
"/>
    </defs>
    <g clip-path="url(#pf173b5121c)">
     <use xlink:href="#C0_0_5dc4ff26d9" x="272.26073" y="619.03142" style="fill: #1f77b4; stroke: #ffffff; stroke-width: 0.715542"/>
    </g>
    <g clip-path="url(#pf173b5121c)">
     <use xlink:href="#C0_0_5dc4ff26d9" x="108.998373" y="597.396455" style="fill: #1f77b4; stroke: #ffffff; stroke-width: 0.715542"/>
    </g>
    <g clip-path="url(#pf173b5121c)">
     <use xlink:href="#C0_0_5dc4ff26d9" x="272.26073" y="400.277885" style="fill: #1f77b4; stroke: #ffffff; stroke-width: 0.715542"/>
    </g>
    <g clip-path="url(#pf173b5121c)">
     <use xlink:href="#C0_0_5dc4ff26d9" x="392.579469" y="337.776875" style="fill: #ff7f0e; stroke: #ffffff; stroke-width: 0.715542"/>
    </g>
    <g clip-path="url(#pf173b5121c)">
     <use xlink:href="#C0_0_5dc4ff26d9" x="651.344182" y="489.22163" style="fill: #2ca02c; stroke: #ffffff; stroke-width: 0.715542"/>
    </g>
    <g clip-path="url(#pf173b5121c)">
     <use xlink:href="#C0_0_5dc4ff26d9" x="392.579469" y="546.91487" style="fill: #2ca02c; stroke: #ffffff; stroke-width: 0.715542"/>
    </g>
    <g clip-path="url(#pf173b5121c)">
     <use xlink:href="#C0_0_5dc4ff26d9" x="471.831397" y="431.52839" style="fill: #1f77b4; stroke: #ffffff; stroke-width: 0.715542"/>
    </g>
    <g clip-path="url(#pf173b5121c)">
     <use xlink:href="#C0_0_5dc4ff26d9" x="415.028618" y="150.273845" style="fill: #d62728; stroke: #ffffff; stroke-width: 0.715542"/>
    </g>
    <g clip-path="url(#pf173b5121c)">
     <use xlink:href="#C0_0_5dc4ff26d9" x="719.104182" y="56.52233" style="fill: #9467bd; stroke: #ffffff; stroke-width: 0.715542"/>
    </g>
    <g clip-path="url(#pf173b5121c)">
     <use xlink:href="#C0_0_5dc4ff26d9" x="719.104182" y="438.740045" style="fill: #9467bd; stroke: #ffffff; stroke-width: 0.715542"/>
    </g>
    <g clip-path="url(#pf173b5121c)">
     <use xlink:href="#C0_0_5dc4ff26d9" x="471.831397" y="299.314715" style="fill: #8c564b; stroke: #ffffff; stroke-width: 0.715542"/>
    </g>
    <g clip-path="url(#pf173b5121c)">
     <use xlink:href="#C0_0_5dc4ff26d9" x="503.283086" y="426.72062" style="fill: #8c564b; stroke: #ffffff; stroke-width: 0.715542"/>
    </g>
    <g clip-path="url(#pf173b5121c)">
     <use xlink:href="#C0_0_5dc4ff26d9" x="503.283086" y="546.91487" style="fill: #e377c2; stroke: #ffffff; stroke-width: 0.715542"/>
    </g>
    <g clip-path="url(#pf173b5121c)">
     <use xlink:href="#C0_0_5dc4ff26d9" x="503.283086" y="477.202205" style="fill: #e377c2; stroke: #ffffff; stroke-width: 0.715542"/>
    </g>
    <g clip-path="url(#pf173b5121c)">
     <use xlink:href="#C0_0_5dc4ff26d9" x="588.761045" y="453.163355" style="fill: #9467bd; stroke: #ffffff; stroke-width: 0.715542"/>
    </g>
    <g clip-path="url(#pf173b5121c)">
     <use xlink:href="#C0_0_5dc4ff26d9" x="741.553332" y="354.60407" style="fill: #2ca02c; stroke: #ffffff; stroke-width: 0.715542"/>
    </g>
    <g clip-path="url(#pf173b5121c)">
     <use xlink:href="#C0_0_5dc4ff26d9" x="503.283086" y="462.778895" style="fill: #7f7f7f; stroke: #ffffff; stroke-width: 0.715542"/>
    </g>
    <g clip-path="url(#pf173b5121c)">
     <use xlink:href="#C0_0_5dc4ff26d9" x="598.785443" y="405.085655" style="fill: #8c564b; stroke: #ffffff; stroke-width: 0.715542"/>
    </g>
    <g clip-path="url(#pf173b5121c)">
     <use xlink:href="#C0_0_5dc4ff26d9" x="435.523086" y="429.124505" style="fill: #8c564b; stroke: #ffffff; stroke-width: 0.715542"/>
    </g>
   </g>
   <g id="matplotlib.axis_1">
    <g id="xtick_1">
     <g id="line2d_1">
      <defs>
       <path id="m77a51f8fd5" d="M 0 0 
L 0 3.5 
" style="stroke: #000000; stroke-width: 0.8"/>
      </defs>
      <g>
       <use xlink:href="#m77a51f8fd5" x="131.264913" y="647.156875" style="stroke: #000000; stroke-width: 0.8"/>
      </g>
     </g>
     <g id="text_1">
      <!-- 0.5 -->
      <g transform="translate(117.093663 666.314375) scale(0.16 -0.16)">
       <defs>
        <path id="DejaVuSans-Bold-30" d="M 2944 2338 
Q 2944 3213 2780 3570 
Q 2616 3928 2228 3928 
Q 1841 3928 1675 3570 
Q 1509 3213 1509 2338 
Q 1509 1453 1675 1090 
Q 1841 728 2228 728 
Q 2613 728 2778 1090 
Q 2944 1453 2944 2338 
z
M 4147 2328 
Q 4147 1169 3647 539 
Q 3147 -91 2228 -91 
Q 1306 -91 806 539 
Q 306 1169 306 2328 
Q 306 3491 806 4120 
Q 1306 4750 2228 4750 
Q 3147 4750 3647 4120 
Q 4147 3491 4147 2328 
z
" transform="scale(0.015625)"/>
        <path id="DejaVuSans-Bold-2e" d="M 653 1209 
L 1778 1209 
L 1778 0 
L 653 0 
L 653 1209 
z
" transform="scale(0.015625)"/>
        <path id="DejaVuSans-Bold-35" d="M 678 4666 
L 3669 4666 
L 3669 3781 
L 1638 3781 
L 1638 3059 
Q 1775 3097 1914 3117 
Q 2053 3138 2203 3138 
Q 3056 3138 3531 2711 
Q 4006 2284 4006 1522 
Q 4006 766 3489 337 
Q 2972 -91 2053 -91 
Q 1656 -91 1267 -14 
Q 878 63 494 219 
L 494 1166 
Q 875 947 1217 837 
Q 1559 728 1863 728 
Q 2300 728 2551 942 
Q 2803 1156 2803 1522 
Q 2803 1891 2551 2103 
Q 2300 2316 1863 2316 
Q 1603 2316 1309 2248 
Q 1016 2181 678 2041 
L 678 4666 
z
" transform="scale(0.015625)"/>
       </defs>
       <use xlink:href="#DejaVuSans-Bold-30"/>
       <use xlink:href="#DejaVuSans-Bold-2e" x="69.580078"/>
       <use xlink:href="#DejaVuSans-Bold-35" x="107.568359"/>
      </g>
     </g>
    </g>
    <g id="xtick_2">
     <g id="line2d_2">
      <g>
       <use xlink:href="#m77a51f8fd5" x="249.033809" y="647.156875" style="stroke: #000000; stroke-width: 0.8"/>
      </g>
     </g>
     <g id="text_2">
      <!-- 1.0 -->
      <g transform="translate(234.862559 666.314375) scale(0.16 -0.16)">
       <defs>
        <path id="DejaVuSans-Bold-31" d="M 750 831 
L 1813 831 
L 1813 3847 
L 722 3622 
L 722 4441 
L 1806 4666 
L 2950 4666 
L 2950 831 
L 4013 831 
L 4013 0 
L 750 0 
L 750 831 
z
" transform="scale(0.015625)"/>
       </defs>
       <use xlink:href="#DejaVuSans-Bold-31"/>
       <use xlink:href="#DejaVuSans-Bold-2e" x="69.580078"/>
       <use xlink:href="#DejaVuSans-Bold-30" x="107.568359"/>
      </g>
     </g>
    </g>
    <g id="xtick_3">
     <g id="line2d_3">
      <g>
       <use xlink:href="#m77a51f8fd5" x="366.802705" y="647.156875" style="stroke: #000000; stroke-width: 0.8"/>
      </g>
     </g>
     <g id="text_3">
      <!-- 1.5 -->
      <g transform="translate(352.631455 666.314375) scale(0.16 -0.16)">
       <use xlink:href="#DejaVuSans-Bold-31"/>
       <use xlink:href="#DejaVuSans-Bold-2e" x="69.580078"/>
       <use xlink:href="#DejaVuSans-Bold-35" x="107.568359"/>
      </g>
     </g>
    </g>
    <g id="xtick_4">
     <g id="line2d_4">
      <g>
       <use xlink:href="#m77a51f8fd5" x="484.571601" y="647.156875" style="stroke: #000000; stroke-width: 0.8"/>
      </g>
     </g>
     <g id="text_4">
      <!-- 2.0 -->
      <g transform="translate(470.400351 666.314375) scale(0.16 -0.16)">
       <defs>
        <path id="DejaVuSans-Bold-32" d="M 1844 884 
L 3897 884 
L 3897 0 
L 506 0 
L 506 884 
L 2209 2388 
Q 2438 2594 2547 2791 
Q 2656 2988 2656 3200 
Q 2656 3528 2436 3728 
Q 2216 3928 1850 3928 
Q 1569 3928 1234 3808 
Q 900 3688 519 3450 
L 519 4475 
Q 925 4609 1322 4679 
Q 1719 4750 2100 4750 
Q 2938 4750 3402 4381 
Q 3866 4013 3866 3353 
Q 3866 2972 3669 2642 
Q 3472 2313 2841 1759 
L 1844 884 
z
" transform="scale(0.015625)"/>
       </defs>
       <use xlink:href="#DejaVuSans-Bold-32"/>
       <use xlink:href="#DejaVuSans-Bold-2e" x="69.580078"/>
       <use xlink:href="#DejaVuSans-Bold-30" x="107.568359"/>
      </g>
     </g>
    </g>
    <g id="xtick_5">
     <g id="line2d_5">
      <g>
       <use xlink:href="#m77a51f8fd5" x="602.340497" y="647.156875" style="stroke: #000000; stroke-width: 0.8"/>
      </g>
     </g>
     <g id="text_5">
      <!-- 2.5 -->
      <g transform="translate(588.169247 666.314375) scale(0.16 -0.16)">
       <use xlink:href="#DejaVuSans-Bold-32"/>
       <use xlink:href="#DejaVuSans-Bold-2e" x="69.580078"/>
       <use xlink:href="#DejaVuSans-Bold-35" x="107.568359"/>
      </g>
     </g>
    </g>
    <g id="xtick_6">
     <g id="line2d_6">
      <g>
       <use xlink:href="#m77a51f8fd5" x="720.109393" y="647.156875" style="stroke: #000000; stroke-width: 0.8"/>
      </g>
     </g>
     <g id="text_6">
      <!-- 3.0 -->
      <g transform="translate(705.938143 666.314375) scale(0.16 -0.16)">
       <defs>
        <path id="DejaVuSans-Bold-33" d="M 2981 2516 
Q 3453 2394 3698 2092 
Q 3944 1791 3944 1325 
Q 3944 631 3412 270 
Q 2881 -91 1863 -91 
Q 1503 -91 1142 -33 
Q 781 25 428 141 
L 428 1069 
Q 766 900 1098 814 
Q 1431 728 1753 728 
Q 2231 728 2486 893 
Q 2741 1059 2741 1369 
Q 2741 1688 2480 1852 
Q 2219 2016 1709 2016 
L 1228 2016 
L 1228 2791 
L 1734 2791 
Q 2188 2791 2409 2933 
Q 2631 3075 2631 3366 
Q 2631 3634 2415 3781 
Q 2200 3928 1806 3928 
Q 1516 3928 1219 3862 
Q 922 3797 628 3669 
L 628 4550 
Q 984 4650 1334 4700 
Q 1684 4750 2022 4750 
Q 2931 4750 3382 4451 
Q 3834 4153 3834 3553 
Q 3834 3144 3618 2883 
Q 3403 2622 2981 2516 
z
" transform="scale(0.015625)"/>
       </defs>
       <use xlink:href="#DejaVuSans-Bold-33"/>
       <use xlink:href="#DejaVuSans-Bold-2e" x="69.580078"/>
       <use xlink:href="#DejaVuSans-Bold-30" x="107.568359"/>
      </g>
     </g>
    </g>
    <g id="text_7">
     <!-- UNAAGI -->
     <g transform="translate(385.770071 687.319062) scale(0.18 -0.18)">
      <defs>
       <path id="DejaVuSans-Bold-55" d="M 588 4666 
L 1791 4666 
L 1791 1869 
Q 1791 1291 1980 1042 
Q 2169 794 2597 794 
Q 3028 794 3217 1042 
Q 3406 1291 3406 1869 
L 3406 4666 
L 4609 4666 
L 4609 1869 
Q 4609 878 4112 393 
Q 3616 -91 2597 -91 
Q 1581 -91 1084 393 
Q 588 878 588 1869 
L 588 4666 
z
" transform="scale(0.015625)"/>
       <path id="DejaVuSans-Bold-4e" d="M 588 4666 
L 1931 4666 
L 3628 1466 
L 3628 4666 
L 4769 4666 
L 4769 0 
L 3425 0 
L 1728 3200 
L 1728 0 
L 588 0 
L 588 4666 
z
" transform="scale(0.015625)"/>
       <path id="DejaVuSans-Bold-41" d="M 3419 850 
L 1538 850 
L 1241 0 
L 31 0 
L 1759 4666 
L 3194 4666 
L 4922 0 
L 3713 0 
L 3419 850 
z
M 1838 1716 
L 3116 1716 
L 2478 3572 
L 1838 1716 
z
" transform="scale(0.015625)"/>
       <path id="DejaVuSans-Bold-47" d="M 4781 347 
Q 4331 128 3847 18 
Q 3363 -91 2847 -91 
Q 1681 -91 1000 561 
Q 319 1213 319 2328 
Q 319 3456 1012 4103 
Q 1706 4750 2913 4750 
Q 3378 4750 3804 4662 
Q 4231 4575 4609 4403 
L 4609 3438 
Q 4219 3659 3833 3768 
Q 3447 3878 3059 3878 
Q 2341 3878 1952 3476 
Q 1563 3075 1563 2328 
Q 1563 1588 1938 1184 
Q 2313 781 3003 781 
Q 3191 781 3352 804 
Q 3513 828 3641 878 
L 3641 1784 
L 2906 1784 
L 2906 2591 
L 4781 2591 
L 4781 347 
z
" transform="scale(0.015625)"/>
       <path id="DejaVuSans-Bold-49" d="M 588 4666 
L 1791 4666 
L 1791 0 
L 588 0 
L 588 4666 
z
" transform="scale(0.015625)"/>
      </defs>
      <use xlink:href="#DejaVuSans-Bold-55"/>
      <use xlink:href="#DejaVuSans-Bold-4e" x="81.201172"/>
      <use xlink:href="#DejaVuSans-Bold-41" x="164.892578"/>
      <use xlink:href="#DejaVuSans-Bold-41" x="242.285156"/>
      <use xlink:href="#DejaVuSans-Bold-47" x="319.677734"/>
      <use xlink:href="#DejaVuSans-Bold-49" x="401.757812"/>
     </g>
    </g>
   </g>
   <g id="matplotlib.axis_2">
    <g id="ytick_1">
     <g id="line2d_7">
      <defs>
       <path id="m56d54a3cba" d="M 0 0 
L -3.5 0 
" style="stroke: #000000; stroke-width: 0.8"/>
      </defs>
      <g>
       <use xlink:href="#m56d54a3cba" x="77.370625" y="563.742065" style="stroke: #000000; stroke-width: 0.8"/>
      </g>
     </g>
     <g id="text_8">
      <!-- −0.5 -->
      <g transform="translate(28.620625 569.820815) scale(0.16 -0.16)">
       <defs>
        <path id="DejaVuSans-Bold-2212" d="M 678 2375 
L 4684 2375 
L 4684 1638 
L 678 1638 
L 678 2375 
z
" transform="scale(0.015625)"/>
       </defs>
       <use xlink:href="#DejaVuSans-Bold-2212"/>
       <use xlink:href="#DejaVuSans-Bold-30" x="83.789062"/>
       <use xlink:href="#DejaVuSans-Bold-2e" x="153.369141"/>
       <use xlink:href="#DejaVuSans-Bold-35" x="191.357422"/>
      </g>
     </g>
    </g>
    <g id="ytick_2">
     <g id="line2d_8">
      <g>
       <use xlink:href="#m56d54a3cba" x="77.370625" y="443.547815" style="stroke: #000000; stroke-width: 0.8"/>
      </g>
     </g>
     <g id="text_9">
      <!-- 0.0 -->
      <g transform="translate(42.028125 449.626565) scale(0.16 -0.16)">
       <use xlink:href="#DejaVuSans-Bold-30"/>
       <use xlink:href="#DejaVuSans-Bold-2e" x="69.580078"/>
       <use xlink:href="#DejaVuSans-Bold-30" x="107.568359"/>
      </g>
     </g>
    </g>
    <g id="ytick_3">
     <g id="line2d_9">
      <g>
       <use xlink:href="#m56d54a3cba" x="77.370625" y="323.353565" style="stroke: #000000; stroke-width: 0.8"/>
      </g>
     </g>
     <g id="text_10">
      <!-- 0.5 -->
      <g transform="translate(42.028125 329.432315) scale(0.16 -0.16)">
       <use xlink:href="#DejaVuSans-Bold-30"/>
       <use xlink:href="#DejaVuSans-Bold-2e" x="69.580078"/>
       <use xlink:href="#DejaVuSans-Bold-35" x="107.568359"/>
      </g>
     </g>
    </g>
    <g id="ytick_4">
     <g id="line2d_10">
      <g>
       <use xlink:href="#m56d54a3cba" x="77.370625" y="203.159315" style="stroke: #000000; stroke-width: 0.8"/>
      </g>
     </g>
     <g id="text_11">
      <!-- 1.0 -->
      <g transform="translate(42.028125 209.238065) scale(0.16 -0.16)">
       <use xlink:href="#DejaVuSans-Bold-31"/>
       <use xlink:href="#DejaVuSans-Bold-2e" x="69.580078"/>
       <use xlink:href="#DejaVuSans-Bold-30" x="107.568359"/>
      </g>
     </g>
    </g>
    <g id="ytick_5">
     <g id="line2d_11">
      <g>
       <use xlink:href="#m56d54a3cba" x="77.370625" y="82.965065" style="stroke: #000000; stroke-width: 0.8"/>
      </g>
     </g>
     <g id="text_12">
      <!-- 1.5 -->
      <g transform="translate(42.028125 89.043815) scale(0.16 -0.16)">
       <use xlink:href="#DejaVuSans-Bold-31"/>
       <use xlink:href="#DejaVuSans-Bold-2e" x="69.580078"/>
       <use xlink:href="#DejaVuSans-Bold-35" x="107.568359"/>
      </g>
     </g>
    </g>
    <g id="text_13">
     <!-- ddG -->
     <g transform="translate(20.877188 358.047969) rotate(-90) scale(0.18 -0.18)">
      <defs>
       <path id="DejaVuSans-Bold-64" d="M 2919 2988 
L 2919 4863 
L 4044 4863 
L 4044 0 
L 2919 0 
L 2919 506 
Q 2688 197 2409 53 
Q 2131 -91 1766 -91 
Q 1119 -91 703 423 
Q 288 938 288 1747 
Q 288 2556 703 3070 
Q 1119 3584 1766 3584 
Q 2128 3584 2408 3439 
Q 2688 3294 2919 2988 
z
M 2181 722 
Q 2541 722 2730 984 
Q 2919 1247 2919 1747 
Q 2919 2247 2730 2509 
Q 2541 2772 2181 2772 
Q 1825 2772 1636 2509 
Q 1447 2247 1447 1747 
Q 1447 1247 1636 984 
Q 1825 722 2181 722 
z
" transform="scale(0.015625)"/>
      </defs>
      <use xlink:href="#DejaVuSans-Bold-64"/>
      <use xlink:href="#DejaVuSans-Bold-64" x="71.582031"/>
      <use xlink:href="#DejaVuSans-Bold-47" x="143.164062"/>
     </g>
    </g>
   </g>
   <g id="line2d_12"/>
   <g id="line2d_13"/>
   <g id="line2d_14"/>
   <g id="line2d_15"/>
   <g id="line2d_16"/>
   <g id="line2d_17"/>
   <g id="line2d_18"/>
   <g id="line2d_19"/>
   <g id="patch_3">
    <path d="M 77.370625 647.156875 
L 77.370625 28.396875 
" style="fill: none; stroke: #000000; stroke-width: 0.8; stroke-linejoin: miter; stroke-linecap: square"/>
   </g>
   <g id="patch_4">
    <path d="M 773.18108 647.156875 
L 773.18108 28.396875 
" style="fill: none; stroke: #000000; stroke-width: 0.8; stroke-linejoin: miter; stroke-linecap: square"/>
   </g>
   <g id="patch_5">
    <path d="M 77.370625 647.156875 
L 773.18108 647.156875 
" style="fill: none; stroke: #000000; stroke-width: 0.8; stroke-linejoin: miter; stroke-linecap: square"/>
   </g>
   <g id="patch_6">
    <path d="M 77.370625 28.396875 
L 773.18108 28.396875 
" style="fill: none; stroke: #000000; stroke-width: 0.8; stroke-linejoin: miter; stroke-linecap: square"/>
   </g>
   <g id="text_14">
    <!-- Spearman: 0.22 -->
    <g transform="translate(595.573057 612.891375) scale(0.16 -0.16)">
     <defs>
      <path id="DejaVuSans-Bold-53" d="M 3834 4519 
L 3834 3531 
Q 3450 3703 3084 3790 
Q 2719 3878 2394 3878 
Q 1963 3878 1756 3759 
Q 1550 3641 1550 3391 
Q 1550 3203 1689 3098 
Q 1828 2994 2194 2919 
L 2706 2816 
Q 3484 2659 3812 2340 
Q 4141 2022 4141 1434 
Q 4141 663 3683 286 
Q 3225 -91 2284 -91 
Q 1841 -91 1394 -6 
Q 947 78 500 244 
L 500 1259 
Q 947 1022 1364 901 
Q 1781 781 2169 781 
Q 2563 781 2772 912 
Q 2981 1044 2981 1288 
Q 2981 1506 2839 1625 
Q 2697 1744 2272 1838 
L 1806 1941 
Q 1106 2091 782 2419 
Q 459 2747 459 3303 
Q 459 4000 909 4375 
Q 1359 4750 2203 4750 
Q 2588 4750 2994 4692 
Q 3400 4634 3834 4519 
z
" transform="scale(0.015625)"/>
      <path id="DejaVuSans-Bold-70" d="M 1656 506 
L 1656 -1331 
L 538 -1331 
L 538 3500 
L 1656 3500 
L 1656 2988 
Q 1888 3294 2169 3439 
Q 2450 3584 2816 3584 
Q 3463 3584 3878 3070 
Q 4294 2556 4294 1747 
Q 4294 938 3878 423 
Q 3463 -91 2816 -91 
Q 2450 -91 2169 54 
Q 1888 200 1656 506 
z
M 2400 2772 
Q 2041 2772 1848 2508 
Q 1656 2244 1656 1747 
Q 1656 1250 1848 986 
Q 2041 722 2400 722 
Q 2759 722 2948 984 
Q 3138 1247 3138 1747 
Q 3138 2247 2948 2509 
Q 2759 2772 2400 2772 
z
" transform="scale(0.015625)"/>
      <path id="DejaVuSans-Bold-65" d="M 4031 1759 
L 4031 1441 
L 1416 1441 
Q 1456 1047 1700 850 
Q 1944 653 2381 653 
Q 2734 653 3104 758 
Q 3475 863 3866 1075 
L 3866 213 
Q 3469 63 3072 -14 
Q 2675 -91 2278 -91 
Q 1328 -91 801 392 
Q 275 875 275 1747 
Q 275 2603 792 3093 
Q 1309 3584 2216 3584 
Q 3041 3584 3536 3087 
Q 4031 2591 4031 1759 
z
M 2881 2131 
Q 2881 2450 2695 2645 
Q 2509 2841 2209 2841 
Q 1884 2841 1681 2658 
Q 1478 2475 1428 2131 
L 2881 2131 
z
" transform="scale(0.015625)"/>
      <path id="DejaVuSans-Bold-61" d="M 2106 1575 
Q 1756 1575 1579 1456 
Q 1403 1338 1403 1106 
Q 1403 894 1545 773 
Q 1688 653 1941 653 
Q 2256 653 2472 879 
Q 2688 1106 2688 1447 
L 2688 1575 
L 2106 1575 
z
M 3816 1997 
L 3816 0 
L 2688 0 
L 2688 519 
Q 2463 200 2181 54 
Q 1900 -91 1497 -91 
Q 953 -91 614 226 
Q 275 544 275 1050 
Q 275 1666 698 1953 
Q 1122 2241 2028 2241 
L 2688 2241 
L 2688 2328 
Q 2688 2594 2478 2717 
Q 2269 2841 1825 2841 
Q 1466 2841 1156 2769 
Q 847 2697 581 2553 
L 581 3406 
Q 941 3494 1303 3539 
Q 1666 3584 2028 3584 
Q 2975 3584 3395 3211 
Q 3816 2838 3816 1997 
z
" transform="scale(0.015625)"/>
      <path id="DejaVuSans-Bold-72" d="M 3138 2547 
Q 2991 2616 2845 2648 
Q 2700 2681 2553 2681 
Q 2122 2681 1889 2404 
Q 1656 2128 1656 1613 
L 1656 0 
L 538 0 
L 538 3500 
L 1656 3500 
L 1656 2925 
Q 1872 3269 2151 3426 
Q 2431 3584 2822 3584 
Q 2878 3584 2943 3579 
Q 3009 3575 3134 3559 
L 3138 2547 
z
" transform="scale(0.015625)"/>
      <path id="DejaVuSans-Bold-6d" d="M 3781 2919 
Q 3994 3244 4286 3414 
Q 4578 3584 4928 3584 
Q 5531 3584 5847 3212 
Q 6163 2841 6163 2131 
L 6163 0 
L 5038 0 
L 5038 1825 
Q 5041 1866 5042 1909 
Q 5044 1953 5044 2034 
Q 5044 2406 4934 2573 
Q 4825 2741 4581 2741 
Q 4263 2741 4089 2478 
Q 3916 2216 3909 1719 
L 3909 0 
L 2784 0 
L 2784 1825 
Q 2784 2406 2684 2573 
Q 2584 2741 2328 2741 
Q 2006 2741 1831 2477 
Q 1656 2213 1656 1722 
L 1656 0 
L 531 0 
L 531 3500 
L 1656 3500 
L 1656 2988 
Q 1863 3284 2130 3434 
Q 2397 3584 2719 3584 
Q 3081 3584 3359 3409 
Q 3638 3234 3781 2919 
z
" transform="scale(0.015625)"/>
      <path id="DejaVuSans-Bold-6e" d="M 4056 2131 
L 4056 0 
L 2931 0 
L 2931 347 
L 2931 1631 
Q 2931 2084 2911 2256 
Q 2891 2428 2841 2509 
Q 2775 2619 2662 2680 
Q 2550 2741 2406 2741 
Q 2056 2741 1856 2470 
Q 1656 2200 1656 1722 
L 1656 0 
L 538 0 
L 538 3500 
L 1656 3500 
L 1656 2988 
Q 1909 3294 2193 3439 
Q 2478 3584 2822 3584 
Q 3428 3584 3742 3212 
Q 4056 2841 4056 2131 
z
" transform="scale(0.015625)"/>
      <path id="DejaVuSans-Bold-3a" d="M 716 3500 
L 1844 3500 
L 1844 2291 
L 716 2291 
L 716 3500 
z
M 716 1209 
L 1844 1209 
L 1844 0 
L 716 0 
L 716 1209 
z
" transform="scale(0.015625)"/>
      <path id="DejaVuSans-Bold-20" transform="scale(0.015625)"/>
     </defs>
     <use xlink:href="#DejaVuSans-Bold-53"/>
     <use xlink:href="#DejaVuSans-Bold-70" x="72.021484"/>
     <use xlink:href="#DejaVuSans-Bold-65" x="143.603516"/>
     <use xlink:href="#DejaVuSans-Bold-61" x="211.425781"/>
     <use xlink:href="#DejaVuSans-Bold-72" x="278.90625"/>
     <use xlink:href="#DejaVuSans-Bold-6d" x="328.222656"/>
     <use xlink:href="#DejaVuSans-Bold-61" x="432.421875"/>
     <use xlink:href="#DejaVuSans-Bold-6e" x="499.902344"/>
     <use xlink:href="#DejaVuSans-Bold-3a" x="571.09375"/>
     <use xlink:href="#DejaVuSans-Bold-20" x="611.083984"/>
     <use xlink:href="#DejaVuSans-Bold-30" x="645.898438"/>
     <use xlink:href="#DejaVuSans-Bold-2e" x="715.478516"/>
     <use xlink:href="#DejaVuSans-Bold-32" x="753.466797"/>
     <use xlink:href="#DejaVuSans-Bold-32" x="823.046875"/>
    </g>
   </g>
   <g id="text_15">
    <!-- PUMA on NCAA mutants (coloured by wild-type) -->
    <g transform="translate(154.608665 22.396875) scale(0.2 -0.2)">
     <defs>
      <path id="DejaVuSans-Bold-50" d="M 588 4666 
L 2584 4666 
Q 3475 4666 3951 4270 
Q 4428 3875 4428 3144 
Q 4428 2409 3951 2014 
Q 3475 1619 2584 1619 
L 1791 1619 
L 1791 0 
L 588 0 
L 588 4666 
z
M 1791 3794 
L 1791 2491 
L 2456 2491 
Q 2806 2491 2997 2661 
Q 3188 2831 3188 3144 
Q 3188 3456 2997 3625 
Q 2806 3794 2456 3794 
L 1791 3794 
z
" transform="scale(0.015625)"/>
      <path id="DejaVuSans-Bold-4d" d="M 588 4666 
L 2119 4666 
L 3181 2169 
L 4250 4666 
L 5778 4666 
L 5778 0 
L 4641 0 
L 4641 3413 
L 3566 897 
L 2803 897 
L 1728 3413 
L 1728 0 
L 588 0 
L 588 4666 
z
" transform="scale(0.015625)"/>
      <path id="DejaVuSans-Bold-6f" d="M 2203 2784 
Q 1831 2784 1636 2517 
Q 1441 2250 1441 1747 
Q 1441 1244 1636 976 
Q 1831 709 2203 709 
Q 2569 709 2762 976 
Q 2956 1244 2956 1747 
Q 2956 2250 2762 2517 
Q 2569 2784 2203 2784 
z
M 2203 3584 
Q 3106 3584 3614 3096 
Q 4122 2609 4122 1747 
Q 4122 884 3614 396 
Q 3106 -91 2203 -91 
Q 1297 -91 786 396 
Q 275 884 275 1747 
Q 275 2609 786 3096 
Q 1297 3584 2203 3584 
z
" transform="scale(0.015625)"/>
      <path id="DejaVuSans-Bold-43" d="M 4288 256 
Q 3956 84 3597 -3 
Q 3238 -91 2847 -91 
Q 1681 -91 1000 561 
Q 319 1213 319 2328 
Q 319 3447 1000 4098 
Q 1681 4750 2847 4750 
Q 3238 4750 3597 4662 
Q 3956 4575 4288 4403 
L 4288 3438 
Q 3953 3666 3628 3772 
Q 3303 3878 2944 3878 
Q 2300 3878 1931 3465 
Q 1563 3053 1563 2328 
Q 1563 1606 1931 1193 
Q 2300 781 2944 781 
Q 3303 781 3628 887 
Q 3953 994 4288 1222 
L 4288 256 
z
" transform="scale(0.015625)"/>
      <path id="DejaVuSans-Bold-75" d="M 500 1363 
L 500 3500 
L 1625 3500 
L 1625 3150 
Q 1625 2866 1622 2436 
Q 1619 2006 1619 1863 
Q 1619 1441 1641 1255 
Q 1663 1069 1716 984 
Q 1784 875 1895 815 
Q 2006 756 2150 756 
Q 2500 756 2700 1025 
Q 2900 1294 2900 1772 
L 2900 3500 
L 4019 3500 
L 4019 0 
L 2900 0 
L 2900 506 
Q 2647 200 2364 54 
Q 2081 -91 1741 -91 
Q 1134 -91 817 281 
Q 500 653 500 1363 
z
" transform="scale(0.015625)"/>
      <path id="DejaVuSans-Bold-74" d="M 1759 4494 
L 1759 3500 
L 2913 3500 
L 2913 2700 
L 1759 2700 
L 1759 1216 
Q 1759 972 1856 886 
Q 1953 800 2241 800 
L 2816 800 
L 2816 0 
L 1856 0 
Q 1194 0 917 276 
Q 641 553 641 1216 
L 641 2700 
L 84 2700 
L 84 3500 
L 641 3500 
L 641 4494 
L 1759 4494 
z
" transform="scale(0.015625)"/>
      <path id="DejaVuSans-Bold-73" d="M 3272 3391 
L 3272 2541 
Q 2913 2691 2578 2766 
Q 2244 2841 1947 2841 
Q 1628 2841 1473 2761 
Q 1319 2681 1319 2516 
Q 1319 2381 1436 2309 
Q 1553 2238 1856 2203 
L 2053 2175 
Q 2913 2066 3209 1816 
Q 3506 1566 3506 1031 
Q 3506 472 3093 190 
Q 2681 -91 1863 -91 
Q 1516 -91 1145 -36 
Q 775 19 384 128 
L 384 978 
Q 719 816 1070 734 
Q 1422 653 1784 653 
Q 2113 653 2278 743 
Q 2444 834 2444 1013 
Q 2444 1163 2330 1236 
Q 2216 1309 1875 1350 
L 1678 1375 
Q 931 1469 631 1722 
Q 331 1975 331 2491 
Q 331 3047 712 3315 
Q 1094 3584 1881 3584 
Q 2191 3584 2531 3537 
Q 2872 3491 3272 3391 
z
" transform="scale(0.015625)"/>
      <path id="DejaVuSans-Bold-28" d="M 2413 -844 
L 1484 -844 
Q 1006 -72 778 623 
Q 550 1319 550 2003 
Q 550 2688 779 3389 
Q 1009 4091 1484 4856 
L 2413 4856 
Q 2013 4116 1813 3408 
Q 1613 2700 1613 2009 
Q 1613 1319 1811 609 
Q 2009 -100 2413 -844 
z
" transform="scale(0.015625)"/>
      <path id="DejaVuSans-Bold-63" d="M 3366 3391 
L 3366 2478 
Q 3138 2634 2908 2709 
Q 2678 2784 2431 2784 
Q 1963 2784 1702 2511 
Q 1441 2238 1441 1747 
Q 1441 1256 1702 982 
Q 1963 709 2431 709 
Q 2694 709 2930 787 
Q 3166 866 3366 1019 
L 3366 103 
Q 3103 6 2833 -42 
Q 2563 -91 2291 -91 
Q 1344 -91 809 395 
Q 275 881 275 1747 
Q 275 2613 809 3098 
Q 1344 3584 2291 3584 
Q 2566 3584 2833 3536 
Q 3100 3488 3366 3391 
z
" transform="scale(0.015625)"/>
      <path id="DejaVuSans-Bold-6c" d="M 538 4863 
L 1656 4863 
L 1656 0 
L 538 0 
L 538 4863 
z
" transform="scale(0.015625)"/>
      <path id="DejaVuSans-Bold-62" d="M 2400 722 
Q 2759 722 2948 984 
Q 3138 1247 3138 1747 
Q 3138 2247 2948 2509 
Q 2759 2772 2400 2772 
Q 2041 2772 1848 2508 
Q 1656 2244 1656 1747 
Q 1656 1250 1848 986 
Q 2041 722 2400 722 
z
M 1656 2988 
Q 1888 3294 2169 3439 
Q 2450 3584 2816 3584 
Q 3463 3584 3878 3070 
Q 4294 2556 4294 1747 
Q 4294 938 3878 423 
Q 3463 -91 2816 -91 
Q 2450 -91 2169 54 
Q 1888 200 1656 506 
L 1656 0 
L 538 0 
L 538 4863 
L 1656 4863 
L 1656 2988 
z
" transform="scale(0.015625)"/>
      <path id="DejaVuSans-Bold-79" d="M 78 3500 
L 1197 3500 
L 2138 1125 
L 2938 3500 
L 4056 3500 
L 2584 -331 
Q 2363 -916 2067 -1148 
Q 1772 -1381 1288 -1381 
L 641 -1381 
L 641 -647 
L 991 -647 
Q 1275 -647 1404 -556 
Q 1534 -466 1606 -231 
L 1638 -134 
L 78 3500 
z
" transform="scale(0.015625)"/>
      <path id="DejaVuSans-Bold-77" d="M 225 3500 
L 1313 3500 
L 1900 1088 
L 2491 3500 
L 3425 3500 
L 4013 1113 
L 4603 3500 
L 5691 3500 
L 4769 0 
L 3547 0 
L 2956 2406 
L 2369 0 
L 1147 0 
L 225 3500 
z
" transform="scale(0.015625)"/>
      <path id="DejaVuSans-Bold-69" d="M 538 3500 
L 1656 3500 
L 1656 0 
L 538 0 
L 538 3500 
z
M 538 4863 
L 1656 4863 
L 1656 3950 
L 538 3950 
L 538 4863 
z
" transform="scale(0.015625)"/>
      <path id="DejaVuSans-Bold-2d" d="M 347 2297 
L 2309 2297 
L 2309 1388 
L 347 1388 
L 347 2297 
z
" transform="scale(0.015625)"/>
      <path id="DejaVuSans-Bold-29" d="M 513 -844 
Q 913 -100 1113 609 
Q 1313 1319 1313 2009 
Q 1313 2700 1113 3408 
Q 913 4116 513 4856 
L 1441 4856 
Q 1916 4091 2145 3389 
Q 2375 2688 2375 2003 
Q 2375 1319 2147 623 
Q 1919 -72 1441 -844 
L 513 -844 
z
" transform="scale(0.015625)"/>
     </defs>
     <use xlink:href="#DejaVuSans-Bold-50"/>
     <use xlink:href="#DejaVuSans-Bold-55" x="73.291016"/>
     <use xlink:href="#DejaVuSans-Bold-4d" x="154.492188"/>
     <use xlink:href="#DejaVuSans-Bold-41" x="254.003906"/>
     <use xlink:href="#DejaVuSans-Bold-20" x="331.396484"/>
     <use xlink:href="#DejaVuSans-Bold-6f" x="366.210938"/>
     <use xlink:href="#DejaVuSans-Bold-6e" x="434.912109"/>
     <use xlink:href="#DejaVuSans-Bold-20" x="506.103516"/>
     <use xlink:href="#DejaVuSans-Bold-4e" x="540.917969"/>
     <use xlink:href="#DejaVuSans-Bold-43" x="624.609375"/>
     <use xlink:href="#DejaVuSans-Bold-41" x="697.998047"/>
     <use xlink:href="#DejaVuSans-Bold-41" x="775.390625"/>
     <use xlink:href="#DejaVuSans-Bold-20" x="852.783203"/>
     <use xlink:href="#DejaVuSans-Bold-6d" x="887.597656"/>
     <use xlink:href="#DejaVuSans-Bold-75" x="991.796875"/>
     <use xlink:href="#DejaVuSans-Bold-74" x="1062.988281"/>
     <use xlink:href="#DejaVuSans-Bold-61" x="1110.791016"/>
     <use xlink:href="#DejaVuSans-Bold-6e" x="1178.271484"/>
     <use xlink:href="#DejaVuSans-Bold-74" x="1249.462891"/>
     <use xlink:href="#DejaVuSans-Bold-73" x="1297.265625"/>
     <use xlink:href="#DejaVuSans-Bold-20" x="1356.787109"/>
     <use xlink:href="#DejaVuSans-Bold-28" x="1391.601562"/>
     <use xlink:href="#DejaVuSans-Bold-63" x="1437.304688"/>
     <use xlink:href="#DejaVuSans-Bold-6f" x="1496.582031"/>
     <use xlink:href="#DejaVuSans-Bold-6c" x="1565.283203"/>
     <use xlink:href="#DejaVuSans-Bold-6f" x="1599.560547"/>
     <use xlink:href="#DejaVuSans-Bold-75" x="1668.261719"/>
     <use xlink:href="#DejaVuSans-Bold-72" x="1739.453125"/>
     <use xlink:href="#DejaVuSans-Bold-65" x="1788.769531"/>
     <use xlink:href="#DejaVuSans-Bold-64" x="1856.591797"/>
     <use xlink:href="#DejaVuSans-Bold-20" x="1928.173828"/>
     <use xlink:href="#DejaVuSans-Bold-62" x="1962.988281"/>
     <use xlink:href="#DejaVuSans-Bold-79" x="2034.570312"/>
     <use xlink:href="#DejaVuSans-Bold-20" x="2099.755859"/>
     <use xlink:href="#DejaVuSans-Bold-77" x="2134.570312"/>
     <use xlink:href="#DejaVuSans-Bold-69" x="2226.953125"/>
     <use xlink:href="#DejaVuSans-Bold-6c" x="2261.230469"/>
     <use xlink:href="#DejaVuSans-Bold-64" x="2295.507812"/>
     <use xlink:href="#DejaVuSans-Bold-2d" x="2367.089844"/>
     <use xlink:href="#DejaVuSans-Bold-74" x="2408.59375"/>
     <use xlink:href="#DejaVuSans-Bold-79" x="2456.396484"/>
     <use xlink:href="#DejaVuSans-Bold-70" x="2521.582031"/>
     <use xlink:href="#DejaVuSans-Bold-65" x="2593.164062"/>
     <use xlink:href="#DejaVuSans-Bold-29" x="2660.986328"/>
    </g>
   </g>
   <g id="legend_1">
    <g id="patch_7">
     <path d="M 810.771602 219.601875 
L 900.599102 219.601875 
Q 903.399102 219.601875 903.399102 216.801875 
L 903.399102 31.196875 
Q 903.399102 28.396875 900.599102 28.396875 
L 810.771602 28.396875 
Q 807.971602 28.396875 807.971602 31.196875 
L 807.971602 216.801875 
Q 807.971602 219.601875 810.771602 219.601875 
z
" style="fill: #ffffff; opacity: 0.8; stroke: #cccccc; stroke-linejoin: miter"/>
    </g>
    <g id="text_16">
     <!-- wild-type -->
     <g transform="translate(813.571602 46.154375) scale(0.16 -0.16)">
      <use xlink:href="#DejaVuSans-Bold-77"/>
      <use xlink:href="#DejaVuSans-Bold-69" x="92.382812"/>
      <use xlink:href="#DejaVuSans-Bold-6c" x="126.660156"/>
      <use xlink:href="#DejaVuSans-Bold-64" x="160.9375"/>
      <use xlink:href="#DejaVuSans-Bold-2d" x="232.519531"/>
      <use xlink:href="#DejaVuSans-Bold-74" x="274.023438"/>
      <use xlink:href="#DejaVuSans-Bold-79" x="321.826172"/>
      <use xlink:href="#DejaVuSans-Bold-70" x="387.011719"/>
      <use xlink:href="#DejaVuSans-Bold-65" x="458.59375"/>
     </g>
    </g>
    <g id="line2d_20">
     <defs>
      <path id="mac4a01b645" d="M 0 4.472136 
C 1.186024 4.472136 2.323632 4.000923 3.162278 3.162278 
C 4.000923 2.323632 4.472136 1.186024 4.472136 0 
C 4.472136 -1.186024 4.000923 -2.323632 3.162278 -3.162278 
C 2.323632 -4.000923 1.186024 -4.472136 0 -4.472136 
C -1.186024 -4.472136 -2.323632 -4.000923 -3.162278 -3.162278 
C -4.000923 -2.323632 -4.472136 -1.186024 -4.472136 0 
C -4.472136 1.186024 -4.000923 2.323632 -3.162278 3.162278 
C -2.323632 4.000923 -1.186024 4.472136 0 4.472136 
z
" style="stroke: #ffffff; stroke-width: 0.715542"/>
     </defs>
     <g>
      <use xlink:href="#mac4a01b645" x="833.53254" y="62.344687" style="fill: #1f77b4; stroke: #ffffff; stroke-width: 0.715542"/>
     </g>
    </g>
    <g id="text_17">
     <!-- GLU -->
     <g transform="translate(858.73254 67.244687) scale(0.14 -0.14)">
      <defs>
       <path id="DejaVuSans-Bold-4c" d="M 588 4666 
L 1791 4666 
L 1791 909 
L 3903 909 
L 3903 0 
L 588 0 
L 588 4666 
z
" transform="scale(0.015625)"/>
      </defs>
      <use xlink:href="#DejaVuSans-Bold-47"/>
      <use xlink:href="#DejaVuSans-Bold-4c" x="82.080078"/>
      <use xlink:href="#DejaVuSans-Bold-55" x="142.175781"/>
     </g>
    </g>
    <g id="line2d_21">
     <defs>
      <path id="m8173ced2fc" d="M 0 4.472136 
C 1.186024 4.472136 2.323632 4.000923 3.162278 3.162278 
C 4.000923 2.323632 4.472136 1.186024 4.472136 0 
C 4.472136 -1.186024 4.000923 -2.323632 3.162278 -3.162278 
C 2.323632 -4.000923 1.186024 -4.472136 0 -4.472136 
C -1.186024 -4.472136 -2.323632 -4.000923 -3.162278 -3.162278 
C -4.000923 -2.323632 -4.472136 -1.186024 -4.472136 0 
C -4.472136 1.186024 -4.000923 2.323632 -3.162278 3.162278 
C -2.323632 4.000923 -1.186024 4.472136 0 4.472136 
z
" style="stroke: #ffffff; stroke-width: 0.715542"/>
     </defs>
     <g>
      <use xlink:href="#m8173ced2fc" x="833.53254" y="82.894062" style="fill: #ff7f0e; stroke: #ffffff; stroke-width: 0.715542"/>
     </g>
    </g>
    <g id="text_18">
     <!-- TRP -->
     <g transform="translate(858.73254 87.794062) scale(0.14 -0.14)">
      <defs>
       <path id="DejaVuSans-Bold-54" d="M 31 4666 
L 4331 4666 
L 4331 3756 
L 2784 3756 
L 2784 0 
L 1581 0 
L 1581 3756 
L 31 3756 
L 31 4666 
z
" transform="scale(0.015625)"/>
       <path id="DejaVuSans-Bold-52" d="M 2297 2597 
Q 2675 2597 2839 2737 
Q 3003 2878 3003 3200 
Q 3003 3519 2839 3656 
Q 2675 3794 2297 3794 
L 1791 3794 
L 1791 2597 
L 2297 2597 
z
M 1791 1766 
L 1791 0 
L 588 0 
L 588 4666 
L 2425 4666 
Q 3347 4666 3776 4356 
Q 4206 4047 4206 3378 
Q 4206 2916 3982 2619 
Q 3759 2322 3309 2181 
Q 3556 2125 3751 1926 
Q 3947 1728 4147 1325 
L 4800 0 
L 3519 0 
L 2950 1159 
Q 2778 1509 2601 1637 
Q 2425 1766 2131 1766 
L 1791 1766 
z
" transform="scale(0.015625)"/>
      </defs>
      <use xlink:href="#DejaVuSans-Bold-54"/>
      <use xlink:href="#DejaVuSans-Bold-52" x="68.212891"/>
      <use xlink:href="#DejaVuSans-Bold-50" x="145.214844"/>
     </g>
    </g>
    <g id="line2d_22">
     <defs>
      <path id="m3de2eaf57e" d="M 0 4.472136 
C 1.186024 4.472136 2.323632 4.000923 3.162278 3.162278 
C 4.000923 2.323632 4.472136 1.186024 4.472136 0 
C 4.472136 -1.186024 4.000923 -2.323632 3.162278 -3.162278 
C 2.323632 -4.000923 1.186024 -4.472136 0 -4.472136 
C -1.186024 -4.472136 -2.323632 -4.000923 -3.162278 -3.162278 
C -4.000923 -2.323632 -4.472136 -1.186024 -4.472136 0 
C -4.472136 1.186024 -4.000923 2.323632 -3.162278 3.162278 
C -2.323632 4.000923 -1.186024 4.472136 0 4.472136 
z
" style="stroke: #ffffff; stroke-width: 0.715542"/>
     </defs>
     <g>
      <use xlink:href="#m3de2eaf57e" x="833.53254" y="103.443437" style="fill: #2ca02c; stroke: #ffffff; stroke-width: 0.715542"/>
     </g>
    </g>
    <g id="text_19">
     <!-- ALA -->
     <g transform="translate(858.73254 108.343437) scale(0.14 -0.14)">
      <use xlink:href="#DejaVuSans-Bold-41"/>
      <use xlink:href="#DejaVuSans-Bold-4c" x="77.392578"/>
      <use xlink:href="#DejaVuSans-Bold-41" x="141.113281"/>
     </g>
    </g>
    <g id="line2d_23">
     <defs>
      <path id="me95d4448e8" d="M 0 4.472136 
C 1.186024 4.472136 2.323632 4.000923 3.162278 3.162278 
C 4.000923 2.323632 4.472136 1.186024 4.472136 0 
C 4.472136 -1.186024 4.000923 -2.323632 3.162278 -3.162278 
C 2.323632 -4.000923 1.186024 -4.472136 0 -4.472136 
C -1.186024 -4.472136 -2.323632 -4.000923 -3.162278 -3.162278 
C -4.000923 -2.323632 -4.472136 -1.186024 -4.472136 0 
C -4.472136 1.186024 -4.000923 2.323632 -3.162278 3.162278 
C -2.323632 4.000923 -1.186024 4.472136 0 4.472136 
z
" style="stroke: #ffffff; stroke-width: 0.715542"/>
     </defs>
     <g>
      <use xlink:href="#me95d4448e8" x="833.53254" y="123.992812" style="fill: #d62728; stroke: #ffffff; stroke-width: 0.715542"/>
     </g>
    </g>
    <g id="text_20">
     <!-- ILE -->
     <g transform="translate(858.73254 128.892812) scale(0.14 -0.14)">
      <defs>
       <path id="DejaVuSans-Bold-45" d="M 588 4666 
L 3834 4666 
L 3834 3756 
L 1791 3756 
L 1791 2888 
L 3713 2888 
L 3713 1978 
L 1791 1978 
L 1791 909 
L 3903 909 
L 3903 0 
L 588 0 
L 588 4666 
z
" transform="scale(0.015625)"/>
      </defs>
      <use xlink:href="#DejaVuSans-Bold-49"/>
      <use xlink:href="#DejaVuSans-Bold-4c" x="37.207031"/>
      <use xlink:href="#DejaVuSans-Bold-45" x="100.927734"/>
     </g>
    </g>
    <g id="line2d_24">
     <defs>
      <path id="mc61e3d35a5" d="M 0 4.472136 
C 1.186024 4.472136 2.323632 4.000923 3.162278 3.162278 
C 4.000923 2.323632 4.472136 1.186024 4.472136 0 
C 4.472136 -1.186024 4.000923 -2.323632 3.162278 -3.162278 
C 2.323632 -4.000923 1.186024 -4.472136 0 -4.472136 
C -1.186024 -4.472136 -2.323632 -4.000923 -3.162278 -3.162278 
C -4.000923 -2.323632 -4.472136 -1.186024 -4.472136 0 
C -4.472136 1.186024 -4.000923 2.323632 -3.162278 3.162278 
C -2.323632 4.000923 -1.186024 4.472136 0 4.472136 
z
" style="stroke: #ffffff; stroke-width: 0.715542"/>
     </defs>
     <g>
      <use xlink:href="#mc61e3d35a5" x="833.53254" y="144.542187" style="fill: #9467bd; stroke: #ffffff; stroke-width: 0.715542"/>
     </g>
    </g>
    <g id="text_21">
     <!-- LEU -->
     <g transform="translate(858.73254 149.442187) scale(0.14 -0.14)">
      <use xlink:href="#DejaVuSans-Bold-4c"/>
      <use xlink:href="#DejaVuSans-Bold-45" x="63.720703"/>
      <use xlink:href="#DejaVuSans-Bold-55" x="132.03125"/>
     </g>
    </g>
    <g id="line2d_25">
     <defs>
      <path id="mb1a9b0d0b2" d="M 0 4.472136 
C 1.186024 4.472136 2.323632 4.000923 3.162278 3.162278 
C 4.000923 2.323632 4.472136 1.186024 4.472136 0 
C 4.472136 -1.186024 4.000923 -2.323632 3.162278 -3.162278 
C 2.323632 -4.000923 1.186024 -4.472136 0 -4.472136 
C -1.186024 -4.472136 -2.323632 -4.000923 -3.162278 -3.162278 
C -4.000923 -2.323632 -4.472136 -1.186024 -4.472136 0 
C -4.472136 1.186024 -4.000923 2.323632 -3.162278 3.162278 
C -2.323632 4.000923 -1.186024 4.472136 0 4.472136 
z
" style="stroke: #ffffff; stroke-width: 0.715542"/>
     </defs>
     <g>
      <use xlink:href="#mb1a9b0d0b2" x="833.53254" y="165.091562" style="fill: #8c564b; stroke: #ffffff; stroke-width: 0.715542"/>
     </g>
    </g>
    <g id="text_22">
     <!-- ARG -->
     <g transform="translate(858.73254 169.991562) scale(0.14 -0.14)">
      <use xlink:href="#DejaVuSans-Bold-41"/>
      <use xlink:href="#DejaVuSans-Bold-52" x="77.392578"/>
      <use xlink:href="#DejaVuSans-Bold-47" x="154.394531"/>
     </g>
    </g>
    <g id="line2d_26">
     <defs>
      <path id="m6408948299" d="M 0 4.472136 
C 1.186024 4.472136 2.323632 4.000923 3.162278 3.162278 
C 4.000923 2.323632 4.472136 1.186024 4.472136 0 
C 4.472136 -1.186024 4.000923 -2.323632 3.162278 -3.162278 
C 2.323632 -4.000923 1.186024 -4.472136 0 -4.472136 
C -1.186024 -4.472136 -2.323632 -4.000923 -3.162278 -3.162278 
C -4.000923 -2.323632 -4.472136 -1.186024 -4.472136 0 
C -4.472136 1.186024 -4.000923 2.323632 -3.162278 3.162278 
C -2.323632 4.000923 -1.186024 4.472136 0 4.472136 
z
" style="stroke: #ffffff; stroke-width: 0.715542"/>
     </defs>
     <g>
      <use xlink:href="#m6408948299" x="833.53254" y="185.640937" style="fill: #e377c2; stroke: #ffffff; stroke-width: 0.715542"/>
     </g>
    </g>
    <g id="text_23">
     <!-- ASP -->
     <g transform="translate(858.73254 190.540937) scale(0.14 -0.14)">
      <use xlink:href="#DejaVuSans-Bold-41"/>
      <use xlink:href="#DejaVuSans-Bold-53" x="77.392578"/>
      <use xlink:href="#DejaVuSans-Bold-50" x="149.414062"/>
     </g>
    </g>
    <g id="line2d_27">
     <defs>
      <path id="mb9e37373e0" d="M 0 4.472136 
C 1.186024 4.472136 2.323632 4.000923 3.162278 3.162278 
C 4.000923 2.323632 4.472136 1.186024 4.472136 0 
C 4.472136 -1.186024 4.000923 -2.323632 3.162278 -3.162278 
C 2.323632 -4.000923 1.186024 -4.472136 0 -4.472136 
C -1.186024 -4.472136 -2.323632 -4.000923 -3.162278 -3.162278 
C -4.000923 -2.323632 -4.472136 -1.186024 -4.472136 0 
C -4.472136 1.186024 -4.000923 2.323632 -3.162278 3.162278 
C -2.323632 4.000923 -1.186024 4.472136 0 4.472136 
z
" style="stroke: #ffffff; stroke-width: 0.715542"/>
     </defs>
     <g>
      <use xlink:href="#mb9e37373e0" x="833.53254" y="206.190312" style="fill: #7f7f7f; stroke: #ffffff; stroke-width: 0.715542"/>
     </g>
    </g>
    <g id="text_24">
     <!-- GLN -->
     <g transform="translate(858.73254 211.090312) scale(0.14 -0.14)">
      <use xlink:href="#DejaVuSans-Bold-47"/>
      <use xlink:href="#DejaVuSans-Bold-4c" x="82.080078"/>
      <use xlink:href="#DejaVuSans-Bold-4e" x="145.800781"/>
     </g>
    </g>
   </g>
  </g>
  <g id="axes_2">
   <g id="patch_8">
    <path d="M 921.195625 647.156875 
L 1617.00608 647.156875 
L 1617.00608 28.396875 
L 921.195625 28.396875 
z
" style="fill: #ffffff"/>
   </g>
   <g id="PathCollection_2">
    <defs>
     <path id="C1_0_ca6de31425" d="M 0 4.472136 
C 1.186024 4.472136 2.323632 4.000923 3.162278 3.162278 
C 4.000923 2.323632 4.472136 1.186024 4.472136 -0 
C 4.472136 -1.186024 4.000923 -2.323632 3.162278 -3.162278 
C 2.323632 -4.000923 1.186024 -4.472136 0 -4.472136 
C -1.186024 -4.472136 -2.323632 -4.000923 -3.162278 -3.162278 
C -4.000923 -2.323632 -4.472136 -1.186024 -4.472136 0 
C -4.472136 1.186024 -4.000923 2.323632 -3.162278 3.162278 
C -2.323632 4.000923 -1.186024 4.472136 0 4.472136 
z
"/>
    </defs>
    <g clip-path="url(#p13761ac463)">
     <use xlink:href="#C1_0_ca6de31425" x="1116.08573" y="619.03142" style="fill: #1f77b4; stroke: #ffffff; stroke-width: 0.715542"/>
    </g>
    <g clip-path="url(#p13761ac463)">
     <use xlink:href="#C1_0_ca6de31425" x="952.823373" y="597.396455" style="fill: #ff7f0e; stroke: #ffffff; stroke-width: 0.715542"/>
    </g>
    <g clip-path="url(#p13761ac463)">
     <use xlink:href="#C1_0_ca6de31425" x="1116.08573" y="400.277885" style="fill: #2ca02c; stroke: #ffffff; stroke-width: 0.715542"/>
    </g>
    <g clip-path="url(#p13761ac463)">
     <use xlink:href="#C1_0_ca6de31425" x="1236.404469" y="337.776875" style="fill: #1f77b4; stroke: #ffffff; stroke-width: 0.715542"/>
    </g>
    <g clip-path="url(#p13761ac463)">
     <use xlink:href="#C1_0_ca6de31425" x="1495.169182" y="489.22163" style="fill: #2ca02c; stroke: #ffffff; stroke-width: 0.715542"/>
    </g>
    <g clip-path="url(#p13761ac463)">
     <use xlink:href="#C1_0_ca6de31425" x="1236.404469" y="546.91487" style="fill: #1f77b4; stroke: #ffffff; stroke-width: 0.715542"/>
    </g>
    <g clip-path="url(#p13761ac463)">
     <use xlink:href="#C1_0_ca6de31425" x="1315.656397" y="431.52839" style="fill: #2ca02c; stroke: #ffffff; stroke-width: 0.715542"/>
    </g>
    <g clip-path="url(#p13761ac463)">
     <use xlink:href="#C1_0_ca6de31425" x="1258.853618" y="150.273845" style="fill: #2ca02c; stroke: #ffffff; stroke-width: 0.715542"/>
    </g>
    <g clip-path="url(#p13761ac463)">
     <use xlink:href="#C1_0_ca6de31425" x="1562.929182" y="56.52233" style="fill: #1f77b4; stroke: #ffffff; stroke-width: 0.715542"/>
    </g>
    <g clip-path="url(#p13761ac463)">
     <use xlink:href="#C1_0_ca6de31425" x="1562.929182" y="438.740045" style="fill: #d62728; stroke: #ffffff; stroke-width: 0.715542"/>
    </g>
    <g clip-path="url(#p13761ac463)">
     <use xlink:href="#C1_0_ca6de31425" x="1315.656397" y="299.314715" style="fill: #1f77b4; stroke: #ffffff; stroke-width: 0.715542"/>
    </g>
    <g clip-path="url(#p13761ac463)">
     <use xlink:href="#C1_0_ca6de31425" x="1347.108086" y="426.72062" style="fill: #1f77b4; stroke: #ffffff; stroke-width: 0.715542"/>
    </g>
    <g clip-path="url(#p13761ac463)">
     <use xlink:href="#C1_0_ca6de31425" x="1347.108086" y="546.91487" style="fill: #2ca02c; stroke: #ffffff; stroke-width: 0.715542"/>
    </g>
    <g clip-path="url(#p13761ac463)">
     <use xlink:href="#C1_0_ca6de31425" x="1347.108086" y="477.202205" style="fill: #9467bd; stroke: #ffffff; stroke-width: 0.715542"/>
    </g>
    <g clip-path="url(#p13761ac463)">
     <use xlink:href="#C1_0_ca6de31425" x="1432.586045" y="453.163355" style="fill: #d62728; stroke: #ffffff; stroke-width: 0.715542"/>
    </g>
    <g clip-path="url(#p13761ac463)">
     <use xlink:href="#C1_0_ca6de31425" x="1585.378332" y="354.60407" style="fill: #2ca02c; stroke: #ffffff; stroke-width: 0.715542"/>
    </g>
    <g clip-path="url(#p13761ac463)">
     <use xlink:href="#C1_0_ca6de31425" x="1347.108086" y="462.778895" style="fill: #2ca02c; stroke: #ffffff; stroke-width: 0.715542"/>
    </g>
    <g clip-path="url(#p13761ac463)">
     <use xlink:href="#C1_0_ca6de31425" x="1442.610443" y="405.085655" style="fill: #1f77b4; stroke: #ffffff; stroke-width: 0.715542"/>
    </g>
    <g clip-path="url(#p13761ac463)">
     <use xlink:href="#C1_0_ca6de31425" x="1279.348086" y="429.124505" style="fill: #2ca02c; stroke: #ffffff; stroke-width: 0.715542"/>
    </g>
   </g>
   <g id="matplotlib.axis_3">
    <g id="xtick_7">
     <g id="line2d_28">
      <g>
       <use xlink:href="#m77a51f8fd5" x="975.089913" y="647.156875" style="stroke: #000000; stroke-width: 0.8"/>
      </g>
     </g>
     <g id="text_25">
      <!-- 0.5 -->
      <g transform="translate(960.918663 666.314375) scale(0.16 -0.16)">
       <use xlink:href="#DejaVuSans-Bold-30"/>
       <use xlink:href="#DejaVuSans-Bold-2e" x="69.580078"/>
       <use xlink:href="#DejaVuSans-Bold-35" x="107.568359"/>
      </g>
     </g>
    </g>
    <g id="xtick_8">
     <g id="line2d_29">
      <g>
       <use xlink:href="#m77a51f8fd5" x="1092.858809" y="647.156875" style="stroke: #000000; stroke-width: 0.8"/>
      </g>
     </g>
     <g id="text_26">
      <!-- 1.0 -->
      <g transform="translate(1078.687559 666.314375) scale(0.16 -0.16)">
       <use xlink:href="#DejaVuSans-Bold-31"/>
       <use xlink:href="#DejaVuSans-Bold-2e" x="69.580078"/>
       <use xlink:href="#DejaVuSans-Bold-30" x="107.568359"/>
      </g>
     </g>
    </g>
    <g id="xtick_9">
     <g id="line2d_30">
      <g>
       <use xlink:href="#m77a51f8fd5" x="1210.627705" y="647.156875" style="stroke: #000000; stroke-width: 0.8"/>
      </g>
     </g>
     <g id="text_27">
      <!-- 1.5 -->
      <g transform="translate(1196.456455 666.314375) scale(0.16 -0.16)">
       <use xlink:href="#DejaVuSans-Bold-31"/>
       <use xlink:href="#DejaVuSans-Bold-2e" x="69.580078"/>
       <use xlink:href="#DejaVuSans-Bold-35" x="107.568359"/>
      </g>
     </g>
    </g>
    <g id="xtick_10">
     <g id="line2d_31">
      <g>
       <use xlink:href="#m77a51f8fd5" x="1328.396601" y="647.156875" style="stroke: #000000; stroke-width: 0.8"/>
      </g>
     </g>
     <g id="text_28">
      <!-- 2.0 -->
      <g transform="translate(1314.225351 666.314375) scale(0.16 -0.16)">
       <use xlink:href="#DejaVuSans-Bold-32"/>
       <use xlink:href="#DejaVuSans-Bold-2e" x="69.580078"/>
       <use xlink:href="#DejaVuSans-Bold-30" x="107.568359"/>
      </g>
     </g>
    </g>
    <g id="xtick_11">
     <g id="line2d_32">
      <g>
       <use xlink:href="#m77a51f8fd5" x="1446.165497" y="647.156875" style="stroke: #000000; stroke-width: 0.8"/>
      </g>
     </g>
     <g id="text_29">
      <!-- 2.5 -->
      <g transform="translate(1431.994247 666.314375) scale(0.16 -0.16)">
       <use xlink:href="#DejaVuSans-Bold-32"/>
       <use xlink:href="#DejaVuSans-Bold-2e" x="69.580078"/>
       <use xlink:href="#DejaVuSans-Bold-35" x="107.568359"/>
      </g>
     </g>
    </g>
    <g id="xtick_12">
     <g id="line2d_33">
      <g>
       <use xlink:href="#m77a51f8fd5" x="1563.934393" y="647.156875" style="stroke: #000000; stroke-width: 0.8"/>
      </g>
     </g>
     <g id="text_30">
      <!-- 3.0 -->
      <g transform="translate(1549.763143 666.314375) scale(0.16 -0.16)">
       <use xlink:href="#DejaVuSans-Bold-33"/>
       <use xlink:href="#DejaVuSans-Bold-2e" x="69.580078"/>
       <use xlink:href="#DejaVuSans-Bold-30" x="107.568359"/>
      </g>
     </g>
    </g>
    <g id="text_31">
     <!-- UNAAGI -->
     <g transform="translate(1229.595071 687.319062) scale(0.18 -0.18)">
      <use xlink:href="#DejaVuSans-Bold-55"/>
      <use xlink:href="#DejaVuSans-Bold-4e" x="81.201172"/>
      <use xlink:href="#DejaVuSans-Bold-41" x="164.892578"/>
      <use xlink:href="#DejaVuSans-Bold-41" x="242.285156"/>
      <use xlink:href="#DejaVuSans-Bold-47" x="319.677734"/>
      <use xlink:href="#DejaVuSans-Bold-49" x="401.757812"/>
     </g>
    </g>
   </g>
   <g id="matplotlib.axis_4">
    <g id="ytick_6">
     <g id="line2d_34">
      <g>
       <use xlink:href="#m56d54a3cba" x="921.195625" y="563.742065" style="stroke: #000000; stroke-width: 0.8"/>
      </g>
     </g>
    </g>
    <g id="ytick_7">
     <g id="line2d_35">
      <g>
       <use xlink:href="#m56d54a3cba" x="921.195625" y="443.547815" style="stroke: #000000; stroke-width: 0.8"/>
      </g>
     </g>
    </g>
    <g id="ytick_8">
     <g id="line2d_36">
      <g>
       <use xlink:href="#m56d54a3cba" x="921.195625" y="323.353565" style="stroke: #000000; stroke-width: 0.8"/>
      </g>
     </g>
    </g>
    <g id="ytick_9">
     <g id="line2d_37">
      <g>
       <use xlink:href="#m56d54a3cba" x="921.195625" y="203.159315" style="stroke: #000000; stroke-width: 0.8"/>
      </g>
     </g>
    </g>
    <g id="ytick_10">
     <g id="line2d_38">
      <g>
       <use xlink:href="#m56d54a3cba" x="921.195625" y="82.965065" style="stroke: #000000; stroke-width: 0.8"/>
      </g>
     </g>
    </g>
   </g>
   <g id="line2d_39"/>
   <g id="line2d_40"/>
   <g id="line2d_41"/>
   <g id="line2d_42"/>
   <g id="line2d_43"/>
   <g id="patch_9">
    <path d="M 921.195625 647.156875 
L 921.195625 28.396875 
" style="fill: none; stroke: #000000; stroke-width: 0.8; stroke-linejoin: miter; stroke-linecap: square"/>
   </g>
   <g id="patch_10">
    <path d="M 1617.00608 647.156875 
L 1617.00608 28.396875 
" style="fill: none; stroke: #000000; stroke-width: 0.8; stroke-linejoin: miter; stroke-linecap: square"/>
   </g>
   <g id="patch_11">
    <path d="M 921.195625 647.156875 
L 1617.00608 647.156875 
" style="fill: none; stroke: #000000; stroke-width: 0.8; stroke-linejoin: miter; stroke-linecap: square"/>
   </g>
   <g id="patch_12">
    <path d="M 921.195625 28.396875 
L 1617.00608 28.396875 
" style="fill: none; stroke: #000000; stroke-width: 0.8; stroke-linejoin: miter; stroke-linecap: square"/>
   </g>
   <g id="text_32">
    <!-- Spearman: 0.22 -->
    <g transform="translate(1439.398057 612.891375) scale(0.16 -0.16)">
     <use xlink:href="#DejaVuSans-Bold-53"/>
     <use xlink:href="#DejaVuSans-Bold-70" x="72.021484"/>
     <use xlink:href="#DejaVuSans-Bold-65" x="143.603516"/>
     <use xlink:href="#DejaVuSans-Bold-61" x="211.425781"/>
     <use xlink:href="#DejaVuSans-Bold-72" x="278.90625"/>
     <use xlink:href="#DejaVuSans-Bold-6d" x="328.222656"/>
     <use xlink:href="#DejaVuSans-Bold-61" x="432.421875"/>
     <use xlink:href="#DejaVuSans-Bold-6e" x="499.902344"/>
     <use xlink:href="#DejaVuSans-Bold-3a" x="571.09375"/>
     <use xlink:href="#DejaVuSans-Bold-20" x="611.083984"/>
     <use xlink:href="#DejaVuSans-Bold-30" x="645.898438"/>
     <use xlink:href="#DejaVuSans-Bold-2e" x="715.478516"/>
     <use xlink:href="#DejaVuSans-Bold-32" x="753.466797"/>
     <use xlink:href="#DejaVuSans-Bold-32" x="823.046875"/>
    </g>
   </g>
   <g id="text_33">
    <!-- PUMA on NCAA mutants (coloured by mutant-type) -->
    <g transform="translate(980.721165 22.396875) scale(0.2 -0.2)">
     <use xlink:href="#DejaVuSans-Bold-50"/>
     <use xlink:href="#DejaVuSans-Bold-55" x="73.291016"/>
     <use xlink:href="#DejaVuSans-Bold-4d" x="154.492188"/>
     <use xlink:href="#DejaVuSans-Bold-41" x="254.003906"/>
     <use xlink:href="#DejaVuSans-Bold-20" x="331.396484"/>
     <use xlink:href="#DejaVuSans-Bold-6f" x="366.210938"/>
     <use xlink:href="#DejaVuSans-Bold-6e" x="434.912109"/>
     <use xlink:href="#DejaVuSans-Bold-20" x="506.103516"/>
     <use xlink:href="#DejaVuSans-Bold-4e" x="540.917969"/>
     <use xlink:href="#DejaVuSans-Bold-43" x="624.609375"/>
     <use xlink:href="#DejaVuSans-Bold-41" x="697.998047"/>
     <use xlink:href="#DejaVuSans-Bold-41" x="775.390625"/>
     <use xlink:href="#DejaVuSans-Bold-20" x="852.783203"/>
     <use xlink:href="#DejaVuSans-Bold-6d" x="887.597656"/>
     <use xlink:href="#DejaVuSans-Bold-75" x="991.796875"/>
     <use xlink:href="#DejaVuSans-Bold-74" x="1062.988281"/>
     <use xlink:href="#DejaVuSans-Bold-61" x="1110.791016"/>
     <use xlink:href="#DejaVuSans-Bold-6e" x="1178.271484"/>
     <use xlink:href="#DejaVuSans-Bold-74" x="1249.462891"/>
     <use xlink:href="#DejaVuSans-Bold-73" x="1297.265625"/>
     <use xlink:href="#DejaVuSans-Bold-20" x="1356.787109"/>
     <use xlink:href="#DejaVuSans-Bold-28" x="1391.601562"/>
     <use xlink:href="#DejaVuSans-Bold-63" x="1437.304688"/>
     <use xlink:href="#DejaVuSans-Bold-6f" x="1496.582031"/>
     <use xlink:href="#DejaVuSans-Bold-6c" x="1565.283203"/>
     <use xlink:href="#DejaVuSans-Bold-6f" x="1599.560547"/>
     <use xlink:href="#DejaVuSans-Bold-75" x="1668.261719"/>
     <use xlink:href="#DejaVuSans-Bold-72" x="1739.453125"/>
     <use xlink:href="#DejaVuSans-Bold-65" x="1788.769531"/>
     <use xlink:href="#DejaVuSans-Bold-64" x="1856.591797"/>
     <use xlink:href="#DejaVuSans-Bold-20" x="1928.173828"/>
     <use xlink:href="#DejaVuSans-Bold-62" x="1962.988281"/>
     <use xlink:href="#DejaVuSans-Bold-79" x="2034.570312"/>
     <use xlink:href="#DejaVuSans-Bold-20" x="2099.755859"/>
     <use xlink:href="#DejaVuSans-Bold-6d" x="2134.570312"/>
     <use xlink:href="#DejaVuSans-Bold-75" x="2238.769531"/>
     <use xlink:href="#DejaVuSans-Bold-74" x="2309.960938"/>
     <use xlink:href="#DejaVuSans-Bold-61" x="2357.763672"/>
     <use xlink:href="#DejaVuSans-Bold-6e" x="2425.244141"/>
     <use xlink:href="#DejaVuSans-Bold-74" x="2496.435547"/>
     <use xlink:href="#DejaVuSans-Bold-2d" x="2544.238281"/>
     <use xlink:href="#DejaVuSans-Bold-74" x="2585.742188"/>
     <use xlink:href="#DejaVuSans-Bold-79" x="2633.544922"/>
     <use xlink:href="#DejaVuSans-Bold-70" x="2698.730469"/>
     <use xlink:href="#DejaVuSans-Bold-65" x="2770.3125"/>
     <use xlink:href="#DejaVuSans-Bold-29" x="2838.134766"/>
    </g>
   </g>
   <g id="legend_2">
    <g id="patch_13">
     <path d="M 1654.596602 157.95375 
L 1772.764102 157.95375 
Q 1775.564102 157.95375 1775.564102 155.15375 
L 1775.564102 31.196875 
Q 1775.564102 28.396875 1772.764102 28.396875 
L 1654.596602 28.396875 
Q 1651.796602 28.396875 1651.796602 31.196875 
L 1651.796602 155.15375 
Q 1651.796602 157.95375 1654.596602 157.95375 
z
" style="fill: #ffffff; opacity: 0.8; stroke: #cccccc; stroke-linejoin: miter"/>
    </g>
    <g id="text_34">
     <!-- mutant-type -->
     <g transform="translate(1657.396602 46.154375) scale(0.16 -0.16)">
      <use xlink:href="#DejaVuSans-Bold-6d"/>
      <use xlink:href="#DejaVuSans-Bold-75" x="104.199219"/>
      <use xlink:href="#DejaVuSans-Bold-74" x="175.390625"/>
      <use xlink:href="#DejaVuSans-Bold-61" x="223.193359"/>
      <use xlink:href="#DejaVuSans-Bold-6e" x="290.673828"/>
      <use xlink:href="#DejaVuSans-Bold-74" x="361.865234"/>
      <use xlink:href="#DejaVuSans-Bold-2d" x="409.667969"/>
      <use xlink:href="#DejaVuSans-Bold-74" x="451.171875"/>
      <use xlink:href="#DejaVuSans-Bold-79" x="498.974609"/>
      <use xlink:href="#DejaVuSans-Bold-70" x="564.160156"/>
      <use xlink:href="#DejaVuSans-Bold-65" x="635.742188"/>
     </g>
    </g>
    <g id="line2d_44">
     <g>
      <use xlink:href="#mac4a01b645" x="1691.643477" y="62.344687" style="fill: #1f77b4; stroke: #ffffff; stroke-width: 0.715542"/>
     </g>
    </g>
    <g id="text_35">
     <!-- NVA -->
     <g transform="translate(1716.843477 67.244687) scale(0.14 -0.14)">
      <defs>
       <path id="DejaVuSans-Bold-56" d="M 31 4666 
L 1241 4666 
L 2478 1222 
L 3713 4666 
L 4922 4666 
L 3194 0 
L 1759 0 
L 31 4666 
z
" transform="scale(0.015625)"/>
      </defs>
      <use xlink:href="#DejaVuSans-Bold-4e"/>
      <use xlink:href="#DejaVuSans-Bold-56" x="83.691406"/>
      <use xlink:href="#DejaVuSans-Bold-41" x="154.333984"/>
     </g>
    </g>
    <g id="line2d_45">
     <g>
      <use xlink:href="#m8173ced2fc" x="1691.643477" y="82.894062" style="fill: #ff7f0e; stroke: #ffffff; stroke-width: 0.715542"/>
     </g>
    </g>
    <g id="text_36">
     <!-- NLE -->
     <g transform="translate(1716.843477 87.794062) scale(0.14 -0.14)">
      <use xlink:href="#DejaVuSans-Bold-4e"/>
      <use xlink:href="#DejaVuSans-Bold-4c" x="83.691406"/>
      <use xlink:href="#DejaVuSans-Bold-45" x="147.412109"/>
     </g>
    </g>
    <g id="line2d_46">
     <g>
      <use xlink:href="#m3de2eaf57e" x="1691.643477" y="103.443437" style="fill: #2ca02c; stroke: #ffffff; stroke-width: 0.715542"/>
     </g>
    </g>
    <g id="text_37">
     <!-- ABU -->
     <g transform="translate(1716.843477 108.343437) scale(0.14 -0.14)">
      <defs>
       <path id="DejaVuSans-Bold-42" d="M 2456 2859 
Q 2741 2859 2887 2984 
Q 3034 3109 3034 3353 
Q 3034 3594 2887 3720 
Q 2741 3847 2456 3847 
L 1791 3847 
L 1791 2859 
L 2456 2859 
z
M 2497 819 
Q 2859 819 3042 972 
Q 3225 1125 3225 1434 
Q 3225 1738 3044 1889 
Q 2863 2041 2497 2041 
L 1791 2041 
L 1791 819 
L 2497 819 
z
M 3616 2497 
Q 4003 2384 4215 2081 
Q 4428 1778 4428 1338 
Q 4428 663 3972 331 
Q 3516 0 2584 0 
L 588 0 
L 588 4666 
L 2394 4666 
Q 3366 4666 3802 4372 
Q 4238 4078 4238 3431 
Q 4238 3091 4078 2852 
Q 3919 2613 3616 2497 
z
" transform="scale(0.015625)"/>
      </defs>
      <use xlink:href="#DejaVuSans-Bold-41"/>
      <use xlink:href="#DejaVuSans-Bold-42" x="77.392578"/>
      <use xlink:href="#DejaVuSans-Bold-55" x="153.613281"/>
     </g>
    </g>
    <g id="line2d_47">
     <g>
      <use xlink:href="#me95d4448e8" x="1691.643477" y="123.992812" style="fill: #d62728; stroke: #ffffff; stroke-width: 0.715542"/>
     </g>
    </g>
    <g id="text_38">
     <!-- TBU -->
     <g transform="translate(1716.843477 128.892812) scale(0.14 -0.14)">
      <use xlink:href="#DejaVuSans-Bold-54"/>
      <use xlink:href="#DejaVuSans-Bold-42" x="68.212891"/>
      <use xlink:href="#DejaVuSans-Bold-55" x="144.433594"/>
     </g>
    </g>
    <g id="line2d_48">
     <g>
      <use xlink:href="#mc61e3d35a5" x="1691.643477" y="144.542187" style="fill: #9467bd; stroke: #ffffff; stroke-width: 0.715542"/>
     </g>
    </g>
    <g id="text_39">
     <!-- CPA -->
     <g transform="translate(1716.843477 149.442187) scale(0.14 -0.14)">
      <use xlink:href="#DejaVuSans-Bold-43"/>
      <use xlink:href="#DejaVuSans-Bold-50" x="73.388672"/>
      <use xlink:href="#DejaVuSans-Bold-41" x="137.554688"/>
     </g>
    </g>
   </g>
  </g>
 </g>
 <defs>
  <clipPath id="pf173b5121c">
   <rect x="77.370625" y="28.396875" width="695.810455" height="618.76"/>
  </clipPath>
  <clipPath id="p13761ac463">
   <rect x="921.195625" y="28.396875" width="695.810455" height="618.76"/>
  </clipPath>
 </defs>
</svg>
